<?xml version="1.0" encoding="utf-8"?>
<!-- Generator: Adobe Illustrator 24.0.1, SVG Export Plug-In . SVG Version: 6.00 Build 0)  -->
<svg height="66" version="1.1" id="Слой_1" xmlns="http://www.w3.org/2000/svg" xmlns:xlink="http://www.w3.org/1999/xlink" x="0px" y="0px"
	 viewBox="0 0 300 330" style="enable-background:new 0 0 300 330;" xml:space="preserve">
<style type="text/css">
	.st0{fill:#4487B2;}
	.st1{fill:none;stroke:#4487B2;stroke-width:2.35;stroke-miterlimit:10;}
</style>
<g>
	<g>
		<g>
			<path class="st0" d="M244,15.7H23.1c-2.6,0-5.1,1-6.9,2.7c-1.7,1.7-2.9,4-2.9,6.5v285.3c0,2.5,1.1,4.8,2.8,6.5l0,0
				c1.7,1.6,4.2,2.7,6.9,2.7h254.6c2.7,0,5.1-1,6.9-2.7l0,0c1.7-1.6,2.8-3.9,2.8-6.5V24.9c0-2.5-1.1-4.8-2.8-6.5l0,0l0,0
				c-1.8-1.7-4.2-2.7-6.9-2.7H238c-3.4,0-6.2-2.6-6.2-5.8S234.5,4,238,4h39.8c6.1,0,11.6,2.3,15.6,6.1l0,0c4,3.8,6.5,9,6.5,14.7
				v285.3c0,5.7-2.5,10.9-6.5,14.7l-0.1,0c-4,3.8-9.5,6.1-15.6,6.1H23.1c-6,0-11.5-2.3-15.6-6.1l0,0c-4-3.8-6.5-9-6.5-14.7V24.9
				c0-5.7,2.5-10.9,6.5-14.7S17,4,23.1,4C23.1,4,243,4,243,4L244,15.7z"/>
			<path class="st0" d="M259.2,4c2.2,2.1,43.1,11.1,32.3,11.7L259.2,4z"/>
		</g>
	</g>
</g>
<path class="st1" d="M276.2,9.8"/>
<path class="st1" d="M48.3,9.8"/>
<g>
	<g>
		<g>
			<path class="st0" d="M222.7,38.4H45.4c-2.2,0-4.2,0.8-5.7,2.1c-1.4,1.3-2.4,3.1-2.4,5v219c0,1.9,0.9,3.7,2.3,5l0,0
				c1.4,1.3,3.4,2.1,5.7,2.1h210c2.2,0,4.2-0.8,5.7-2.1l0,0c1.4-1.3,2.3-3,2.3-5v-219c0-1.9-0.9-3.7-2.3-5l0,0l0,0
				c-1.5-1.3-3.5-2.1-5.7-2.1H222.7c-2.8,0-5.1-2-5.1-4.5c0-2.5,2.3-4.5,5.1-4.5h32.8c5,0,9.6,1.8,12.9,4.7l0,0
				c3.3,2.9,5.3,6.9,5.3,11.3v219c0,4.4-2.1,8.4-5.3,11.3l-0.1,0c-3.3,2.9-7.8,4.7-12.9,4.7h-210c-5,0-9.5-1.8-12.9-4.7l0,0
				c-3.3-2.9-5.3-6.9-5.3-11.3v-219c0-4.4,2.1-8.4,5.3-11.3s7.8-4.7,12.9-4.7c0,0,178.9,0,178.9,0L222.7,38.4z"/>
			<path class="st0" d="M240.1,29.4c1.8,1.6,35.6,8.5,26.7,8.9L240.1,29.4z"/>
		</g>
	</g>
</g>
<g>
	<path class="st0" d="M138,230.9c-1,0-1.9-0.6-2.2-1.6c-1.3-3.9-3.3-36.1,0.9-38.7c2.5-1.5,21.2-3,25.8-1.7c0.4,0.1,1.7,0.5,2.3,1.7
		c0.8,1.7,1.9,35.9-0.6,38.7c-0.9,1-2.3,1-3.3,0.2c-0.8-0.7-1-1.9-0.5-2.9c0.8-3.2,1-27.8,0.3-33.3c-3.7-0.6-17.4,0.3-21.1,1.2
		c-1.1,4.7-1,28.2,0.7,33.3c0.4,1.2-0.3,2.6-1.5,3C138.5,230.8,138.3,230.9,138,230.9z"/>
	<path class="st0" d="M76.5,168c-8.6,0-9.6-2.1-10-2.9c-1.3-2.7-1.3-16.8-0.3-19.6c0.3-0.8,0.8-1.4,1.5-1.7c0.4-0.2,1-0.4,4.9-0.4
		c8.6,0,9.8,1.1,10.3,1.6c2.3,2.2,2,17.5,2,17.6c-0.1,2.2-0.4,3.6-1.4,4.4C83,167.2,81.9,168,76.5,168z M70.6,162.7
		c0.7,0.3,2.7,0.6,5.9,0.6c1.6,0,2.9-0.1,3.6-0.2c0.3-3.1-0.1-11.8-0.7-14.7c-1.2-0.2-3.7-0.4-6.9-0.4c-0.9,0-1.6,0-2.2,0
		C69.9,151.4,70.1,160.2,70.6,162.7z"/>
	<path class="st0" d="M101.1,167.8c-7.2,0-8.4-1.8-8.9-2.5c-1.6-2.3-3.4-18.6-0.4-20.8c0.4-0.3,1.4-1,6-1c3.6,0,8.3,0.3,9.8,1.9
		c2.1,2.2,3.4,18,2.6,19.8C109.9,166.1,109.1,167.8,101.1,167.8z M96,162.5c0.5,0.2,2.1,0.6,5.1,0.6c2.1,0,3.9-0.2,4.8-0.4
		c0-3.2-0.9-11.6-1.7-13.9c-1-0.3-3.4-0.6-6.4-0.6c-1.4,0-2.3,0.1-2.9,0.1C94.6,151.5,95.2,160.4,96,162.5z"/>
	<path class="st0" d="M149,168.3c-4.4,0-6.3-0.7-7.1-2.4c-0.6-1.4-2-19.2,1.8-21.4c1.8-1,5.7-1.1,6.9-1.1c5.6,0,6.6,1.3,7,1.9
		c1.1,1.5,3.1,19.3,0.3,21.5C156.1,168.3,149.7,168.3,149,168.3z M146.1,163.5c0.5,0.1,1.4,0.2,2.9,0.2c2.2,0,4.4-0.2,5.6-0.4
		c0.3-3.1-0.2-12-0.8-14.8c-0.6-0.1-1.6-0.3-3.2-0.3c-1.9,0-3.4,0.2-4.1,0.4C145.7,151.1,145.7,160.3,146.1,163.5z"/>
	<path class="st0" d="M102.8,201.5c-2.4,0-9.5-0.6-11.4-3.1c-2-2.7-1.7-18.3,1.1-20.8c0.5-0.5,1.8-1.7,7.8-1.7
		c2.6,0,7.3,0.2,8.7,1.6c2.3,2.2,1.9,18.9,0.4,21.5C108.5,200.7,106.4,201.5,102.8,201.5z M95.2,195.6c1,0.5,4.3,1.3,7.6,1.3
		c1.4,0,2.3-0.2,2.6-0.3c0.7-2.4,0.6-12.4,0.1-15.5c-1-0.2-2.9-0.4-5.2-0.4c-2.7,0-4.1,0.3-4.6,0.5
		C94.7,183.4,94.5,193.1,95.2,195.6z"/>
	<path class="st0" d="M203.3,201.3c-3.6,0-9.9-0.4-11.2-3c-1.3-2.4-0.4-19.2,2-21.5c0.9-0.8,2.2-1.2,4.3-1.2c2.7,0,8.7,0.8,10.7,2.7
		c2.7,2.4,2.8,18.5,1.3,20.9C209.8,200.3,208.5,201.3,203.3,201.3z M196.2,195.8c1.2,0.4,4,0.8,7.1,0.8c1.7,0,2.8-0.1,3.3-0.3
		c0.4-2.6,0.1-12.4-0.7-14.6c-1-0.5-4.6-1.4-7.5-1.4c-0.5,0-0.8,0-1,0.1C196.5,183.2,195.9,192.9,196.2,195.8z"/>
	<path class="st0" d="M201.6,168c-1.2,0-7.3-0.1-9.4-2c-0.8-0.7-1.6-2.1-1.7-6.8c0-0.1-0.2-10.7,2.1-13.1c1.9-2,8.2-2.4,10.2-2.4
		c2.9,0,4.7,0.5,5.6,1.7c2.2,2.6,1.8,18.4,0,20.8C207.8,167,206.5,168,201.6,168z M195.6,162.6c0.7,0.3,3.1,0.7,6.1,0.7
		c1.7,0,2.7-0.2,3.2-0.3c0.5-2.2,0.8-11.8,0.1-14.5c-0.3-0.1-1-0.2-2.1-0.2c-2.9,0-5.8,0.6-6.8,1
		C195.3,151.6,194.8,160.3,195.6,162.6z"/>
	<path class="st0" d="M226.2,168.1c-5,0-8.2-0.8-9.5-2.4c-2-2.5-2.3-19.5-0.5-21.4c0.5-0.5,1.3-1.3,7.4-1.3c8.1,0,9.3,1.5,9.8,2.2
		c2.1,2.7,1.6,19.1,0.7,20.7C233.8,166.7,233,168.1,226.2,168.1z M220.4,162.7c0.7,0.3,2.6,0.7,5.8,0.7c1.9,0,3.2-0.1,4-0.3
		c0.2-2.7,0.2-12.3-0.4-14.9c-0.8-0.2-2.9-0.5-6.1-0.5c-1.7,0-3,0.1-3.8,0.2C219.5,151.2,219.6,160.5,220.4,162.7z"/>
	<path class="st0" d="M184.7,181.5c-0.2,0-0.3,0-0.5-0.1c-6.8-1.5-57.7-3.4-68.3-2c-1.3,0.2-2.4-0.7-2.6-2c-0.2-1.3,0.7-2.5,2-2.6
		c11.1-1.4,62.5,0.4,69.9,2.1c1.3,0.3,2,1.5,1.8,2.8C186.7,180.8,185.8,181.5,184.7,181.5z"/>
	<path class="st0" d="M143.4,232.2c-4.7,0-8-0.1-8.1-0.1c-11.2-0.3-11.9-1.2-12.6-2c-2.9-3.6-0.3-48.8,0.1-52.3
		c0.2-1.3,1.4-2.2,2.6-2c1.3,0.2,2.2,1.4,2,2.6c-1,6.9-2.1,42.1-1.1,48.4c6.4,1.4,41.2,0.7,47.2-0.9c0.8-4.5-0.1-26.5-1.4-46.4
		c-0.1-1.3,0.9-2.4,2.2-2.5c1.2-0.1,2.4,0.9,2.5,2.2c3.1,46.9,1.1,49.2,0.3,50C174.8,231.9,154.9,232.2,143.4,232.2z"/>
	<path class="st0" d="M113,137.4c-30.1,0-54.2-0.4-57.3-1.5c-1.2-0.4-1.8-1.8-1.4-3c0.4-1.2,1.8-1.8,3-1.4
		c6.8,1.9,174.7,1.1,185.4-1c1.3-0.2,2.5,0.6,2.7,1.9c0.2,1.3-0.6,2.5-1.9,2.7C238.2,136.1,166.4,137.4,113,137.4z"/>
	<path class="st0" d="M86.2,135.8c-0.4,0-0.9-0.1-1.3-0.4c-1.1-0.7-1.4-2.2-0.7-3.2c2.6-3.9,59.8-59.1,68.4-59.1c0.1,0,0.1,0,0.2,0
		c7.1,0.8,58.9,52.5,62.1,58.3c0.6,1.1,0.2,2.6-0.9,3.2c-1.1,0.6-2.5,0.2-3.2-0.9c-3.9-7.1-51.9-52.9-58.5-55.8
		c-7.3,2.5-59.8,50.1-64.2,57C87.7,135.5,87,135.8,86.2,135.8z"/>
	<path class="st0" d="M154.1,75.6c0.1,1.3-0.9,2.4-2.2,2.4c0,0-0.1,0-0.1,0c-1.2,0-2.3-1-2.3-2.2"/>
	<path class="st0" d="M199.5,224.5c-11.7,0-21.7-0.8-24-2.8c-1-0.8-1.1-2.3-0.2-3.3c0.8-1,2.3-1.1,3.3-0.2c4,2.5,53.7,2.1,62.2-1.6
		c5.7-4.2,4.1-73.1,1.4-85c-1.8-8.1-17.3-30-20.4-31.7c-3.2-1.7-31.7-1.7-42.3-1c-1.3,0.1-2.4-0.9-2.5-2.2c-0.1-1.3,0.9-2.4,2.2-2.5
		c6.3-0.4,39.8-1.2,44.8,1.6c4.9,2.7,20.7,26,22.7,34.7c1.4,6.2,7,85.5-4.1,90.3C238.2,222.8,217,224.5,199.5,224.5z"/>
	<path class="st0" d="M81,224.5c-11.6,0-20.9-0.9-22.9-3.5c-4.7-6.2-7.8-82.9-6.2-89.4c1.7-7.1,12.9-32.2,25.2-36.2
		c8.8-2.9,25.6-2.6,37.8-2.4c3.9,0.1,7.3,0.1,9.8,0.1c1.2-0.1,2.4,1,2.4,2.3c0,1.3-1,2.4-2.3,2.4c-2.5,0.1-6,0-10-0.1
		c-11.9-0.2-28.2-0.4-36.3,2.2c-9.7,3.2-20.5,26.2-22.1,32.9c-1.5,6.3,2,80,5.4,85.5c3.2,2.5,33.8,1.7,60.2-0.6
		c1.3-0.1,2.4,0.8,2.5,2.1c0.1,1.3-0.8,2.4-2.1,2.5C110.6,223.4,94.3,224.5,81,224.5z"/>
	<path class="st0" d="M215.4,109c-0.9,0-1.7-0.5-2.1-1.3c-0.6-1.2-0.1-2.6,1.1-3.1c2-0.9,3.9-1.6,5.8-2.2c1.8-0.6,3.5-1.1,5.2-2
		c1.2-0.6,2.5-0.1,3.1,1.1c0.6,1.2,0.1,2.6-1.1,3.1c-2,0.9-3.9,1.6-5.8,2.2c-1.8,0.6-3.5,1.1-5.2,2C216.1,108.9,215.7,109,215.4,109
		z"/>
	<path class="st0" d="M232.1,128c-0.9,0-1.8-0.5-2.2-1.5c-0.5-1.2,0.1-2.6,1.3-3.1c1-0.4,1.8-0.8,2.6-1.2c1.5-0.8,3-1.5,4.8-1.8
		c1.3-0.2,2.5,0.6,2.7,1.9c0.2,1.3-0.6,2.5-1.9,2.7c-1.2,0.2-2.2,0.7-3.6,1.4c-0.9,0.4-1.8,0.9-2.9,1.4
		C232.7,127.9,232.4,128,232.1,128z"/>
	<path class="st0" d="M70.9,222.4c-1.1,0-2.1-0.8-2.3-1.9c-0.5-2.6-1.3-5.1-2.3-7.5c-0.5-1.2,0.1-2.6,1.2-3.1
		c1.2-0.5,2.5,0.1,3.1,1.2c1.1,2.7,2,5.5,2.6,8.4c0.2,1.3-0.6,2.5-1.8,2.7C71.2,222.4,71,222.4,70.9,222.4z"/>
	<path class="st0" d="M90.4,223.1c-1,0-1.9-0.6-2.2-1.6c-0.6-1.8-1-3.4-1.5-4.9c-0.4-1.5-0.8-3-1.4-4.7c-0.4-1.2,0.2-2.6,1.5-3
		c1.2-0.4,2.5,0.2,3,1.5c0.6,1.8,1,3.4,1.5,4.9c0.4,1.5,0.8,3,1.4,4.7c0.4,1.2-0.2,2.6-1.5,3C90.9,223.1,90.6,223.1,90.4,223.1z"/>
	<path class="st0" d="M110.5,221.4c-0.9,0-1.8-0.6-2.2-1.5c-0.7-1.9-1-3.6-1.2-5c-0.2-1.3-0.4-2.6-1-4.1c-0.5-1.2,0.1-2.6,1.3-3
		c1.2-0.5,2.5,0.1,3,1.3c0.7,1.9,1,3.6,1.2,5c0.2,1.3,0.4,2.6,1,4.1c0.5,1.2-0.1,2.6-1.3,3C111,221.3,110.7,221.4,110.5,221.4z"/>
	<path class="st0" d="M186.9,223.7c-1.1,0-2-0.7-2.3-1.8c-0.7-2.9-1.6-5.9-2.7-8.7c-0.5-1.2,0.1-2.6,1.3-3.1c1.2-0.5,2.5,0.1,3,1.3
		c1.3,3,2.3,6.2,3,9.4c0.3,1.3-0.5,2.5-1.8,2.8C187.3,223.7,187.1,223.7,186.9,223.7z"/>
	<path class="st0" d="M217.3,223.1c-1,0-1.9-0.6-2.2-1.6l-3.3-10.5c-0.4-1.2,0.3-2.5,1.5-2.9c1.2-0.4,2.5,0.3,2.9,1.5l3.3,10.5
		c0.4,1.2-0.3,2.6-1.5,2.9C217.7,223,217.5,223.1,217.3,223.1z"/>
	<path class="st0" d="M238.9,221.7c-0.7,0-1.3-0.3-1.8-0.8c-2.9-3.4-4.7-7.8-5-12.3c-0.1-1.3,0.9-2.4,2.1-2.5
		c1.3-0.1,2.4,0.9,2.5,2.2c0.3,3.5,1.7,6.9,3.9,9.6c0.8,1,0.7,2.5-0.3,3.3C240,221.5,239.5,221.7,238.9,221.7z"/>
</g>
</svg>
