<?xml version="1.0" encoding="utf-8"?>
<!-- Generator: Adobe Illustrator 24.0.1, SVG Export Plug-In . SVG Version: 6.00 Build 0)  -->
<svg height="66"  version="1.1" id="Слой_1" xmlns="http://www.w3.org/2000/svg" xmlns:xlink="http://www.w3.org/1999/xlink" x="0px" y="0px"
	 viewBox="0 0 16 16" style="enable-background:new 0 0 16 16;" xml:space="preserve">
<style type="text/css">
	.st0{fill:#4487B2;}
</style>
<path class="st0" d="M3.4,11.1c0.2,1.9,1.7,3.2,4,3.4v1.4h1.2v-1.4c2.5-0.2,4.1-1.6,4.1-3.7c0-1.8-1.1-2.8-3.3-3.4L8.5,7.2V2.9
	c1.3,0.1,2.1,0.8,2.3,1.8h1.6c-0.2-1.8-1.7-3.1-4-3.2V0.2H7.4v1.4C5.2,1.8,3.7,3.2,3.7,5.1c0,1.6,1.1,2.8,3,3.3l0.7,0.2V13
	c-1.3-0.2-2.2-0.9-2.4-1.9C5,11.1,3.4,11.1,3.4,11.1z M7.1,6.8C6,6.5,5.4,5.9,5.4,5c0-1.1,0.8-1.8,2-2v3.9L7.1,6.8L7.1,6.8z
	 M8.9,8.9c1.4,0.4,2.1,1,2.1,2c0,1.2-0.9,2-2.5,2.2V8.8L8.9,8.9L8.9,8.9z"/>
</svg>
