<?xml version="1.0" encoding="utf-8"?>
<!-- Generator: Adobe Illustrator 24.0.1, SVG Export Plug-In . SVG Version: 6.00 Build 0)  -->
<svg width="460" version="1.1" id="Слой_1" xmlns="http://www.w3.org/2000/svg" xmlns:xlink="http://www.w3.org/1999/xlink" x="0px" y="0px"
	 viewBox="0 0 460 350" style="enable-background:new 0 0 460 350;" xml:space="preserve">
<style type="text/css">
	.st0{fill:#0A4F7A;stroke:#DDDDDD;stroke-width:0.75;stroke-miterlimit:10;}
	.st1{fill:#0A4F7A;stroke:#FFFFFF;stroke-width:0.5;stroke-miterlimit:10;}
	.st2{fill:#FFFFFF;stroke:#000000;stroke-width:0.75;stroke-miterlimit:10;}
</style>
<path class="st0" d="M22.8,4.7h15.6l-7.8,24h3.6l-2.6,7.9H0.5l2.6-7.9h3.6l4.4-13.4L22.8,4.7z M20.5,16.7l-3.9,11.9h4.2l5.6-17.2
	L20.5,16.7z M34.5,36.5l8.5-26l8.8-5.9h17l-8.5,26l-8.8,5.9C51.5,36.5,34.5,36.5,34.5,36.5z M47.2,27.8h4.2l4.9-15h-4.2L47.2,27.8z
	 M62.8,36.5L73.1,4.7h22.3l-2.6,7.9H80.4l-1,3.2L91.1,23l-4.4,13.5H62.8z M77,23l-1.8,5.5h4.2l1.1-3.4L77,23z M90.4,36.5l10.4-31.9
	h23.9l-5.5,17.1L102.7,29l-2.4,7.5H90.4z M105.6,19.9l4.9-2.1l1.7-5H108L105.6,19.9z M117.5,36.5l8.5-26l8.8-5.9h17l-8.5,26
	l-8.8,5.9H117.5z M130.2,27.8h4.2l4.9-15h-4.2L130.2,27.8z M176.1,4.7H200l-10.4,31.9h-9.9l7.8-24h-4.2l-7.8,24h-9.9L176.1,4.7
	L176.1,4.7z M194,36.5l8.5-26l8.8-5.9h17l-8.5,26l-8.8,5.9H194z M206.7,27.8h4.2l4.9-15h-4.2L206.7,27.8z M246.5,4.7h9.5l-4.3,13.2
	l5.3-3.4l3.2-9.8h9.7l-3.2,9.8l-7.8,5.5l4.2,5.8l-3.5,10.8h-9.7l3.5-10.7l-3-3.7l-4.7,14.4h-9.5l4.7-14.4l-5.3,3.7L232,36.5h-9.7
	l3.5-10.8l7.8-5.8l-4.2-5.5l3.2-9.8h9.7l-3.2,9.8l3.1,3.4L246.5,4.7L246.5,4.7z M263.7,36.5l6.9-21.3l12-10.6H298l-10.3,31.9h-9.9
	l4-12.3h-4.2l-4,12.3H263.7z M283.4,19l2.6-7.8l-6,5.5l-0.8,2.3H283.4L283.4,19z M308.1,16.7l-6.4,19.8h-9.9l6.9-21.3l12-10.6H326
	l-10.3,31.9h-9.9l8.2-25.3L308.1,16.7L308.1,16.7z M320,36.5l8.5-26l8.8-5.9h17l-8.5,26l-8.8,5.9H320z M332.7,27.8h4.2l4.9-15h-4.2
	L332.7,27.8z M348.2,36.5l10.3-31.9h24l-3.9,12.1l-6.2,3.2l4,3.5l-4.3,13.1H348.2z M360.7,28.4h4.3l1.8-5.7h-4.3
	C362.5,22.7,360.7,28.4,360.7,28.4z M370.2,12.4h-4.3l-1.6,5.1h4.3L370.2,12.4z M376.4,36.5l6.9-21.3l12-10.6h15.3l-10.3,31.9h-9.9
	l4-12.3h-4.2l-4,12.3H376.4z M396.1,19l2.6-7.8l-6,5.5l-0.8,2.3H396.1L396.1,19z M409.2,36.5l7.8-24h-6.5l2.6-7.9H436l-2.6,7.9h-6.5
	l-7.8,24H409.2z M428.7,36.5L439,4.7h9.9l-2.6,7.9l11.4,6.6L452,36.5H428.7L428.7,36.5z M443.6,20.7l-2.5,7.7h4.2l1.9-5.6
	L443.6,20.7z"/>
<path class="st1" d="M127.4,69.5l6.7-20.5h15.5l-2.5,7.8l-4,2.1l2.6,2.2l-2.8,8.5L127.4,69.5L127.4,69.5z M135.4,64.3h2.8l1.2-3.7
	h-2.8L135.4,64.3z M141.5,54h-2.8l-1,3.3h2.8L141.5,54z M158.5,69.5l6.7-20.5h12.2l-1.7,5.4h-5.8L165,69.6L158.5,69.5L158.5,69.5z
	 M171.8,69.5l5.5-16.8l5.7-3.8h11l-5.5,16.8l-5.7,3.8H171.8z M179.9,63.9h2.7l3.2-9.7h-2.7L179.9,63.9z M189.9,69.5l6.7-20.5H212
	l-3.6,11l-10.6,4.7l-1.6,4.8H189.9L189.9,69.5z M199.8,58.8l3.1-1.4l1.1-3.2h-2.7L199.8,58.8L199.8,58.8z M207.4,69.5l5.5-16.8
	l5.7-3.8h11L224,65.8l-5.7,3.8h-10.9L207.4,69.5z M215.6,63.9h2.7l3.2-9.7h-2.7L215.6,63.9z M238.6,49h10.1l-5,15.5h2.3l-1.7,5.1
	h-20.1l1.7-5.1h2.3l2.8-8.6L238.6,49L238.6,49z M237.1,56.8l-2.5,7.7h2.7l3.6-11.1C240.9,53.4,237.1,56.8,237.1,56.8z M258,61.7
	h-8.3v-5.2h8.3V61.7z M257.5,69.5l6.7-20.5h12.2l-1.7,5.4h-5.8L264,69.6L257.5,69.5L257.5,69.5z M284.7,69.5H271l6.7-20.5h13.7
	l-1.7,5.1h-7.2l-1.1,3.4h3.2l-1.1,3.4h-3.2l-1.1,3.3h7.2L284.7,69.5L284.7,69.5z M286.8,69.5l6.7-20.5h15.4l-3.6,11l-10.6,4.7
	l-1.6,4.8H286.8z M296.6,58.8l3.1-1.4l1.1-3.2h-2.7C298.1,54.2,296.6,58.8,296.6,58.8z M304.3,69.5l5.5-16.8l5.7-3.8h11L321,65.7
	l-5.7,3.8H304.3z M312.5,63.9h2.7l3.2-9.7h-2.7L312.5,63.9z M328.3,49h6.4l-3.4,10.4l5.3-5.2l1.7-5.2h6.4L338,69.5h-6.4l2.2-6.8
	l-6.9,6.8h-5.3L328.3,49L328.3,49z M335,48l-2.1-4.3h4l0.8,1.5l1.7-1.5h4l-4.9,4.3H335z"/>
<path class="st2" d="M4.1,238.7l18.9-58h43.7l-7.1,22l-11.3,5.8l7.4,6.3l-7.8,23.9H4.1z M26.9,223.9h7.8l3.4-10.4h-7.8
	C30.3,213.5,26.9,223.9,26.9,223.9z M44.1,194.7h-7.8l-3,9.3h7.8L44.1,194.7z M55.7,238.7l15.4-47.4l16-10.7h31L102.7,228l-16,10.7
	C86.7,238.7,55.7,238.7,55.7,238.7z M78.8,222.8h7.6l8.9-27.4h-7.6L78.8,222.8z M136.6,202.6l-11.7,36.1h-18l12.6-38.8l21.9-19.3
	h27.9l-18.9,58.1h-18l15-46.1L136.6,202.6z M158.3,238.7l18.9-58.1h34.4l-4.9,15.2h-16.4l-13.9,42.9L158.3,238.7L158.3,238.7z
	 M195.7,238.7l15.4-47.4l16-10.7h31L242.7,228l-16,10.7H195.7z M218.8,222.8h7.6l8.9-27.4h-7.6L218.8,222.8z M247.1,238.7l18.9-58.1
	h34.4l-4.9,15.2h-16.4l-13.9,42.9L247.1,238.7L247.1,238.7z M285.5,238.7l18.9-58.1h43.5l-10.1,31.1L307.9,225l-4.4,13.7
	L285.5,238.7L285.5,238.7z M313.3,208.4l8.9-3.8l3-9.1h-7.6L313.3,208.4L313.3,208.4z M334.1,238.7l12.6-38.8l21.9-19.3h27.9
	l-18.9,58.1h-18l7.3-22.5h-7.6l-7.3,22.5L334.1,238.7L334.1,238.7z M370,206.8l4.7-14.2l-10.9,10l-1.4,4.2H370L370,206.8z
	 M422.9,180.7h28.5l-14.2,43.7h6.6l-4.7,14.4h-56.8l4.7-14.4h6.6l8-24.4L422.9,180.7z M418.6,202.7l-7,21.7h7.6l10.2-31.4
	L418.6,202.7L418.6,202.7z M12.7,302.8l-2.2,2.2l-4.7-4.7l4.7-4.7l2.2,2.2l-2.4,2.5C10.3,300.3,12.7,302.8,12.7,302.8z M18.3,302.8
	l-2.2,2.2l-4.7-4.7l4.7-4.7l2.2,2.2l-2.5,2.5L18.3,302.8z M36.6,301.5l2,2.4c-2,1.8-4.1,2.8-6.3,3.1c-0.6,0.1-1.6,0.2-3.3,0.2h-3.2
	c-1.2,0-2.3-0.4-3.2-1.1c-0.7-0.5-1.2-1-1.6-1.8c-0.4-0.7-0.7-1.3-0.8-1.8c-0.1-0.4-0.2-0.9-0.2-1.3l3.1-0.3c0.1,1.1,0.5,2,1.3,2.5
	c0.6,0.5,1.4,0.6,2.3,0.4s1.7-0.6,2.2-1.2s0.7-1.2,0.8-2c0.1-0.8-0.1-1.5-0.4-2.2c-0.1-0.2-0.3-0.5-0.5-0.7s-0.4-0.4-0.6-0.5
	s-0.4-0.3-0.6-0.4s-0.4-0.2-0.6-0.2c-0.2-0.1-0.3-0.1-0.5-0.1s-0.3-0.1-0.4-0.1h-0.2l-0.1-3.1c0.5-0.1,0.9-0.3,1.2-0.6
	c0.3-0.3,0.5-0.6,0.4-1c0-0.1,0-0.3-0.1-0.4s-0.1-0.3-0.2-0.4s-0.2-0.2-0.4-0.2c-0.2-0.1-0.5-0.1-0.8,0s-0.5,0.3-0.7,0.6l-2.6-1.7
	c0.5-0.9,1.3-1.5,2.3-1.8c1-0.4,1.9-0.4,2.9,0c0.8,0.3,1.5,0.8,2,1.5s0.8,1.5,0.8,2.4c0,1-0.3,2-1,2.9c1,0.7,1.8,1.5,2.3,2.5
	c0.6,1.1,0.8,2.2,0.8,3.4c0,1.2-0.3,2.3-0.9,3.3C33.6,303.6,35.1,302.8,36.6,301.5L36.6,301.5z"/>
<path class="st2" d="M52.2,301.5l2,2.4c-2.6,2.2-4.8,3.3-6.7,3.3c-0.8,0-1.5-0.2-2-0.7c-0.2-0.2-0.4-0.4-0.6-0.7
	c-1.1,0.9-2.3,1.3-3.6,1.3h-0.5c-0.7-0.1-1.3-0.3-2-0.6c-0.6-0.4-1.1-0.7-1.3-1c-0.3-0.3-0.5-0.6-0.7-0.9c-0.6-0.8-0.9-1.6-1-2.6
	s-0.1-1.9,0.1-2.8c0.2-0.9,0.5-1.6,1-2.3c1-1.6,2.5-2.7,4.6-3.2c2.1-0.6,4.2-0.5,6.4,0.3l-1,2.9c-1.5-0.5-2.9-0.6-4.3-0.3
	s-2.4,0.9-3,1.9c-0.2,0.4-0.4,0.8-0.5,1.2c-0.1,0.5-0.2,1-0.1,1.5c0,0.6,0.2,1.1,0.5,1.5c0.5,0.7,1.1,1.1,1.8,1.1
	c0.6,0,1.2-0.2,1.9-0.7c0.6-0.5,1.1-1.2,1.5-2.1l0.1-3.2l3.1,0.1l-0.2,5.4v0.4c0.2,0,0.5-0.1,0.9-0.2s0.9-0.4,1.6-0.8
	C50.8,302.7,51.5,302.1,52.2,301.5L52.2,301.5z M66.8,301.8l0.1-12.1H70v12.1c0,0.2,0,0.5-0.1,0.8c0,0.3-0.1,0.7-0.2,1.1
	c-0.1,0.5-0.3,0.9-0.7,1.4c-0.3,0.5-0.7,0.9-1.2,1.2c-0.8,0.6-1.7,0.9-2.6,0.9c-0.4,0-0.8-0.1-1.2-0.2c-0.6-0.2-1.2-0.7-1.7-1.3
	c-1-1.3-1.4-2.8-1.5-4.6l3.1-0.1c0,1.1,0.3,2.1,0.8,2.8c0.1,0.2,0.3,0.3,0.3,0.3c0.2,0.1,0.5,0,1-0.3
	C66.6,303.4,66.8,302.7,66.8,301.8L66.8,301.8z M85.1,301.5l2,2.4c-2,1.8-4.1,2.8-6.3,3.1c-0.5,0.1-1.6,0.1-3.3,0.2
	c-0.9,0-1.8,0.1-2.7,0.1h-0.5c-1.6,0-3-0.5-4.2-1.5l1.9-2.5c0.7,0.5,1.5,0.8,2.4,0.9h0.3c1.2-0.1,2.2-0.5,2.9-1.4
	c0.5-0.6,0.8-1.3,0.9-2.1c0.1-0.8,0-1.5-0.2-2c-0.4-1-1.2-1.8-2.3-2.3s-2.4-0.7-3.6-0.4l-0.8-3c0.8-0.3,1.5-0.7,2-1.3
	c0.5-0.6,0.8-1.2,0.7-1.9c0-0.7-0.5-1.4-1.3-2c-0.2-0.1-0.4-0.2-0.5-0.3c-0.9-0.5-2-0.6-3.3-0.3c-1.3,0.3-2.5,1-3.6,2l-1.9-2.1v-0.4
	c1-0.8,2-1.5,3.2-2s2.5-0.8,3.7-0.8c1.3,0,2.4,0.3,3.4,0.8l0.9,0.6c0.3,0.2,0.6,0.5,1.1,0.9c0.4,0.4,0.8,0.9,1,1.5
	c0.3,0.6,0.4,1.3,0.5,1.9c0.1,1.2-0.3,2.4-1.1,3.6c1.1,0.4,2.1,0.9,3,1.7c0.9,0.8,1.5,1.6,1.9,2.7c0.4,0.8,0.6,1.8,0.5,3.1
	c-0.1,1.2-0.4,2.3-0.9,3.3C82.2,303.5,83.7,302.8,85.1,301.5L85.1,301.5z"/>
<path class="st2" d="M102,301.5l2,2.4c-2,1.8-4.1,2.8-6.3,3.1c-0.6,0.1-1.6,0.1-3.3,0.2c-0.9,0-1.8,0.1-2.7,0.1h-0.5
	c-1.2,0-2.4-0.3-3.5-0.9s-1.9-1.4-2.5-2.5s-0.9-2.2-0.9-3.5c0-1.9,0.7-3.5,2-4.9c1.3-1.3,3-2,4.9-2s3.5,0.7,4.9,2c1.3,1.3,2,3,2,4.9
	c0,1.3-0.3,2.5-1,3.6h0.1C98.9,303.6,100.5,302.9,102,301.5L102,301.5z M94,302.9c0.7-0.7,1.1-1.6,1.1-2.6s-0.4-1.9-1.1-2.7
	c-0.7-0.7-1.6-1.1-2.7-1.1c-1,0-1.9,0.4-2.7,1.1c-0.7,0.7-1.1,1.6-1.1,2.7s0.4,1.9,1.1,2.7c0.7,0.7,1.6,1.1,2.7,1.1
	C92.5,304,93.3,303.7,94,302.9z"/>
<path class="st2" d="M119.2,301.5l2,2.4c-2.6,2.2-4.8,3.3-6.7,3.3c-0.8,0-1.5-0.2-2-0.7c-0.8-0.6-1.2-1.6-1.1-3v-1
	c0,0-0.1,0.1-0.1,0.2c-2.3,3-4.4,4.5-6.2,4.5c-0.4,0-0.8-0.1-1.2-0.2c-0.5-0.2-0.8-0.5-1.2-0.9s-0.6-0.8-0.7-1.2
	c-0.2-0.4-0.3-0.9-0.4-1.4s-0.1-1-0.2-1.3v-1.1l3.1,0.1c0,0.5,0,1,0.1,1.4c0.1,0.5,0.2,0.8,0.2,1.1c0.1,0.3,0.2,0.4,0.3,0.5
	c0.2,0,0.6-0.2,1.1-0.6c0.8-0.6,1.6-1.5,2.5-2.7c1.6-2,2.5-4.5,2.8-7.4h3.2l-0.3,10.2v0.5c0.4,0,1-0.2,1.8-0.6
	S118.1,302.4,119.2,301.5L119.2,301.5z"/>
<path class="st2" d="M125,306.8c-1,0.2-1.8,0.4-2.4,0.4c-1,0-1.9-0.3-2.5-0.8c-0.4-0.3-0.7-0.8-1-1.3s-0.4-0.9-0.4-1.2
	c0-0.3-0.1-0.5-0.1-0.8c0-0.5,0-1,0.2-1.4c0.1-0.5,0.4-0.9,0.7-1.3c0.3-0.4,0.6-0.7,0.8-1l0.9-0.9c0.8-0.8,1.2-1.3,1.2-1.4
	s-0.1-0.1-0.1-0.2s-0.1-0.1-0.2-0.2s-0.1-0.1-0.2-0.1c-0.2-0.1-0.5,0.1-0.9,0.5l-2.5-1.9c0.5-0.7,1.1-1.2,1.9-1.5
	c0.7-0.3,1.5-0.4,2.2-0.2c0.5,0.1,0.9,0.3,1.3,0.6s0.8,0.7,1,1.1c0.3,0.4,0.4,0.9,0.5,1.4s0.1,0.9,0,1.3s-0.3,0.8-0.5,1.2
	s-0.5,0.7-0.7,0.9l-0.9,0.9c-0.6,0.5-1,1-1.2,1.3s-0.3,0.7-0.3,1c0,0.4,0.1,0.7,0.3,0.9c0.3,0.2,1,0.2,2.2-0.2
	c1.4-0.4,2.8-1.1,4-2.3l2.1,2.3C128.8,305.3,127,306.3,125,306.8L125,306.8z"/>
<path class="st2" d="M145.2,301.5l2,2.4c-2,1.8-4.1,2.8-6.3,3.1c-0.6,0.1-1.6,0.1-3.3,0.2c-0.9,0-1.8,0.1-2.7,0.1h-0.5
	c-1.2,0-2.4-0.3-3.5-0.9s-1.9-1.4-2.5-2.5c-0.6-1.1-0.9-2.2-0.9-3.5c0-1.9,0.7-3.5,2-4.9c1.3-1.3,3-2,4.9-2s3.5,0.7,4.9,2
	c1.3,1.3,2,3,2,4.9c0,1.3-0.3,2.5-1,3.6h0.1C142.1,303.6,143.7,302.9,145.2,301.5L145.2,301.5z M137.2,302.9
	c0.7-0.7,1.1-1.6,1.1-2.6s-0.4-1.9-1.1-2.7c-0.7-0.7-1.6-1.1-2.7-1.1c-1,0-1.9,0.4-2.7,1.1c-0.7,0.7-1.1,1.6-1.1,2.7
	s0.4,1.9,1.1,2.7c0.7,0.7,1.6,1.1,2.7,1.1C135.6,304,136.5,303.7,137.2,302.9z"/>
<path class="st2" d="M161.2,301.5l2,2.4c-2.6,2.2-4.8,3.3-6.7,3.3c-0.8,0-1.5-0.2-2-0.7c-0.8-0.6-1.1-1.6-1.1-3v-0.8
	c0,0,0,0.1-0.1,0.1c-0.2,0.3-0.5,0.6-0.8,0.9c-0.3,0.4-0.8,0.8-1.4,1.4c-0.6,0.6-1.3,1.1-2,1.5s-1.4,0.6-2,0.6
	c-0.5,0-0.9-0.1-1.2-0.3c-1-0.5-1.4-1.6-1.4-3.1l0.3-10.3h3.1l-0.3,10.4c1.1-0.6,2.1-1.6,3.2-3c1.6-2,2.5-4.4,2.8-7.3v-0.1h3.1v0.3
	l-0.2,9.9v0.5c0.4,0,1-0.2,1.8-0.6S160.2,302.4,161.2,301.5L161.2,301.5z M155.3,289.1l0.4,0.4c-1.2,1.2-2.7,1.9-4.4,2.2
	c-0.4,0.1-0.8,0.1-1.1,0.1c-1.4,0-2.7-0.4-4-1.1l0.9-1.6l0.6-1.1c1,0.6,2,0.8,3.2,0.6c1-0.1,1.9-0.6,2.7-1.3L155.3,289.1
	L155.3,289.1z M186.3,301.5l2.1,2.4c-1.1,1-2.2,1.8-3.3,2.4c-0.7,0.5-1.7,1-2.8,1.5c-0.3,0.2-0.6,0.3-0.9,0.5
	c-0.3,2.1-0.7,3.9-1.2,5.5c-0.6,1.6-1.2,2.8-1.9,3.6c-0.5,0.6-1.1,1.1-1.7,1.5c-1.1,0.8-2.3,1.4-3.7,1.8c-0.1,0-0.3,0.1-0.4,0.1
	c-0.4,0-0.7-0.1-0.9-0.3c-0.4-0.3-0.6-0.7-0.6-1.2c0-1.3,0.1-2.6,0.5-3.8c1-3.4,3.3-6.3,7.1-8.9v-0.2c-1,0.6-2,0.9-3,0.9h-0.5
	c-0.7-0.1-1.3-0.3-2-0.6c-0.6-0.4-1.1-0.7-1.3-1c-0.3-0.3-0.5-0.6-0.7-0.8c-0.6-0.8-0.9-1.7-1-2.7s-0.1-1.9,0.1-2.8
	c0.2-0.9,0.5-1.6,1-2.3c1-1.6,2.5-2.7,4.6-3.2s4.2-0.4,6.4,0.3l-1,3c-1.5-0.5-2.9-0.6-4.3-0.3s-2.4,1-3,1.9
	c-0.2,0.3-0.4,0.7-0.5,1.2s-0.2,1-0.1,1.6c0,0.6,0.2,1.1,0.5,1.5c0.5,0.7,1.1,1.1,1.8,1.1c0.6,0.1,1.2-0.2,1.9-0.7
	c0.6-0.5,1.1-1.2,1.4-2.1v-2.9h3.1l-0.1,6.2c0.7-0.4,1.3-0.7,1.7-1C184.3,303.1,185.3,302.3,186.3,301.5L186.3,301.5z M175.9,315.2
	c0.7-0.7,1.3-2.1,1.8-4.2c-1.7,1.6-2.8,3.3-3.3,5.1c0,0.2-0.1,0.3-0.1,0.4c0.1-0.1,0.3-0.2,0.4-0.3
	C175.1,316,175.5,315.6,175.9,315.2L175.9,315.2z"/>
<path class="st2" d="M203.3,301.5l2,2.4c-2.6,2.2-4.8,3.3-6.7,3.3c-0.8,0-1.5-0.2-2-0.7c-0.8-0.6-1.2-1.6-1.1-3v-1
	c0,0-0.1,0.1-0.1,0.2c-2.3,3-4.4,4.5-6.2,4.5c-0.4,0-0.8-0.1-1.2-0.2c-0.5-0.2-0.8-0.5-1.2-0.9s-0.6-0.8-0.7-1.2
	c-0.2-0.4-0.3-0.9-0.4-1.4c-0.1-0.5-0.1-1-0.2-1.3v-1.1l3.1,0.1c0,0.5,0,1,0.1,1.4c0.1,0.5,0.2,0.8,0.2,1.1c0.1,0.3,0.2,0.4,0.3,0.5
	c0.2,0,0.6-0.2,1.1-0.6c0.8-0.6,1.6-1.5,2.5-2.7c1.6-2,2.5-4.5,2.8-7.4h3.2l-0.3,10.2v0.5c0.4,0,1-0.2,1.8-0.6
	S202.3,302.4,203.3,301.5L203.3,301.5z"/>
<path class="st2" d="M219.9,301.4l2,2.4c-2.6,2.2-4.8,3.3-6.7,3.3c-0.8,0-1.5-0.2-2-0.7c-0.5-0.4-0.9-1-1-1.7
	c-0.7,0.7-1.5,1.3-2.4,1.7c-0.9,0.5-1.8,0.7-2.7,0.7c-0.8,0-1.6-0.2-2.2-0.6c-0.8-0.5-1.5-1.3-1.9-2.4s-0.5-2.3-0.4-3.6l3.1,0.4
	c-0.1,0.6,0,1.2,0.1,1.8c0.2,0.6,0.4,0.9,0.7,1.1c0.4,0.2,0.9,0.2,1.6-0.1c0.7-0.3,1.3-0.7,1.9-1.3c-0.3-0.1-0.7-0.2-1-0.3
	c-1-0.5-1.7-1.3-2-2.3c-0.4-1-0.5-2-0.2-2.9c0.4-1.4,1.3-2.4,2.8-3.1s3.2-0.8,5-0.4l-0.7,3c-1-0.2-1.9-0.2-2.7,0.1
	c-0.8,0.3-1.3,0.7-1.4,1.1v0.4c0,0.2,0,0.3,0.1,0.5c0,0.2,0.1,0.3,0.2,0.5c0.1,0.1,0.3,0.3,0.4,0.3c0.5,0.2,1,0.2,1.5-0.2v-1h3.1
	v5.9c0.4,0,1-0.2,1.8-0.6C217.9,303,218.9,302.3,219.9,301.4L219.9,301.4z M244.1,301.5l2,2.4c-2.6,2.2-4.8,3.3-6.7,3.3
	c-0.8,0-1.5-0.2-2-0.7c-0.8-0.6-1.2-1.6-1.1-3v-0.8c-0.6,0.2-1.2,0.4-1.8,0.5c-0.4,0.1-0.8,0.1-1.2,0.1c-0.6,0-1.1-0.1-1.7-0.2
	l-0.1,4.1h-3.1l0.2-13.8h3.1l-0.1,6.4c0.8,0.2,1.5,0.3,2.3,0.2c0.9-0.1,1.7-0.5,2.4-1l0.2-5.6h3.1l-0.3,10.2v0.5
	c0.4,0,1-0.2,1.8-0.6S243.1,302.4,244.1,301.5L244.1,301.5z"/>
<path class="st2" d="M259.9,301.5l2,2.4c-2.6,2.2-4.8,3.3-6.7,3.3c-0.8,0-1.5-0.2-2-0.7c-0.2-0.2-0.4-0.4-0.6-0.7
	c-1.1,0.9-2.3,1.3-3.6,1.3h-0.5c-0.7-0.1-1.3-0.3-2-0.6c-0.6-0.4-1.1-0.7-1.3-1c-0.3-0.3-0.5-0.6-0.7-0.9c-0.6-0.8-0.9-1.6-1-2.6
	s-0.1-1.9,0.1-2.8c0.2-0.9,0.5-1.6,1-2.3c1-1.6,2.5-2.7,4.6-3.2c2.1-0.6,4.2-0.5,6.4,0.3l-1,2.9c-1.5-0.5-2.9-0.6-4.3-0.3
	s-2.4,0.9-3,1.9c-0.2,0.4-0.4,0.8-0.5,1.2c-0.1,0.5-0.2,1-0.1,1.5c0,0.6,0.2,1.1,0.5,1.5c0.5,0.7,1.1,1.1,1.8,1.1
	c0.6,0,1.2-0.2,1.9-0.7c0.6-0.5,1.1-1.2,1.5-2.1l0.1-3.2l3.1,0.1l-0.2,5.4v0.4c0.2,0,0.5-0.1,0.9-0.2s0.9-0.4,1.6-0.8
	C258.5,302.7,259.2,302.1,259.9,301.5L259.9,301.5z"/>
<path class="st2" d="M269.5,306.9c-1,0.2-1.8,0.3-2.5,0.3c-0.9,0-1.7-0.1-2.5-0.4c-1.4-0.4-2.6-1.1-3.4-2c-0.1-0.1-0.1-0.2-0.2-0.3
	c-0.1-0.1-0.2-0.3-0.4-0.5s-0.3-0.5-0.5-0.8c-0.1-0.3-0.3-0.6-0.4-0.9s-0.3-0.7-0.3-1.1c-0.1-0.4-0.1-0.8-0.1-1.3s0.1-0.9,0.2-1.4
	c0.4-1.6,1.4-2.9,2.9-4c1.5-1,3-1.4,4.7-1.2c1.3,0.2,2.4,0.8,3.5,1.8l-2.2,2.2c-0.6-0.5-1.1-0.8-1.8-0.9c-0.8-0.1-1.7,0.1-2.5,0.7
	s-1.3,1.3-1.5,2.1c-0.1,0.5-0.1,1.1,0.1,1.7s0.3,1,0.5,1.2s0.3,0.4,0.4,0.5c0.5,0.5,1.1,0.8,2,1.1c1,0.3,2.1,0.3,3.5,0
	c1.7-0.4,3.2-1.1,4.7-2.4l2,2.4C273.7,305.4,271.7,306.4,269.5,306.9L269.5,306.9z M298.6,301.5l2,2.4c-2,1.8-4.1,2.8-6.3,3.1
	c-0.6,0.1-1.6,0.2-3.3,0.2h-3.2c-1.2,0-2.3-0.4-3.2-1.1c-0.7-0.5-1.2-1-1.6-1.8s-0.7-1.3-0.8-1.8c-0.1-0.4-0.2-0.9-0.2-1.3l3.1-0.3
	c0.1,1.1,0.5,2,1.3,2.5c0.6,0.5,1.4,0.6,2.3,0.4s1.7-0.6,2.2-1.2s0.7-1.2,0.8-2s-0.1-1.5-0.4-2.2c-0.1-0.2-0.3-0.5-0.5-0.7
	s-0.4-0.4-0.6-0.5s-0.4-0.3-0.6-0.4s-0.4-0.2-0.6-0.2c-0.2-0.1-0.3-0.1-0.5-0.1s-0.3-0.1-0.4-0.1h-0.2l-0.1-3.1
	c0.5-0.1,0.9-0.3,1.2-0.6c0.3-0.3,0.5-0.6,0.4-1c0-0.1,0-0.3-0.1-0.4s-0.1-0.3-0.2-0.4s-0.2-0.2-0.4-0.2c-0.2-0.1-0.5-0.1-0.8,0
	s-0.5,0.3-0.7,0.6l-2.6-1.7c0.5-0.9,1.3-1.5,2.3-1.8c1-0.4,1.9-0.4,2.9,0c0.8,0.3,1.5,0.8,2,1.5s0.8,1.5,0.8,2.4c0,1-0.3,2-1,2.9
	c1,0.7,1.8,1.5,2.3,2.5c0.6,1.1,0.8,2.2,0.8,3.4c0,1.2-0.3,2.3-0.9,3.3C295.6,303.6,297.1,302.8,298.6,301.5L298.6,301.5z"/>
<path class="st2" d="M311,306.1c-1.7,0.7-3.3,1.1-4.8,1.1h-0.4c-1.9-0.1-3.5-0.5-4.7-1.4c-1-0.7-1.8-1.5-2.3-2.4c-0.6-1-0.9-2-1-3
	s0.1-2,0.5-2.9c0.4-1,1-1.8,1.7-2.4c1-0.8,2-1.3,3.2-1.5c1.6-0.2,2.9,0.2,3.9,1c0.7,0.6,1.2,1.5,1.4,2.5c0.2,1,0.1,2-0.5,3.1
	c-0.6,1-1.4,1.6-2.4,2s-2.1,0.3-3.1-0.1l1.1-2.9c0.3,0.1,0.6,0.1,0.9,0s0.5-0.3,0.7-0.6c0.1-0.3,0.2-0.6,0.1-0.9s-0.2-0.5-0.4-0.7
	c-0.3-0.2-0.8-0.3-1.4-0.2c-0.5,0.1-1,0.3-1.5,0.7c-0.8,0.8-1.2,1.7-1.2,2.9c0.1,1.2,0.7,2.2,2,3c0.7,0.5,1.7,0.8,3,0.8
	c1.2,0,2.4-0.2,3.8-0.8c1-0.4,1.9-1,2.7-1.7l2.1,2.4C313.4,304.8,312.3,305.5,311,306.1L311,306.1z"/>
<path class="st2" d="M331.1,304.1c0.4,0,1-0.2,1.8-0.6s1.8-1.1,2.9-2l2,2.4c-2.6,2.2-4.8,3.3-6.7,3.3c-0.8,0-1.5-0.2-2-0.7
	c-0.8-0.6-1.2-1.6-1.1-3V303c-1,1.5-2.2,2.9-3.6,4.2h-3.2v-0.5c0-1.3,0.1-3.2,0.2-5.8c-0.3,0.6-0.7,1.2-1.1,1.7
	c-0.4,0.6-0.8,1.1-1.1,1.5c-0.3,0.4-0.7,0.8-1.1,1.4c-0.5,0.5-1,1-1.5,1.2c-0.5,0.3-1,0.4-1.5,0.4c-0.2,0-0.5,0-0.8-0.1
	c-0.5-0.1-0.9-0.4-1.3-0.9c-0.4-0.4-0.6-1-0.8-1.6c-0.2-0.6-0.3-1.2-0.4-1.8c-0.1-0.6-0.1-1.2-0.1-1.9h3.1c0,1.3,0.1,2.4,0.4,3
	c0.5-0.4,1.4-1.4,2.4-3c1.5-2.2,2.7-4.7,3.7-7.5h3.3c-0.1,2-0.2,5.1-0.3,9.1c0.8-1.1,1.5-2.2,2.1-3.4c0.8-1.8,1.4-3.7,1.6-5.7h3.1
	l-0.2,10.2C331.1,303.8,331.1,303.9,331.1,304.1L331.1,304.1z"/>
<path class="st2" d="M352.8,301.5l2,2.4c-2.6,2.2-4.8,3.3-6.7,3.3c-0.8,0-1.5-0.2-2-0.7c-0.8-0.6-1.2-1.6-1.1-3v-1
	c0,0-0.1,0.1-0.1,0.2c-2.3,3-4.4,4.5-6.2,4.5c-0.4,0-0.8-0.1-1.2-0.2c-0.5-0.2-0.8-0.5-1.2-0.9c-0.3-0.4-0.6-0.8-0.7-1.2
	c-0.2-0.4-0.3-0.9-0.4-1.4s-0.1-1-0.2-1.3v-1.1l3.1,0.1c0,0.5,0,1,0.1,1.4c0.1,0.5,0.2,0.8,0.2,1.1s0.2,0.4,0.3,0.5
	c0.2,0,0.6-0.2,1.1-0.6c0.8-0.6,1.6-1.5,2.5-2.7c1.6-2,2.5-4.5,2.8-7.4h3.2l-0.3,10.2v0.5c0.4,0,1-0.2,1.8-0.6
	S351.7,302.4,352.8,301.5L352.8,301.5z"/>
<path class="st2" d="M368.7,301.5l2,2.4c-2.6,2.2-4.8,3.3-6.7,3.3c-0.8,0-1.5-0.2-2-0.7c-0.8-0.6-1.1-1.6-1.1-3v-0.8
	c0,0,0,0.1-0.1,0.1c-0.2,0.3-0.5,0.6-0.8,0.9c-0.3,0.4-0.8,0.8-1.4,1.4s-1.3,1.1-2,1.5s-1.4,0.6-2,0.6c-0.5,0-0.9-0.1-1.2-0.3
	c-1-0.5-1.4-1.6-1.4-3.1l0.3-10.3h3.1l-0.3,10.4c1.1-0.6,2.1-1.6,3.2-3c1.6-2,2.5-4.4,2.8-7.3v-0.1h3.1v0.3l-0.2,9.9v0.5
	c0.2,0,0.5-0.1,0.9-0.2s0.9-0.4,1.6-0.8C367.3,302.7,368,302.1,368.7,301.5L368.7,301.5z M392.9,301.5l2,2.4
	c-2.6,2.2-4.8,3.3-6.7,3.3c-0.8,0-1.5-0.2-2-0.7c-0.8-0.6-1.2-1.6-1.1-3v-0.8c-0.6,0.2-1.2,0.4-1.8,0.5c-0.4,0.1-0.8,0.1-1.2,0.1
	c-0.6,0-1.1-0.1-1.7-0.2l-0.1,4.1h-3.1l0.2-13.8h3.1l-0.1,6.4c0.8,0.2,1.5,0.3,2.3,0.2c0.9-0.1,1.7-0.5,2.4-1l0.2-5.6h3.1l-0.3,10.2
	v0.5c0.4,0,1-0.2,1.8-0.6S391.9,302.4,392.9,301.5L392.9,301.5z"/>
<path class="st2" d="M405.4,306.1c-1.7,0.7-3.3,1.1-4.8,1.1h-0.4c-1.9-0.1-3.5-0.5-4.7-1.4c-1-0.7-1.8-1.5-2.3-2.4c-0.6-1-0.9-2-1-3
	s0.1-2,0.5-2.9c0.4-1,1-1.8,1.7-2.4c1-0.8,2-1.3,3.2-1.5c1.6-0.2,2.9,0.2,3.9,1c0.7,0.6,1.2,1.5,1.4,2.5c0.2,1,0.1,2-0.5,3.1
	c-0.6,1-1.4,1.6-2.4,2s-2.1,0.3-3.1-0.1l1.1-2.9c0.3,0.1,0.6,0.1,0.9,0s0.5-0.3,0.7-0.6c0.1-0.3,0.2-0.6,0.1-0.9s-0.2-0.5-0.4-0.7
	c-0.3-0.2-0.8-0.3-1.4-0.2c-0.5,0.1-1,0.3-1.5,0.7c-0.8,0.8-1.2,1.7-1.2,2.9c0.1,1.2,0.7,2.2,2,3c0.7,0.5,1.7,0.8,3,0.8
	c1.2,0,2.4-0.2,3.8-0.8c1-0.4,1.9-1,2.7-1.7l2.1,2.4C407.9,304.8,406.7,305.5,405.4,306.1L405.4,306.1z"/>
<path class="st2" d="M426.1,301.5l2.1,2.4c-2.6,2.2-4.8,3.3-6.7,3.3c-0.8,0-1.5-0.2-2-0.7c-0.8-0.6-1.2-1.6-1.1-2.9v-6.4
	c0-0.3-0.1-0.4-0.2-0.5h-0.3c-0.2,0-0.3,0.1-0.5,0.2l-0.6,0.3c-0.2,0.1-0.4,0.3-0.6,0.4c-0.3,0.3-0.5,0.7-0.7,1.1l-0.2,8.4h-3.1
	l0.2-10c0-0.2-0.1-0.4-0.2-0.5s-0.4,0-0.8,0.2s-0.8,0.4-1.1,0.7c-0.4,0.3-0.6,0.8-0.8,1.3l-0.2,8.3h-3.1l0.2-13.8h3.1v0.9
	c0.8-0.4,1.6-0.7,2.3-0.7c0.8,0,1.5,0.2,2.2,0.6c0.2,0.1,0.4,0.3,0.6,0.6c0.6-0.4,1.1-0.7,1.8-0.9c0.6-0.2,1.2-0.3,1.9-0.2
	c0.7,0.1,1.2,0.3,1.7,0.6c0.8,0.6,1.3,1.5,1.4,2.8v7.1c0.4,0,1-0.2,1.8-0.6C424.1,303.1,425,302.4,426.1,301.5L426.1,301.5z
	 M430.4,304.5c0.3-0.3,0.7-0.5,1.1-0.5s0.8,0.2,1.1,0.5c0.3,0.3,0.5,0.7,0.5,1.1s-0.2,0.8-0.5,1.1c-0.3,0.3-0.7,0.5-1.1,0.5
	s-0.8-0.2-1.1-0.5c-0.3-0.3-0.5-0.7-0.5-1.1S430.1,304.8,430.4,304.5z M430.4,283.7h3.1l-0.3,18.2l-3.1-0.1L430.4,283.7z
	 M446.6,300.3l-4.7,4.7l-2.2-2.2l2.5-2.5l-2.5-2.5l2.2-2.2L446.6,300.3z M452.2,300.3l-4.7,4.7l-2.2-2.2l2.5-2.5l-2.5-2.5l2.2-2.2
	L452.2,300.3z M163.6,339l0.1-12.1h3.1l-0.1,12.1c0,0.2,0,0.5-0.1,0.8c0,0.3-0.1,0.7-0.2,1.1c-0.1,0.5-0.3,0.9-0.7,1.4
	c-0.3,0.5-0.7,0.9-1.2,1.2c-0.8,0.6-1.7,0.9-2.6,0.9c-0.4,0-0.8-0.1-1.2-0.2c-0.6-0.2-1.2-0.7-1.7-1.3c-1-1.3-1.4-2.8-1.5-4.6
	l3.1-0.1c0,1.1,0.3,2.1,0.8,2.8c0.1,0.2,0.3,0.3,0.3,0.3c0.2,0.1,0.5,0,1-0.3C163.4,340.6,163.6,339.9,163.6,339L163.6,339z
	 M181.9,338.7l2,2.4c-2,1.8-4.1,2.8-6.3,3.1c-0.5,0.1-1.6,0.1-3.3,0.2c-0.9,0-1.8,0.1-2.7,0.1h-0.5c-1.6,0-3-0.5-4.2-1.5l1.9-2.5
	c0.7,0.5,1.5,0.8,2.4,0.9h0.3c1.2-0.1,2.2-0.5,2.9-1.4c0.5-0.6,0.8-1.3,0.9-2.1c0.1-0.8,0-1.5-0.2-2c-0.4-1-1.2-1.8-2.3-2.3
	s-2.4-0.7-3.6-0.4l-0.8-3c0.8-0.3,1.5-0.7,2-1.3c0.5-0.6,0.8-1.2,0.7-1.9c0-0.7-0.5-1.4-1.3-2c-0.2-0.1-0.4-0.2-0.5-0.3
	c-0.9-0.5-2-0.6-3.3-0.3c-1.3,0.3-2.5,1-3.6,2l-1.9-2.1v-0.4c1-0.8,2-1.5,3.2-2s2.5-0.8,3.7-0.8c1.3,0,2.4,0.3,3.4,0.8l0.9,0.6
	c0.3,0.2,0.6,0.5,1.1,0.9c0.4,0.4,0.8,0.9,1,1.5c0.3,0.6,0.4,1.3,0.5,1.9c0.1,1.2-0.3,2.4-1.1,3.6c1.1,0.4,2.1,0.9,3,1.7
	c0.9,0.8,1.5,1.6,1.9,2.7c0.4,0.8,0.6,1.8,0.5,3.1c-0.1,1.2-0.4,2.3-0.9,3.3C179,340.7,180.5,340,181.9,338.7L181.9,338.7z
	 M186.3,341.7c0.3-0.3,0.7-0.5,1.1-0.5s0.8,0.2,1.1,0.5s0.5,0.7,0.5,1.1s-0.2,0.8-0.5,1.1c-0.3,0.3-0.7,0.5-1.1,0.5
	s-0.8-0.2-1.1-0.5s-0.5-0.7-0.5-1.1S185.9,342,186.3,341.7z M218.3,338.7l2.1,2.4c-2,1.8-4.1,2.8-6.3,3.1c-0.5,0.1-1.6,0.1-3.3,0.2
	c-0.9,0-1.8,0.1-2.7,0.1h-0.5v-0.1c-1.9,0-3.6-0.6-5.1-1.8c-0.7-0.6-1.2-1.3-1.7-2.1s-0.7-1.5-0.8-2s-0.2-1-0.2-1.5l3.1-0.2
	c0.1,1.4,0.6,2.6,1.6,3.4c0.7,0.6,1.6,1,2.6,1.1s2-0.1,2.9-0.7c0.9-0.7,1.5-1.6,1.7-2.7s0.1-2.1-0.5-3c-0.4-0.6-0.9-1-1.5-1.3
	c-0.7-0.3-1.4-0.5-2.1-0.5c-0.3,0-0.5,0.1-0.7,0.1l-0.2-3.1h0.7c1-0.2,1.8-0.7,2.3-1.5c0.2-0.5,0.4-0.9,0.4-1.4s-0.1-1-0.4-1.6
	c-0.3-0.4-0.6-0.7-1.1-0.9c-0.4-0.2-0.9-0.3-1.4-0.3c-0.4,0-0.7,0.2-1.1,0.4c-0.4,0.2-0.6,0.4-0.7,0.5c-0.1,0.1-0.2,0.3-0.2,0.4
	l-2.7-1.6c0.1-0.2,0.3-0.4,0.4-0.6c0.2-0.2,0.4-0.5,0.8-0.8c0.4-0.3,0.8-0.6,1.4-0.9c0.5-0.2,1.1-0.4,1.8-0.5c1-0.1,2,0.1,3,0.6
	c0.9,0.5,1.7,1.1,2.3,2s0.9,1.9,0.9,3.1s-0.3,2.2-0.9,3.3c-0.2,0.4-0.5,0.7-0.8,1.1c1,0.6,1.7,1.3,2.3,2.2c0.8,1.2,1.1,2.6,1.1,4
	s-0.5,2.8-1.3,4C215.3,340.8,216.8,340,218.3,338.7L218.3,338.7z"/>
<path class="st2" d="M234.1,338.7l2,2.4c-2.6,2.2-4.8,3.3-6.7,3.3c-0.8,0-1.5-0.2-2-0.7c-0.2-0.2-0.4-0.4-0.6-0.7
	c-1.1,0.9-2.3,1.3-3.6,1.3h-0.5c-0.7-0.1-1.3-0.3-2-0.6c-0.6-0.4-1.1-0.7-1.3-1c-0.3-0.3-0.5-0.6-0.7-0.9c-0.6-0.8-0.9-1.6-1-2.6
	s-0.1-1.9,0.1-2.8c0.2-0.9,0.5-1.6,1-2.3c1-1.6,2.5-2.7,4.6-3.2c2.1-0.6,4.2-0.5,6.4,0.3l-1,2.9c-1.5-0.5-2.9-0.6-4.3-0.3
	s-2.4,0.9-3,1.9c-0.2,0.4-0.4,0.8-0.5,1.2c-0.1,0.5-0.2,1-0.1,1.5c0,0.6,0.2,1.1,0.5,1.5c0.5,0.7,1.1,1.1,1.8,1.1
	c0.6,0,1.2-0.2,1.9-0.7c0.6-0.5,1.1-1.2,1.5-2.1l0.1-3.2l3.1,0.1l-0.2,5.4v0.4c0.2,0,0.5-0.1,0.9-0.2s0.9-0.4,1.6-0.8
	C232.7,339.9,233.4,339.3,234.1,338.7L234.1,338.7z"/>
<path class="st2" d="M250,338.7l2,2.4c-2.6,2.2-4.8,3.3-6.7,3.3c-0.8,0-1.5-0.2-2-0.7c-0.8-0.6-1.1-1.6-1.1-3v-0.8
	c0,0,0,0.1-0.1,0.1c-0.2,0.3-0.5,0.6-0.8,0.9c-0.3,0.4-0.8,0.8-1.4,1.4s-1.3,1.1-2,1.5s-1.4,0.6-2,0.6c-0.5,0-0.9-0.1-1.2-0.3
	c-1-0.5-1.4-1.6-1.4-3.1l0.3-10.3h3.1l-0.3,10.4c1.1-0.6,2.1-1.6,3.2-3c1.6-2,2.5-4.4,2.8-7.3v-0.1h3.1v0.3l-0.2,9.9v0.5
	c0.4,0,1-0.2,1.8-0.6C248.1,340.3,249,339.6,250,338.7L250,338.7z M244.1,326.3l0.4,0.4c-1.2,1.2-2.7,1.9-4.4,2.2
	c-0.4,0.1-0.8,0.1-1.1,0.1c-1.4,0-2.7-0.4-4-1.1l0.9-1.6l0.6-1.1c1,0.6,2,0.8,3.2,0.6c1-0.1,1.9-0.6,2.7-1.3L244.1,326.3
	L244.1,326.3z"/>
<path class="st2" d="M267.6,338.7l2,2.4c-0.9,0.8-1.8,1.6-2.8,2.4c-1,0.9-1.7,1.5-2,1.8c-1.2,1.2-2.3,2.5-3.3,4l-2.7-1.6
	c0.7-1.5,1-2.8,0.7-3.8c0-0.1-0.1-0.4-0.2-0.6c-0.2-0.6-0.4-1.1-0.6-1.5c-0.2-0.7-0.3-1.3-0.4-2c-0.1,0.1-0.1,0.2-0.2,0.2
	c-0.2,0.3-0.5,0.6-0.8,1s-0.8,0.8-1.4,1.4s-1.3,1.1-2,1.5s-1.4,0.6-2,0.6c-0.5,0-0.9-0.1-1.2-0.3c-1-0.5-1.4-1.6-1.4-3.1l0.3-10.3
	h3.1l-0.3,10.4c1.1-0.6,2.1-1.6,3.2-3c1.6-2,2.5-4.5,2.8-7.4h3.1l-0.2,7.7c-0.1,0.9,0,1.7,0.3,2.5c0.1,0.4,0.2,0.8,0.4,1.2
	c0.2,0.4,0.3,0.6,0.3,0.9c0,0.1,0,0.1,0.1,0.2l0.1-0.1c0.3-0.3,1-1,2.1-1.9C265.7,340.3,266.6,339.5,267.6,338.7L267.6,338.7z"/>
<path class="st2" d="M280,343.3c-1.7,0.7-3.3,1.1-4.8,1.1h-0.4c-1.9-0.1-3.5-0.5-4.7-1.4c-1-0.7-1.8-1.5-2.3-2.4c-0.6-1-0.9-2-1-3
	s0.1-2,0.5-2.9c0.4-1,1-1.8,1.7-2.4c1-0.8,2-1.3,3.2-1.5c1.6-0.2,2.9,0.2,3.9,1c0.7,0.6,1.2,1.5,1.4,2.5c0.2,1,0.1,2-0.5,3.1
	c-0.6,1-1.4,1.6-2.4,2s-2.1,0.3-3.1-0.1l1.1-2.9c0.3,0.1,0.6,0.1,0.9,0s0.5-0.3,0.7-0.6c0.1-0.3,0.2-0.6,0.1-0.9s-0.2-0.5-0.4-0.7
	c-0.3-0.2-0.8-0.3-1.4-0.2c-0.5,0.1-1,0.3-1.5,0.7c-0.8,0.8-1.2,1.7-1.2,2.9c0.1,1.2,0.7,2.2,2,3c0.7,0.5,1.7,0.8,3,0.8
	c1.2,0,2.4-0.2,3.8-0.8c1-0.4,1.9-1,2.7-1.7l2.1,2.4C282.5,342,281.3,342.7,280,343.3L280,343.3z"/>
<path class="st2" d="M298.3,338.7l2.1,2.4c-2,1.8-4.1,2.8-6.3,3.1c-0.6,0.1-1.6,0.1-3.3,0.2c-0.9,0-1.8,0.1-2.7,0.1h-0.4
	c-1.9,0-3.5-0.7-4.9-2c-1.3-1.3-2-3-2-4.8c-0.1-2.5,0.2-4.8,1.1-7.1c0.2-0.5,0.4-0.9,0.5-1.3s0.4-0.8,0.7-1.5
	c0.3-0.6,0.8-1.3,1.3-1.9s1.1-1.2,1.7-1.8c1.6-1.4,3.5-2.4,5.7-3c0.4-0.1,0.8,0,1.2,0.2c0.4,0.2,0.6,0.6,0.7,1c0.4,2,0.4,4-0.2,5.9
	c-0.2,0.8-0.5,1.6-1,2.3c-0.4,0.7-0.8,1.4-1.3,1.9c-0.4,0.5-0.9,1-1.4,1.4s-0.9,0.8-1.3,1s-0.7,0.4-1,0.6l-1.5-2.7
	c0.3-0.2,0.7-0.4,1-0.7c0.3-0.3,0.7-0.6,1.2-1s0.9-1,1.3-1.6c0.4-0.7,0.7-1.3,0.9-2.1c0.2-0.8,0.4-1.7,0.3-2.6c-1,0.5-1.9,1-2.7,1.8
	c-0.7,0.6-1.2,1.2-1.8,1.9c-0.5,0.7-0.8,1.3-1,1.7c-0.2,0.4-0.4,0.9-0.6,1.5c-0.7,1.9-1,3.8-0.9,5.9c0,1,0.4,1.9,1.1,2.7
	s1.6,1.1,2.7,1.1h0.1c0.5,0,0.9-0.1,1.4-0.3c0.5-0.2,0.9-0.5,1.2-0.8c0.7-0.7,1.1-1.6,1.1-2.6v-0.1c0-0.5-0.1-1-0.3-1.5
	c-0.2-0.5-0.5-0.9-0.8-1.3l2.3-2.1c0.6,0.7,1.1,1.4,1.4,2.3c0.4,0.9,0.5,1.8,0.5,2.7c0,1.3-0.3,2.5-1,3.5h0.1
	C295.2,340.8,296.8,340.1,298.3,338.7L298.3,338.7z"/>
</svg>
