<?xml version="1.0" encoding="utf-8"?>
<!-- Generator: Adobe Illustrator 24.0.1, SVG Export Plug-In . SVG Version: 6.00 Build 0)  -->
<svg version="1.1" id="Слой_1" xmlns="http://www.w3.org/2000/svg" xmlns:xlink="http://www.w3.org/1999/xlink" x="0px" y="0px"
	 viewBox="0 0 165 180" style="enable-background:new 0 0 165 180;" xml:space="preserve">
<style type="text/css">
	.st0{opacity:0.59;fill:#81B3D3;enable-background:new    ;}
	.st1{fill:#FFFFFF;}
	.st2{fill:none;stroke:#5DA6D1;stroke-width:7;stroke-miterlimit:10;}
</style>
<path class="st0" d="M113,1.8H47.6L46,6.3c-4.3,11.9-16.4,16.3-26.2,16.6L16.1,23L3.2,35.8l0.1,2.9c1.5,30.4,7.4,55.9,18.2,78
	l0.1,0.1c5.6,10.9,12.2,20.6,20.2,29.6l0.1,0.1l0.1,0.1c10.8,11.5,23.5,20.8,37.8,27.7l2.9,1.5l2.9-1.5c9.5-4.6,18.1-10.2,26.2-16.8
	h0.1h0.1c4.8-4.2,9.6-8.8,14.8-14.6l0.1-0.1l0.1-0.1c3-3.8,6.1-7.9,9-12.2l0.1-0.1l0.1-0.1c6.2-10.1,11.2-20.6,15.3-32v-0.1v-0.1
	c3.8-11.9,6.4-23.3,8.1-35.2v-0.1c0.9-7.9,1.7-15.8,2.1-23.6l0.1-3l-12.5-12.4l-2.6-0.1c-6.4-0.2-11.1-1.4-15.9-3.9
	c-5.6-3.3-9.2-7.4-11.6-12.9l-2-4.7L113,1.8L113,1.8z"/>
<g transform="translate(0.000000,693.000000) scale(0.100000,-0.100000)">
	<path class="st1" d="M1229.1,6625.7c-19.6-1.2-38.3-10.4-50.2-24.4c-9.1-10.8-14.4-22.5-16.4-36.4c-0.4-2.6-0.7-4.7-0.9-4.7
		s-1.7-0.5-3.5-1.2c-1.8-0.5-5.8-2.1-8.8-3.4l-5.2-2.2l-3,3.4c-9.1,10.2-19.4,17.4-30.8,21.1c-27.4,9.2-58.9,0.5-83.6-23.2
		c-3.6-3.5-9.8-10.5-11.8-13.3l-0.7-1.1l-3.5,1.1c-10.6,3.1-16.8,4.1-27.5,4.1c-10.4,0-16.1-0.9-24.7-3.6
		c-17.3-5.7-29.5-15.8-37.4-31c-2-3.9-2-3.9-4.6-4.6c-19.9-5-36.7-15.5-47.2-29.4c-3.8-5.1-5.6-8-8-13.8
		c-5.7-13.2-6.1-26.5-1.5-40.2c2.9-8.5,7.7-16.4,14.7-23.9c1.6-1.7,2.6-3,2.1-2.8c-1.3,0.7,3.4-4.7,7.5-8.6c2.1-2.1,4.5-4.2,5.2-4.6
		c1.1-0.6,1.5-1.4,1.9-3.3c3.1-13.3,9.4-25.1,19.6-36.6c1.9-2.1,3.1-3.6,2.8-3.4c-0.4,0.2,0-0.3,0.7-1.3c0.9-1,2.6-2.9,3.9-4.5
		c1.4-1.6,4.5-4.6,6.8-6.6c16.3-14.1,35.8-22.6,58.8-25.7c6.9-1,22.7-0.9,30.1,0c22.9,3,42.7,12,58.5,26.6c6.3,5.9,7.2,6.2,14.7,4.7
		c25.4-4.9,52.3,2,69.7,17.9c4.3,3.9,8.3,8.9,11.8,14.8c1.5,2.6,3.4,5.1,4.1,5.7c0.7,0.5,4.2,2.6,7.7,4.4
		c11.2,5.9,19.7,12.8,26.4,21.7c4.9,6.5,6.4,7.4,11.3,6.8c1.6-0.1,5.3-0.5,8.4-0.9c6.8-0.6,15.6-0.3,24,1.1
		c8.1,1.3,8.6,1.2,15.2-4.3c21.5-18,50.7-27.1,81.1-25.1c39.8,2.7,73,21.7,87.2,50.1c1.9,3.9,3,6.9,5.7,15.9c1,3.2,2.9,5.2,8.9,9.5
		c8.1,5.8,15.6,14.3,19.7,22.6c7,14,6.9,30-0.3,44c-1.8,3.6-6.2,10.2-6.2,9.5c0-0.2-1.4,1.5-3,3.8c-5.4,7.7-15.4,16.2-24.8,21.1
		c-4.8,2.6-11.8,5.4-18.4,7.4c-3.5,1.2-6.7,2.2-7.2,2.7c-0.4,0.3-1.7,2-2.9,3.7c-5.8,8.1-19.3,18.4-30.7,23.2
		c-16.1,6.8-35.8,8.3-55.4,4.4c-3.3-0.6-6.2-1.2-6.6-1.2c-0.3,0-2.6,1.8-4.9,4.2c-5.4,5.2-10.6,9.4-16.1,13
		c-4.9,3.2-14.1,8-15.9,8.4c-0.6,0.1-3.3,1.1-5.8,2C1255.8,6624.5,1243.3,6626.7,1229.1,6625.7z"/>
</g>
<g transform="translate(0.000000,2400.000000) scale(0.100000,-0.100000)">
	<path class="st1" d="M1237.2,23103.8l-0.4-2.7l-7.8,1.4c-11.8,1.9-11.3,2.1-10.8-2.1c0.7-6,0-6.2-14.5-1.4
		c-6.7,2.5-14.5,4.8-17,5.5c-2.7,0.7-6,2.1-7.5,3.4c-2.5,1.6-4.6,2.5-12.1,3.4c-5,0.7-14.2,2.1-20.5,3.6c-12.4,2.5-13,2.5-20-1
		c-2.7-1.2-5.6-2.1-6.7-2.1c-1,0-8.4-2.5-16.4-5.5c-43.8-16.4-67.7-21.6-99.1-21.6c-15.2,0.2-26.4-1.4-30-4.2
		c-3.8-3-7.3-4.4-10.1-4.4c-1.4,0-6.7-1.4-11.6-3.4c-9.6-3.8-26.8-8.8-39.2-11.1c-6-1.4-24.9-3-36.9-3.2c-1.6,0-1.6,0-1.6-9.2v-9
		l3.6-0.4c8-1,14-5.8,21.8-17c4.4-6.2,5.3-7.5,8-8.2c8.4-2.7,20-11.8,26.4-21c3.6-5,8.2-14.7,9.9-20.6c1.2-3.6,3.8-8.2,9.2-16.2
		c8.8-13,15.9-27.1,15.2-29.7c-0.2-1-1.4-2.1-2.7-2.5c-1.2-0.7-2.5-1.4-2.5-2.1c-1-2.1,1.9-6,6.2-8.4c2.5-1.2,5.3-3.2,6.2-4.2
		c2.7-1.9,4.2-7.3,4.2-13.8c-0.2-5.6-1.6-8.4-5.3-9.4c-1-0.4-3-0.7-4.2-1.2c-3.2-1-3.2-3.8-0.2-7.3c1.4-1.4,3-4.2,3.6-5.5
		c1.2-2.7,1.2-3.2-0.4-5.6c-0.7-1.6-2.1-4.4-3.2-6c-1-2.5-3-4.2-6.2-6.5c-2.7-1.6-5.8-3.8-7-4.8c-1.9-1.6-3-1.6-15.9-1.9
		c-15.4-0.2-29.7,0.7-35.5,2.7c-3.6,1.4-8.2,4.2-23.4,13.6c-8.4,5.5-16.2,14.2-17.9,20.8c-0.4,2.1-2.7,6-6.2,10.6
		c-5.8,7.5-6.2,8.4-10.6,19.5c-4.6,11.1-12.8,17.6-24.9,20c-6.2,1.4-7.8,1.9-13.6,6c-9.9,7-20.3,17.8-24.6,25.8
		c-2.1,3.4-4.8,7.8-6,9.2l-2.5,2.7l0.4-3.6c0.2-1.9,1.9-8.2,3.6-13.8c3.4-11.3,3.8-18.6,1.6-24.6c-1.2-3.6-1.2-4.4-0.2-13.3
		c1.4-11.4,2.5-12.6,11.6-20.3c23.7-19.3,51.1-57.3,66.5-91.3c2.1-5,7-15.2,10.6-22.5c12.4-25.8,20-44.5,26.4-64.3
		c3.8-12.4,9.9-27.3,32.6-80.7c28.7-67.7,41.5-103.4,48.4-134.3c1.6-7.5,3.2-11.8,5.8-17c2.5-5,3.6-8.2,3.8-11.1
		c0.2-4.8,1.4-7,17.9-32.6c14.2-21.8,20.3-32.3,24.3-42c3-6.7,6.5-19.5,6.5-22.9c0-0.7,1.9-5.8,4.6-11.1c0.7-1.6,1.4-3.4,2.5-5
		c-22-15.9-44.5-31.2-67.5-46.1c-7-4.4-14.2-9-21.6-13.2c-3.2-2.1-6.5-4.2-9.6-6c-4.8-3-9.6-5.8-14.5-8.8c-7-4.2-14-8.2-21-12.1
		c-10.1-5.8-20.3-11.6-31-17.2c-12.8-6.7-25.6-13.6-39-20l-18.4-9.2l-18.4,9.2c-32.6,15.9-64.5,32.9-95.4,51.1
		c2.5,8.4,3.8,18.1,4.2,26.4l0.2,8.2l-7.5,2.7c-3.8,1.2-8.2,2.7-9.2,3.2l-2.1,0.7l1.6,4.8c2.1,5.3,2.7,8.8,5.3,25.4
		c1.6,12.1,1.9,12.4,5.6,17.4c1.9,2.5,2.7,4.4,2.7,6c0,9.2,4.2,30.2,7,35.8c1.4,2.7,1.4,3.2,0,25.6c-2.1,34.1-1.4,30.2-6.5,34.6
		c-3.4,3-4.6,4.6-5,7.3c-0.7,2.7-2.1,4.4-9.2,10.8c-9.4,9-12.4,13.3-14.7,23.7c-1.4,6.2-2.5,8.4-14.7,28.9
		c-31,51.7-47.3,85.1-59.7,120.7c-2.5,7.3-5.3,15.9-6,19.5c-1.2,3.6-2.1,7-2.7,7.5c-1.2,1.6-6.2,4.6-10.4,6.2
		c-3.4,1.2-3.6,1.6-6.7,9c-5.3,11.6-7.8,20.3-9,31.9c-0.7,5.6-1.6,11.3-1.6,12.6c-0.2,1.6-1.6,3.4-4.8,5.8
		c-8.4,7-11.3,12.4-12.6,23.9c-1,9.2,0.2,26.2,1.9,30c0.4,1.4,2.1,3.8,3.6,5.6l2.5,2.7l-3,8.4c-5,15.2-6.2,28-3.8,38.6
		c1.6,6.5,6.2,16.2,10.6,22c2.5,3.2,3.8,6.2,4.6,9.6c0.7,2.7,1.9,6.5,2.7,8.2c1,1.9,2.5,6.7,3.4,10.8c0.7,3.8,2.5,9.2,3.4,11.3
		c3.4,7.3,3.4,8,1.6,19.7c-1.9,16.4-2.1,17-10.1,33.3c-8.4,17.4-17.6,39.9-19.1,45.4c-0.7,3-0.7,6.2,0,13.8c0.4,5.3,1,13.6,1,18.1
		v8.4l-3.4,1.9c-1.6,1-7.5,4.6-13,8.2c-39.9,26.2-71.3,57-98.8,98c-4.8,7.3-8.4,11.6-12.6,15.4c-3.2,2.7-7,7.3-8.8,9.6
		c-1.9,3.2-4.4,5.8-8,8.4c-9.6,7-14.5,13.2-22,28.7c-2.7,5-7.5,14.5-10.8,20.8c-7.3,13-13,25.8-16.7,36c-2.5,6.5-2.7,7-5.3,8
		c-1.4,0.4-5.3,2.5-8.4,4.4c-3.2,1.9-6,3.6-6.5,3.6c-0.2,0-1.2-0.7-1.6-1.9c-1-1.9-0.7-2.1,1.9-5l3-3l-4.8-7.8
		c-2.7-4.2-4.8-7.5-5.3-7.5c-0.2,0-4.4,1.6-9,3.6c-9,3.4-10.4,4.4-17.6,10.8l-4.4,4.2l3.8,7.8l3.8,7.8h8.8l1.6,3.8l1.4,4.4l-2.5,1.6
		c-5,4.2-7.3,10.8-5.3,15.9c0.7,1.4,1.9,3.2,2.7,3.6c1.4,1,1.4,1,0,3.8c-1.4,3.2-1.2,6,1.2,9.4c1.2,1.9,1.4,2.7,0.7,3.6
		c-2.5,4.2-0.2,11.8,4.2,13.6c1.4,0.7,2.7,1.2,2.7,1.4c0,0-0.4,1.4-1.2,3.2c-1.2,3.2-1,5.3,1.2,7.8c1.4,1.4,1.2,1.6-15.4,14.5
		c-9.2,7-17,13.2-17,13.8c0,1.6,3.2,24.6,3.4,24.9c0.2,0,14.2-4.6,31.2-10.1c17.2-5.8,31.4-10.1,31.6-10.1
		c0.2,0.2,50.9,104.1,112.8,230.8l112.6,230.3l10.1,6.2c5.6,3.4,9.9,6,10.1,6c0,0-0.2-7.3-0.4-15.9l-0.4-15.7l-103.9-229.6
		c-89.7-198.2-103.9-230.3-103.9-233.3c0-3.4,0-3.6,7.5-10.8c4.2-3.8,14.2-13.8,22.7-22l15.2-14.9l-8.2-8.4c-4.6-4.6-8.8-8.2-9-8.2
		s-8.8,4.4-18.4,9.4c-9.9,5.3-18.1,9.4-18.1,9.4c-0.2,0,0.7-6,1.9-12.8l1.9-13l5.6-5.5c5.6-5.8,9-10.1,11.6-15.7
		c1-1.6,7.5-9.2,14.7-17c30.2-31.2,45.2-49.7,55.3-68.6c3-5.5,3.2-5.5,12.4-11.3c13.8-8.2,22.9-15.4,35.8-28
		c9.9-9.6,12.8-11.8,20-15.9c4.6-2.7,9.9-5.8,11.6-7c6.5-4.4,18.8-6.7,22.9-4.2c1.4,1,2.1,1,6.5-1c2.7-1,5.6-2.5,6.5-3.4
		c3.8-3.4,8.8-5.6,14.2-6.5c3.6-0.7,6.5-1.6,8-3.2c3-1.9,5-2.1,12.8-1.2l3.8,0.4l2.7,5.3c3.4,7,5,14.5,5,23.7v7.5l-2.1,0.4
		c-5.8,1-18.8,1.2-23.9,0.2c-7-1.2-8.8-0.4-10.8,4.8c-1.6,4.2-1.9,7.3-0.7,11.6c1.2,3.8-0.2,9.6-3,11.8l-1.9,1.4l1.2,3
		c1.4,3,1.4,3.2,0,6c-1,2.1-1.2,4.2-0.7,8c0.4,6.7,1.9,9.4,6.2,11.1c1.6,1,3.6,1.9,3.8,2.1c0,0.4-0.2,2.1-1,3.6
		c-1.6,4.2-1,5.8,4.4,10.4c2.5,2.1,4.6,4.6,4.6,5.3c0,1-1.2,1.6-3.8,2.1c-2.1,0.7-4.8,1.9-5.8,3c-1.9,1.4-1.9,1.9-1.2,4.4
		c0.4,1.4,3.2,5.5,6,9.4c5.3,7,9.9,10.8,17.2,13.6c3.2,1.2,6,3.4,11.8,9c8.4,8,13.6,11.6,20.8,14.2c8.4,3,15.9,2.7,31.2-0.4
		c4.8-1,7-1.2,13-0.4c13.3,1.4,23.4-1.2,29.7-7.3l3-3.2l-3-0.4c-3.2-1-3.6-1.6-1.4-3c2.1-1.2,2.1-1,4.2,1c1,1.2,1.6,1.4,2.5,0.7
		c1.2-1.4,1.6-8.2,0.4-12.1c-0.7-3.2-0.7-3.6,0-4.4c1.6-1-0.2-4.6-3-5.5c-1.6-0.4-2.5-1.4-2.5-2.7c0-2.5,1.4-5.5,3.4-7.5
		c3.8-3.6,4.4-11.3,1.2-21.6c-3.2-10.1-4.6-19.1-3.8-22.7c1-4.6-0.2-10.4-4.8-21.2c-1.6-4.6-3.6-9.9-4.4-12.1
		c-0.4-1.9-1.6-5.3-2.7-7.3c-1.6-3.2-2.7-4.2-6.5-6c-3.4-1.6-4.6-2.7-4.8-4.2c-0.7-2.7,2.7-17.4,5-22c4.2-8,9.2-12.1,17.4-13.8
		c3.6-0.7,4.6-1.2,6.7-4.4c2.7-3.2,3-3.4,9.4-4.2c3.6-0.7,8.4-1.6,11.1-2.7c4.2-1.4,4.6-1.4,6.7-0.2c1.4,0.7,3.2,1.9,4.2,3.2
		c2.1,2.5,16.2,5.5,28.7,6.2c4.8,0.4,10.1,1,11.6,1.4c4.4,1.4,7,1.2,9.6-1.2c1.2-1.2,2.7-2.7,3-3.4c1.4-2.5,26.6-7.3,27.5-5.3
		c0.4,0.4,4.4,0.7,11.6,0.7c10.8,0,16.7-0.7,16.7-2.1c0-0.7,9-1,28.5-0.7c25.6,0.2,28.9,0,32.1-1.2c6.7-2.5,12.6-2.5,23.7,0.7
		c11.8,3.2,22.5,5.6,32.9,7c11.6,1.6,36,2.1,53.4,1.2c26.8-1.6,53.2,0.7,65.4,6c3,1.4,3.6,2.1,4.8,5.3c2.5,7.3,8.2,10.1,20,10.1
		c3.6,0,8.8,0.7,15.9,2.5c14,3.6,16.2,3.8,17.6,2.1c1.9-2.1,2.5-4.4,1.2-7.3c-1.4-3.4-5-5-13-6c-7.5-0.7-9.9-2.1-9.9-5
		c0-1.6,0.7-3,3-4.4c1.6-1.4,5.8-4.8,9-8c3.8-3.6,7.8-6.5,10.4-7.5c2.5-1.2,5.3-3,6.5-3.8l1.9-2.1l15.2,0.7c8.4,0.2,18.1,0.7,21.6,1
		c6.2,0.2,6.5,0.2,8.8-1.9c3.6-3.6,3-5-2.7-5.8c-2.5-0.2-6.5-1.2-8.8-1.9c-2.5-1-5.6-1.6-7.3-2.1c-3.4-0.4-3.4-0.7,1.4-2.7
		c2.1-0.7,5-1.6,6.7-2.5c1.6-0.7,5-1.6,7.5-1.9C1234.3,23112.6,1238.1,23109.2,1237.2,23103.8z"/>
</g>
<path class="st2" d="M113.6,3.4h-65l-1,2.8c-4.8,13.4-18.3,18.5-29.1,18.7L15.7,25L4.3,36.5l0.1,1.8c1.4,30.7,7.4,56.4,18.3,78.6
	v0.1c5.7,11,12.3,20.7,20.2,29.7l0,0l0,0c10.8,11.4,23.5,20.8,37.8,27.8l1.8,1l1.8-1c9.5-4.7,18-10.1,26.2-16.9l0.1-0.1
	c4.9-4.2,9.6-8.9,14.8-14.7l0.1-0.1l0.1-0.1c3.1-3.7,6.1-7.9,9.1-12.3v-0.1V130c6.3-10.1,11.3-20.7,15.5-32.2v-0.1v-0.1
	c3.8-12,6.5-23.6,8.2-35.4c1-8,1.7-16,2.1-24l0.1-1.9l-11.1-11.1l-1.6-0.1c-6.9-0.2-12.2-1.6-17.4-4.3c-6.2-3.6-10.5-8.3-13-14.5
	l-1.3-2.8H113.6L113.6,3.4z"/>
</svg>
