<?xml version="1.0" encoding="utf-8"?>
<!-- Generator: Adobe Illustrator 24.0.1, SVG Export Plug-In . SVG Version: 6.00 Build 0)  -->
<svg version="1.1" id="Слой_1" xmlns="http://www.w3.org/2000/svg" xmlns:xlink="http://www.w3.org/1999/xlink" x="0px" y="0px"
	 viewBox="0 0 48 48" style="enable-background:new 0 0 48 48;" xml:space="preserve">
<style type="text/css">
	.st0{fill:#74B4D7;}
</style>
<path class="st0" d="M46.4,13.5c-0.1-0.2-0.2-0.4-0.2-0.6c-1.9-3.3-2-7.5-3.9-10.9c-5.4,3-9.1,8.4-12.6,13.4c-2.1,3-4,6-5.8,9.2
	c-1.8,3.2-3.5,6.5-5.4,9.6c-0.3,0.4-1,0.6-1.3,0.1c-0.9-1.7-2-3.4-3.2-5c-1-1.3-2.2-2.5-3.3-3.8c-1.6-2-3.4-4.5-5.7-5.9
	c-0.8,2.7-1.8,5.4-2.2,8.3c3.2,2.1,5.6,5,7.9,8c2.7,3.5,5.6,6.7,8.6,9.9c2-2.6,3.4-5.6,5-8.5c1.9-3.3,4.2-6.4,6.6-9.4s5.2-5.7,8-8.3
	c1.3-1.2,2.9-2.2,4.3-3.4C44.4,15.3,45.5,14.5,46.4,13.5L46.4,13.5z"/>
<path d="M47.4,12.2C45.3,8.7,45.3,4.1,43,0.6c-0.2-0.4-0.7-0.4-1.1-0.2c-5.9,3-9.8,8.8-13.6,14c-2.1,3-4.1,6.1-5.9,9.3
	c-1.6,2.9-3.1,5.8-4.8,8.6C16.8,31,16,29.7,15,28.4c-1.1-1.4-2.3-2.6-3.4-4c-2-2.4-4.1-5.3-6.9-6.7c-0.5-0.2-1,0.1-1.1,0.5
	c-0.9,3.1-2,6.1-2.5,9.3c0,0,0,0,0,0.1c-0.3,0.4-0.3,0.9,0.2,1.2c3.4,2,5.9,5.3,8.4,8.4c2.8,3.6,5.8,7,9.1,10.3
	c0.3,0.3,0.8,0.2,1.1-0.1c2.2-2.7,3.7-5.8,5.4-8.9c1.9-3.4,4.1-6.5,6.6-9.5s5.2-5.7,8-8.3c1.3-1.3,2.9-2.3,4.4-3.5
	c1.2-0.9,2.3-1.9,3.3-3C47.9,14.4,47.4,12.2,47.4,12.2z M43.2,16.2c-1.4,1.1-2.9,2.1-4.3,3.4c-2.8,2.6-5.6,5.3-8,8.3
	s-4.7,6.1-6.6,9.4c-1.7,2.8-3,5.9-5,8.5c-3.1-3.1-5.9-6.4-8.6-9.9c-2.3-2.9-4.8-5.9-7.9-8c0.4-2.8,1.4-5.5,2.2-8.3
	c2.3,1.4,4,3.9,5.7,5.9c1.1,1.3,2.2,2.5,3.3,3.8c1.2,1.6,2.2,3.2,3.2,5c0.3,0.6,1,0.4,1.3-0.1c2-3.1,3.7-6.4,5.4-9.6
	c1.7-3.2,3.6-6.3,5.8-9.2c3.3-4.9,7-10.3,12.4-13.3C44,5.4,44.1,9.6,46,13c0,0.2,0.1,0.4,0.2,0.6l0,0C45.3,14.5,44.2,15.4,43.2,16.2
	z"/>
</svg>
