<?xml version="1.0" encoding="utf-8"?>
<!-- Generator: Adobe Illustrator 24.0.1, SVG Export Plug-In . SVG Version: 6.00 Build 0)  -->
<svg width="282" version="1.1" id="Слой_1" xmlns="http://www.w3.org/2000/svg" xmlns:xlink="http://www.w3.org/1999/xlink" x="0px" y="0px"
	 viewBox="0 0 286 433" style="enable-background:new 0 0 286 433;" xml:space="preserve">
<style type="text/css">
	.st0{fill:#0A4F7A;stroke:#DDDDDD;stroke-width:0.75;stroke-miterlimit:10;}
	.st1{fill:#0A4F7A;stroke:#F9F9F9;stroke-width:0.5;stroke-miterlimit:10;}
	.st2{fill:#FFFFFF;stroke:#000000;stroke-width:0.75;stroke-miterlimit:10;}
</style>
<path class="st0" d="M14.4,9.1h9.7L19.2,24h2.2l-1.6,4.9H0.5L2.1,24h2.2l2.7-8.3L14.4,9.1z M12.9,16.5l-2.4,7.4h2.6l3.5-10.7
	L12.9,16.5z M21.6,28.9l5.3-16.2L32.4,9H43l-5.3,16.2l-5.5,3.7C32.2,28.9,21.6,28.9,21.6,28.9z M29.5,23.4h2.6l3-9.3h-2.6L29.5,23.4
	z M39.2,28.9l6.4-19.8h13.9L57.9,14h-7.7l-0.6,2l7.3,4.5l-2.7,8.4H39.2z M48.1,20.5L47,23.9h2.6l0.7-2.1L48.1,20.5z M56.4,28.9
	L62.9,9h14.9l-3.4,10.6l-10.3,4.5l-1.5,4.7H56.4z M65.9,18.5l3-1.3l1.1-3.1h-2.6L65.9,18.5z M73.3,28.9l5.3-16.2L84.1,9h10.6
	l-5.3,16.2l-5.5,3.7H73.3z M81.2,23.4h2.6l3-9.3h-2.6L81.2,23.4z M109.8,9.1h14.9l-6.5,19.9H112l4.9-14.9h-2.6l-4.9,14.9h-6.2
	L109.8,9.1L109.8,9.1z M120.9,28.9l5.3-16.2l5.5-3.7h10.6L137,25.2l-5.5,3.7H120.9z M128.8,23.4h2.6l3-9.3h-2.6L128.8,23.4z
	 M153.6,9.1h5.9l-2.7,8.2l3.3-2.1l2-6.1h6l-2,6.1l-4.9,3.4l2.6,3.6l-2.2,6.7h-6l2.2-6.7L156,20l-2.9,9h-5.9l2.9-9l-3.3,2.3l-2.2,6.6
	h-6l2.2-6.7l4.9-3.6l-2.6-3.4l2-6.1h6l-2,6.1l1.9,2.1L153.6,9.1L153.6,9.1z M164.3,28.9l4.3-13.3L176,9h9.6l-6.4,19.9H173l2.5-7.7
	h-2.6l-2.5,7.7H164.3z M176.5,18l1.6-4.9l-3.7,3.4l-0.5,1.4H176.5L176.5,18z M191.9,16.5l-4,12.3h-6.2l4.3-13.3l7.5-6.6h9.5
	l-6.4,19.9h-6.2l5.1-15.7L191.9,16.5L191.9,16.5z M199.3,28.9l5.3-16.2l5.5-3.7h10.6l-5.3,16.2l-5.5,3.7H199.3z M207.2,23.4h2.6
	l3-9.3h-2.6L207.2,23.4z M216.9,28.9L223.3,9h14.9l-2.4,7.5l-3.9,2l2.5,2.2l-2.7,8.2H216.9z M224.6,23.8h2.7l1.1-3.5h-2.7
	C225.8,20.3,224.6,23.8,224.6,23.8z M230.5,13.9h-2.7l-1,3.2h2.7L230.5,13.9z M234.4,28.9l4.3-13.3l7.5-6.6h9.5l-6.4,19.9h-6.2
	l2.5-7.7H243l-2.5,7.7H234.4z M246.7,18l1.6-4.9l-3.7,3.4l-0.5,1.4H246.7L246.7,18z M254.8,28.9l4.9-14.9h-4l1.6-4.9h14.3l-1.6,4.9
	h-4L261,28.9H254.8z M267,28.9l6.4-19.8h6.2l-1.6,4.9l7.1,4.1l-3.5,10.8H267L267,28.9z M276.2,19l-1.6,4.8h2.6l1.2-3.5L276.2,19z"/>
<path class="st1" d="M79.4,49.4l4.2-12.8h9.6l-1.6,4.9l-2.5,1.3l1.6,1.4l-1.7,5.3L79.4,49.4L79.4,49.4z M84.4,46.2h1.7l0.7-2.3h-1.7
	L84.4,46.2z M88.2,39.7h-1.7l-0.6,2.1h1.7L88.2,39.7z M98.8,49.4l4.2-12.8h7.6l-1.1,3.4h-3.6l-3,9.5L98.8,49.4L98.8,49.4z
	 M107.1,49.4l3.4-10.5l3.5-2.4h6.8L117.5,47l-3.5,2.4H107.1z M112.1,45.9h1.7l2-6h-1.7L112.1,45.9z M118.3,49.4l4.2-12.8h9.6
	l-2.2,6.8l-6.6,2.9l-1,3H118.3L118.3,49.4z M124.5,42.7l1.9-0.9l0.7-2h-1.7L124.5,42.7L124.5,42.7z M129.2,49.4l3.4-10.5l3.5-2.4
	h6.8l-3.5,10.5l-3.5,2.4L129.2,49.4L129.2,49.4z M134.3,45.9h1.7l2-6h-1.7L134.3,45.9z M148.7,36.6h6.3l-3.1,9.6h1.4l-1.1,3.2h-12.5
	l1.1-3.2h1.4l1.7-5.4L148.7,36.6L148.7,36.6z M147.7,41.5l-1.6,4.8h1.7l2.2-6.9C150.1,39.4,147.7,41.5,147.7,41.5z M160.7,44.5h-5.2
	v-3.2h5.2V44.5z M160.4,49.4l4.2-12.8h7.6l-1.1,3.4h-3.6l-3,9.5L160.4,49.4L160.4,49.4z M177.3,49.4h-8.5l4.2-12.8h8.5l-1.1,3.2H176
	l-0.7,2.1h2l-0.7,2.1h-2l-0.7,2.1h4.5L177.3,49.4L177.3,49.4z M178.6,49.4l4.2-12.8h9.6l-2.2,6.8l-6.6,2.9l-1,3H178.6z M184.7,42.7
	l1.9-0.9l0.7-2h-1.7C185.7,39.9,184.7,42.7,184.7,42.7z M189.5,49.4l3.4-10.5l3.5-2.4h6.8L199.9,47l-3.5,2.4H189.5z M194.6,45.9h1.7
	l2-6h-1.7L194.6,45.9z M204.5,36.6h4l-2.1,6.5l3.3-3.2l1.1-3.2h4l-4.2,12.8h-4l1.4-4.2l-4.3,4.2h-3.3L204.5,36.6L204.5,36.6z
	 M208.6,36l-1.3-2.7h2.5l0.5,0.9l1.1-0.9h2.5l-3,2.7H208.6z"/>
<path class="st2" d="M1.9,115.9l11.9-36.5h27.5l-4.5,13.9l-7.1,3.7l4.7,4l-4.9,15.1H1.9z M16.3,106.6h4.9l2.1-6.6h-4.9
	C18.4,100.1,16.3,106.6,16.3,106.6z M27.1,88.2h-4.9l-1.9,5.9h4.9L27.1,88.2z M34.4,115.9l9.7-29.9l10.1-6.7h19.5l-9.7,29.9
	L54,115.9C54,115.9,34.4,115.9,34.4,115.9z M49,105.9h4.8l5.6-17.3h-4.8L49,105.9z M85.4,93.2L78,115.9H66.7l7.9-24.4l13.8-12.2H106
	l-11.9,36.6H82.8l9.4-29L85.4,93.2z M99.1,115.9L111,79.3h21.7l-3.1,9.6h-10.3l-8.8,27L99.1,115.9L99.1,115.9z M122.6,115.9
	l9.7-29.9l10.1-6.7H162l-9.7,29.9l-10.1,6.7H122.6z M137.2,105.9h4.8l5.6-17.3h-4.8L137.2,105.9z M155,115.9l11.9-36.6h21.7
	l-3.1,9.6h-10.3l-8.8,27L155,115.9L155,115.9z M179.2,115.9l11.9-36.6h27.4l-6.4,19.6l-18.8,8.4l-2.8,8.6L179.2,115.9L179.2,115.9z
	 M196.7,96.8l5.6-2.4l1.9-5.7h-4.8L196.7,96.8L196.7,96.8z M209.8,115.9l7.9-24.4l13.8-12.2h17.6l-11.9,36.6h-11.3l4.6-14.2h-4.8
	l-4.6,14.2L209.8,115.9L209.8,115.9z M232.5,95.8l3-8.9l-6.9,6.3l-0.9,2.6H232.5L232.5,95.8z M265.8,79.4h18l-8.9,27.5h4.2l-3,9.1
	h-35.8l3-9.1h4.2l5-15.4L265.8,79.4z M263.1,93.3l-4.4,13.7h4.8l6.4-19.8L263.1,93.3L263.1,93.3z"/>
<path class="st2" d="M200.3,404.8l2.1,2.4c-2,1.8-4.1,2.8-6.3,3.1c-0.5,0.1-1.6,0.1-3.3,0.2c-0.9,0-1.8,0.1-2.7,0.1h-0.5v-0.1
	c-1.9,0-3.6-0.6-5.1-1.8c-0.7-0.6-1.2-1.3-1.7-2.1s-0.7-1.5-0.8-2s-0.2-1-0.2-1.5l3.1-0.2c0.1,1.4,0.6,2.6,1.6,3.4
	c0.7,0.6,1.6,1,2.6,1.1s2-0.1,2.9-0.7c0.9-0.7,1.5-1.6,1.7-2.7s0.1-2.1-0.5-3c-0.4-0.6-0.9-1-1.5-1.3c-0.7-0.3-1.4-0.5-2.1-0.5
	c-0.3,0-0.5,0.1-0.7,0.1l-0.2-3.1h0.7c1-0.2,1.8-0.7,2.3-1.5c0.2-0.5,0.4-0.9,0.4-1.4s-0.1-1-0.4-1.6c-0.3-0.4-0.6-0.7-1.1-0.9
	c-0.4-0.2-0.9-0.3-1.4-0.3c-0.4,0-0.7,0.2-1.1,0.4c-0.4,0.2-0.6,0.4-0.7,0.5c-0.1,0.1-0.2,0.3-0.2,0.4l-2.7-1.6
	c0.1-0.2,0.3-0.4,0.4-0.6c0.2-0.2,0.4-0.5,0.8-0.8c0.4-0.3,0.8-0.6,1.4-0.9c0.5-0.2,1.1-0.4,1.8-0.5c1-0.1,2,0.1,3,0.6
	c0.9,0.5,1.7,1.1,2.3,2s0.9,1.9,0.9,3.1s-0.3,2.2-0.9,3.3c-0.2,0.4-0.5,0.7-0.8,1.1c1,0.6,1.7,1.3,2.3,2.2c0.8,1.2,1.1,2.6,1.1,4
	s-0.5,2.8-1.3,4C197.3,406.9,198.8,406.1,200.3,404.8L200.3,404.8z"/>
<path class="st2" d="M216.1,404.8l2,2.4c-2.6,2.2-4.8,3.3-6.7,3.3c-0.8,0-1.5-0.2-2-0.7c-0.2-0.2-0.4-0.4-0.6-0.7
	c-1.1,0.9-2.3,1.3-3.6,1.3h-0.5c-0.7-0.1-1.3-0.3-2-0.6c-0.6-0.4-1.1-0.7-1.3-1c-0.3-0.3-0.5-0.6-0.7-0.9c-0.6-0.8-0.9-1.6-1-2.6
	s-0.1-1.9,0.1-2.8c0.2-0.9,0.5-1.6,1-2.3c1-1.6,2.5-2.7,4.6-3.2c2.1-0.6,4.2-0.5,6.4,0.3l-1,2.9c-1.5-0.5-2.9-0.6-4.3-0.3
	s-2.4,0.9-3,1.9c-0.2,0.4-0.4,0.8-0.5,1.2c-0.1,0.5-0.2,1-0.1,1.5c0,0.6,0.2,1.1,0.5,1.5c0.5,0.7,1.1,1.1,1.8,1.1
	c0.6,0,1.2-0.2,1.9-0.7c0.6-0.5,1.1-1.2,1.5-2.1l0.1-3.2l3.1,0.1l-0.2,5.4v0.4c0.2,0,0.5-0.1,0.9-0.2s0.9-0.4,1.6-0.8
	C214.7,406,215.4,405.4,216.1,404.8L216.1,404.8z"/>
<path class="st2" d="M232,404.8l2,2.4c-2.6,2.2-4.8,3.3-6.7,3.3c-0.8,0-1.5-0.2-2-0.7c-0.8-0.6-1.1-1.6-1.1-3V406c0,0,0,0.1-0.1,0.1
	c-0.2,0.3-0.5,0.6-0.8,0.9c-0.3,0.4-0.8,0.8-1.4,1.4s-1.3,1.1-2,1.5s-1.4,0.6-2,0.6c-0.5,0-0.9-0.1-1.2-0.3c-1-0.5-1.4-1.6-1.4-3.1
	l0.3-10.3h3.1l-0.3,10.4c1.1-0.6,2.1-1.6,3.2-3c1.6-2,2.5-4.4,2.8-7.3v-0.1h3.1v0.3l-0.2,9.9v0.5c0.4,0,1-0.2,1.8-0.6
	C230.1,406.4,231,405.7,232,404.8L232,404.8z M226.1,392.4l0.4,0.4c-1.2,1.2-2.7,1.9-4.4,2.2c-0.4,0.1-0.8,0.1-1.1,0.1
	c-1.4,0-2.7-0.4-4-1.1l0.9-1.6l0.6-1.1c1,0.6,2,0.8,3.2,0.6c1-0.1,1.9-0.6,2.7-1.3L226.1,392.4L226.1,392.4z"/>
<path class="st2" d="M249.6,404.8l2,2.4c-0.9,0.8-1.8,1.6-2.8,2.4c-1,0.9-1.7,1.5-2,1.8c-1.2,1.2-2.3,2.5-3.3,4l-2.7-1.6
	c0.7-1.5,1-2.8,0.7-3.8c0-0.1-0.1-0.4-0.2-0.6c-0.2-0.6-0.4-1.1-0.6-1.5c-0.2-0.7-0.3-1.3-0.4-2c-0.1,0.1-0.1,0.2-0.2,0.2
	c-0.2,0.3-0.5,0.6-0.8,1s-0.8,0.8-1.4,1.4s-1.3,1.1-2,1.5s-1.4,0.6-2,0.6c-0.5,0-0.9-0.1-1.2-0.3c-1-0.5-1.4-1.6-1.4-3.1l0.3-10.3
	h3.1l-0.3,10.4c1.1-0.6,2.1-1.6,3.2-3c1.6-2,2.5-4.5,2.8-7.4h3.1l-0.2,7.7c-0.1,0.9,0,1.7,0.3,2.5c0.1,0.4,0.2,0.8,0.4,1.2
	c0.2,0.4,0.3,0.6,0.3,0.9c0,0.1,0,0.1,0.1,0.2l0.1-0.1c0.3-0.3,1-1,2.1-1.9C247.7,406.4,248.6,405.6,249.6,404.8L249.6,404.8z"/>
<path class="st2" d="M262,409.4c-1.7,0.7-3.3,1.1-4.8,1.1h-0.4c-1.9-0.1-3.5-0.5-4.7-1.4c-1-0.7-1.8-1.5-2.3-2.4c-0.6-1-0.9-2-1-3
	s0.1-2,0.5-2.9c0.4-1,1-1.8,1.7-2.4c1-0.8,2-1.3,3.2-1.5c1.6-0.2,2.9,0.2,3.9,1c0.7,0.6,1.2,1.5,1.4,2.5c0.2,1,0.1,2-0.5,3.1
	c-0.6,1-1.4,1.6-2.4,2s-2.1,0.3-3.1-0.1l1.1-2.9c0.3,0.1,0.6,0.1,0.9,0s0.5-0.3,0.7-0.6c0.1-0.3,0.2-0.6,0.1-0.9s-0.2-0.5-0.4-0.7
	c-0.3-0.2-0.8-0.3-1.4-0.2c-0.5,0.1-1,0.3-1.5,0.7c-0.8,0.8-1.2,1.7-1.2,2.9c0.1,1.2,0.7,2.2,2,3c0.7,0.5,1.7,0.8,3,0.8
	c1.2,0,2.4-0.2,3.8-0.8c1-0.4,1.9-1,2.7-1.7l2.1,2.4C264.5,408.1,263.3,408.8,262,409.4L262,409.4z"/>
<path class="st2" d="M280.3,404.8l2.1,2.4c-2,1.8-4.1,2.8-6.3,3.1c-0.6,0.1-1.6,0.1-3.3,0.2c-0.9,0-1.8,0.1-2.7,0.1h-0.4
	c-1.9,0-3.5-0.7-4.9-2c-1.3-1.3-2-3-2-4.8c-0.1-2.5,0.2-4.8,1.1-7.1c0.2-0.5,0.4-0.9,0.5-1.3s0.4-0.8,0.7-1.5
	c0.3-0.6,0.8-1.3,1.3-1.9s1.1-1.2,1.7-1.8c1.6-1.4,3.5-2.4,5.7-3c0.4-0.1,0.8,0,1.2,0.2c0.4,0.2,0.6,0.6,0.7,1c0.4,2,0.4,4-0.2,5.9
	c-0.2,0.8-0.5,1.6-1,2.3c-0.4,0.7-0.8,1.4-1.3,1.9c-0.4,0.5-0.9,1-1.4,1.4s-0.9,0.8-1.3,1s-0.7,0.4-1,0.6l-1.5-2.7
	c0.3-0.2,0.7-0.4,1-0.7c0.3-0.3,0.7-0.6,1.2-1s0.9-1,1.3-1.6c0.4-0.7,0.7-1.3,0.9-2.1c0.2-0.8,0.4-1.7,0.3-2.6c-1,0.5-1.9,1-2.7,1.8
	c-0.7,0.6-1.2,1.2-1.8,1.9c-0.5,0.7-0.8,1.3-1,1.7c-0.2,0.4-0.4,0.9-0.6,1.5c-0.7,1.9-1,3.8-0.9,5.9c0,1,0.4,1.9,1.1,2.7
	s1.6,1.1,2.7,1.1h0.1c0.5,0,0.9-0.1,1.4-0.3c0.5-0.2,0.9-0.5,1.2-0.8c0.7-0.7,1.1-1.6,1.1-2.6v-0.1c0-0.5-0.1-1-0.3-1.5
	c-0.2-0.5-0.5-0.9-0.8-1.3l2.3-2.1c0.6,0.7,1.1,1.4,1.4,2.3c0.4,0.9,0.5,1.8,0.5,2.7c0,1.3-0.3,2.5-1,3.5h0.1
	C277.2,406.9,278.8,406.2,280.3,404.8L280.3,404.8z"/>
<path class="st2" d="M152.7,406.4l0.1-12.1h3.1l-0.1,12.1c0,0.2,0,0.5-0.1,0.8c0,0.3-0.1,0.7-0.2,1.1c-0.1,0.5-0.3,0.9-0.7,1.4
	c-0.3,0.5-0.7,0.9-1.2,1.2c-0.8,0.6-1.7,0.9-2.6,0.9c-0.4,0-0.8-0.1-1.2-0.2c-0.6-0.2-1.2-0.7-1.7-1.3c-1-1.3-1.4-2.8-1.5-4.6
	l3.1-0.1c0,1.1,0.3,2.1,0.8,2.8c0.1,0.2,0.3,0.3,0.3,0.3c0.2,0.1,0.5,0,1-0.3C152.5,408,152.7,407.3,152.7,406.4L152.7,406.4z"/>
<path class="st2" d="M171,406.1l2,2.4c-2,1.8-4.1,2.8-6.3,3.1c-0.5,0.1-1.6,0.1-3.3,0.2c-0.9,0-1.8,0.1-2.7,0.1h-0.5
	c-1.6,0-3-0.5-4.2-1.5l1.9-2.5c0.7,0.5,1.5,0.8,2.4,0.9h0.3c1.2-0.1,2.2-0.5,2.9-1.4c0.5-0.6,0.8-1.3,0.9-2.1c0.1-0.8,0-1.5-0.2-2
	c-0.4-1-1.2-1.8-2.3-2.3s-2.4-0.7-3.6-0.4l-0.8-3c0.8-0.3,1.5-0.7,2-1.3c0.5-0.6,0.8-1.2,0.7-1.9c0-0.7-0.5-1.4-1.3-2
	c-0.2-0.1-0.4-0.2-0.5-0.3c-0.9-0.5-2-0.6-3.3-0.3c-1.3,0.3-2.5,1-3.6,2l-1.9-2.1v-0.4c1-0.8,2-1.5,3.2-2s2.5-0.8,3.7-0.8
	c1.3,0,2.4,0.3,3.4,0.8l0.9,0.6c0.3,0.2,0.6,0.5,1.1,0.9c0.4,0.4,0.8,0.9,1,1.5c0.3,0.6,0.4,1.3,0.5,1.9c0.1,1.2-0.3,2.4-1.1,3.6
	c1.1,0.4,2.1,0.9,3,1.7c0.9,0.8,1.5,1.6,1.9,2.7c0.4,0.8,0.6,1.8,0.5,3.1c-0.1,1.2-0.4,2.3-0.9,3.3
	C168.1,408.1,169.6,407.4,171,406.1L171,406.1z"/>
<path class="st2" d="M175.4,409.1c0.3-0.3,0.7-0.5,1.1-0.5s0.8,0.2,1.1,0.5s0.5,0.7,0.5,1.1s-0.2,0.8-0.5,1.1
	c-0.3,0.3-0.7,0.5-1.1,0.5s-0.8-0.2-1.1-0.5s-0.5-0.7-0.5-1.1S175,409.4,175.4,409.1z"/>
<g>
	<path class="st2" d="M11.1,330.4l-2.2,2.2L4.2,328l4.7-4.7l2.2,2.2L8.6,328L11.1,330.4z M16.6,330.4l-2.2,2.2L9.7,328l4.7-4.7
		l2.2,2.2l-2.5,2.5L16.6,330.4z"/>
	<path class="st2" d="M34.9,329.1l2,2.4c-2,1.8-4.1,2.8-6.3,3.1c-0.6,0.1-1.6,0.2-3.3,0.2c-0.9,0-1.8,0-2.7,0h-0.5v0
		c-1.2,0-2.3-0.4-3.2-1.1c-0.7-0.5-1.2-1-1.6-1.8c-0.4-0.7-0.7-1.3-0.8-1.8c-0.1-0.4-0.2-0.9-0.2-1.3l3.1-0.3c0.1,1.1,0.5,2,1.3,2.5
		c0.6,0.5,1.4,0.6,2.3,0.4c0.9-0.2,1.7-0.6,2.2-1.2c0.5-0.6,0.7-1.2,0.8-2c0.1-0.8-0.1-1.5-0.4-2.2c-0.1-0.2-0.3-0.5-0.5-0.7
		c-0.2-0.2-0.4-0.4-0.6-0.5s-0.4-0.3-0.6-0.4c-0.2-0.1-0.4-0.2-0.6-0.2c-0.2-0.1-0.3-0.1-0.5-0.1c-0.2,0-0.3-0.1-0.4-0.1
		c-0.1,0-0.1,0-0.2,0l-0.1-3.1c0.5-0.1,0.9-0.3,1.2-0.6c0.3-0.3,0.5-0.6,0.4-1c0-0.1,0-0.3-0.1-0.4c-0.1-0.1-0.1-0.3-0.2-0.4
		c-0.1-0.1-0.2-0.2-0.4-0.2c-0.2-0.1-0.5-0.1-0.8,0c-0.3,0.1-0.5,0.3-0.7,0.6l-2.6-1.7c0.5-0.9,1.3-1.5,2.3-1.8c1-0.4,1.9-0.4,2.9,0
		c0.8,0.3,1.5,0.8,2,1.5c0.5,0.7,0.8,1.5,0.8,2.4c0,1-0.3,2-1,2.9c1,0.7,1.8,1.5,2.3,2.5c0.6,1.1,0.8,2.2,0.8,3.4
		c0,1.2-0.3,2.3-0.9,3.3C31.9,331.2,33.4,330.4,34.9,329.1z"/>
	<path class="st2" d="M50.5,329.1l2,2.4c-2.6,2.2-4.8,3.3-6.7,3.3c-0.8,0-1.5-0.2-2-0.7c-0.2-0.2-0.4-0.4-0.6-0.7
		c-1.1,0.9-2.3,1.3-3.6,1.3c-0.1,0-0.3,0-0.5,0c-0.7-0.1-1.3-0.3-2-0.6c-0.6-0.4-1.1-0.7-1.3-1c-0.3-0.3-0.5-0.6-0.7-0.9
		c-0.6-0.8-0.9-1.6-1-2.6c-0.1-1-0.1-1.9,0.1-2.8c0.2-0.9,0.5-1.6,1-2.3c1-1.6,2.5-2.7,4.6-3.2c2.1-0.6,4.2-0.5,6.4,0.3l-1,2.9
		c-1.5-0.5-2.9-0.6-4.3-0.3c-1.4,0.3-2.4,0.9-3,1.9c-0.2,0.4-0.4,0.8-0.5,1.2c-0.1,0.5-0.2,1-0.1,1.5c0,0.6,0.2,1.1,0.5,1.5
		c0.5,0.7,1.1,1.1,1.8,1.1c0.6,0,1.2-0.2,1.9-0.7c0.6-0.5,1.1-1.2,1.5-2.1l0.1-3.2l3.1,0.1l-0.2,5.4c0,0.2,0,0.3,0,0.4h0
		c0.2,0,0.5-0.1,0.9-0.2c0.4-0.1,0.9-0.4,1.6-0.8C49.1,330.3,49.8,329.8,50.5,329.1z"/>
	<path class="st2" d="M65.2,329.5l0.1-12.1h3.1l-0.1,12.1c0,0.2,0,0.5-0.1,0.8c0,0.3-0.1,0.7-0.2,1.1c-0.1,0.5-0.3,0.9-0.7,1.4
		c-0.3,0.5-0.7,0.9-1.2,1.2c-0.8,0.6-1.7,0.9-2.6,0.9c-0.4,0-0.8-0.1-1.2-0.2c-0.6-0.2-1.2-0.7-1.7-1.3c-1-1.3-1.4-2.8-1.5-4.6
		l3.1-0.1c0,1.1,0.3,2.1,0.8,2.8c0.1,0.2,0.3,0.3,0.3,0.3c0.2,0.1,0.5,0,1-0.3C64.9,331,65.2,330.4,65.2,329.5L65.2,329.5z
		 M83.5,329.1l2,2.4c-2,1.8-4.1,2.8-6.3,3.1c-0.5,0.1-1.6,0.1-3.3,0.2c-0.9,0-1.8,0.1-2.7,0.1h-0.1c-0.1,0-0.2,0-0.3,0h-0.1
		c-1.6,0-3-0.5-4.2-1.5l1.9-2.5c0.7,0.5,1.5,0.8,2.4,0.9h0c0.1,0,0.2,0,0.2,0h0.1c1.2-0.1,2.2-0.5,2.9-1.4c0.5-0.6,0.8-1.3,0.9-2.1
		c0.1-0.8,0-1.5-0.2-2c-0.4-1-1.2-1.8-2.3-2.3s-2.4-0.7-3.6-0.4l-0.8-3c0.8-0.3,1.5-0.7,2-1.3c0.5-0.6,0.8-1.2,0.7-1.9
		c0-0.7-0.5-1.4-1.3-2c-0.2-0.1-0.4-0.2-0.5-0.3c-0.9-0.5-2-0.6-3.3-0.3c-1.3,0.3-2.5,1-3.6,2l-1.9-2.1V314c1-0.8,2-1.5,3.2-2
		c1.2-0.5,2.5-0.8,3.7-0.8c1.3,0,2.4,0.3,3.4,0.8c0.3,0.2,0.6,0.4,0.9,0.6c0.3,0.2,0.6,0.5,1.1,0.9c0.4,0.4,0.8,0.9,1,1.5
		c0.3,0.6,0.4,1.3,0.5,1.9c0.1,1.2-0.3,2.4-1.1,3.6c1.1,0.4,2.1,0.9,3,1.7c0.9,0.8,1.5,1.6,1.9,2.7c0.4,0.8,0.6,1.8,0.5,3.1
		c-0.1,1.2-0.4,2.3-0.9,3.3C80.6,331.2,82,330.4,83.5,329.1z"/>
	<path class="st2" d="M100.4,329.1l2,2.4c-2,1.8-4.1,2.8-6.3,3.1c-0.6,0.1-1.6,0.1-3.3,0.2c-0.9,0-1.8,0.1-2.7,0.1
		c-0.1,0-0.2,0-0.3,0h-0.2h0c-1.2,0-2.4-0.3-3.5-0.9s-1.9-1.4-2.5-2.5c-0.6-1.1-0.9-2.2-0.9-3.5c0-1.9,0.7-3.5,2-4.9
		c1.3-1.3,3-2,4.9-2s3.5,0.7,4.9,2c1.3,1.3,2,3,2,4.9c0,1.3-0.3,2.5-1,3.6c0,0,0.1,0,0.1,0C97.3,331.3,98.8,330.5,100.4,329.1z
		 M92.4,330.6c0.7-0.7,1.1-1.6,1.1-2.6s-0.4-1.9-1.1-2.7c-0.7-0.7-1.6-1.1-2.7-1.1c-1,0-1.9,0.4-2.7,1.1c-0.7,0.7-1.1,1.6-1.1,2.7
		s0.4,1.9,1.1,2.7c0.7,0.7,1.6,1.1,2.7,1.1h0h0C90.8,331.7,91.7,331.3,92.4,330.6z"/>
	<path class="st2" d="M117.5,329.1l2,2.4c-2.6,2.2-4.8,3.3-6.7,3.3c-0.8,0-1.5-0.2-2-0.7c-0.8-0.6-1.2-1.6-1.1-3l0-1
		c0,0-0.1,0.1-0.1,0.2c-2.3,3-4.4,4.5-6.2,4.5c-0.4,0-0.8-0.1-1.2-0.2c-0.5-0.2-0.8-0.5-1.2-0.9s-0.6-0.8-0.7-1.2
		c-0.2-0.4-0.3-0.9-0.4-1.4c-0.1-0.5-0.1-1-0.2-1.3c0-0.4,0-0.7,0-1.1l3.1,0.1c0,0.5,0,1,0.1,1.4c0.1,0.5,0.2,0.8,0.2,1.1
		c0.1,0.3,0.2,0.4,0.3,0.5c0.2,0,0.6-0.2,1.1-0.6c0.8-0.6,1.6-1.5,2.5-2.7c1.6-2,2.5-4.5,2.8-7.4h3.2l-0.3,10.2c0,0.2,0,0.3,0,0.5
		c0.4,0,1-0.2,1.8-0.6S116.5,330,117.5,329.1z"/>
	<path class="st2" d="M123.4,334.4c-1,0.2-1.8,0.4-2.4,0.4c-1,0-1.9-0.3-2.5-0.8c-0.4-0.3-0.7-0.8-1-1.3c-0.3-0.5-0.4-0.9-0.4-1.2
		c0-0.3-0.1-0.5-0.1-0.8c0-0.5,0-1,0.2-1.4c0.1-0.5,0.4-0.9,0.7-1.3c0.3-0.4,0.6-0.7,0.8-1c0.2-0.2,0.5-0.5,0.9-0.9
		c0.8-0.8,1.2-1.3,1.2-1.4c0-0.1-0.1-0.1-0.1-0.2c0-0.1-0.1-0.1-0.2-0.2c-0.1-0.1-0.1-0.1-0.2-0.1c-0.2-0.1-0.5,0.1-0.9,0.5
		l-2.5-1.9c0.5-0.7,1.1-1.2,1.9-1.5c0.7-0.3,1.5-0.4,2.2-0.2c0.5,0.1,0.9,0.3,1.3,0.6c0.4,0.3,0.8,0.7,1,1.1
		c0.3,0.4,0.4,0.9,0.5,1.4c0.1,0.5,0.1,0.9,0,1.3c-0.1,0.4-0.3,0.8-0.5,1.2s-0.5,0.7-0.7,0.9c-0.2,0.2-0.5,0.5-0.9,0.9
		c-0.6,0.5-1,1-1.2,1.3c-0.2,0.3-0.3,0.7-0.3,1c0,0.4,0.1,0.7,0.3,0.9c0.3,0.2,1,0.2,2.2-0.2c1.4-0.4,2.8-1.1,4-2.3l2.1,2.3
		C127.2,332.9,125.4,334,123.4,334.4z"/>
	<path class="st2" d="M143.6,329.1l2,2.4c-2,1.8-4.1,2.8-6.3,3.1c-0.6,0.1-1.6,0.1-3.3,0.2c-0.9,0-1.8,0.1-2.7,0.1
		c-0.1,0-0.2,0-0.3,0h-0.2h0c-1.2,0-2.4-0.3-3.5-0.9s-1.9-1.4-2.5-2.5c-0.6-1.1-0.9-2.2-0.9-3.5c0-1.9,0.7-3.5,2-4.9
		c1.3-1.3,3-2,4.9-2s3.5,0.7,4.9,2c1.3,1.3,2,3,2,4.9c0,1.3-0.3,2.5-1,3.6c0,0,0.1,0,0.1,0C140.4,331.3,142,330.5,143.6,329.1z
		 M135.6,330.6c0.7-0.7,1.1-1.6,1.1-2.6s-0.4-1.9-1.1-2.7c-0.7-0.7-1.6-1.1-2.7-1.1c-1,0-1.9,0.4-2.7,1.1c-0.7,0.7-1.1,1.6-1.1,2.7
		s0.4,1.9,1.1,2.7c0.7,0.7,1.6,1.1,2.7,1.1h0h0C134,331.7,134.8,331.3,135.6,330.6z"/>
	<path class="st2" d="M159.6,329.1l2,2.4c-2.6,2.2-4.8,3.3-6.7,3.3c-0.8,0-1.5-0.2-2-0.7c-0.8-0.6-1.1-1.6-1.1-3v-0.8
		c0,0,0,0.1-0.1,0.1c-0.2,0.3-0.5,0.6-0.8,0.9c-0.3,0.4-0.8,0.8-1.4,1.4c-0.6,0.6-1.3,1.1-2,1.5c-0.7,0.4-1.4,0.6-2,0.6
		c-0.5,0-0.9-0.1-1.2-0.3c-1-0.5-1.4-1.6-1.4-3.1l0.3-10.3h3.1l-0.3,10.4c1.1-0.6,2.1-1.6,3.2-3c1.6-2,2.5-4.4,2.8-7.3v-0.1h3.1v0.1
		v0.2l-0.2,9.9c0,0.2,0,0.3,0,0.5c0.4,0,1-0.2,1.8-0.6S158.5,330,159.6,329.1z M153.6,316.7l0.4,0.4c-1.2,1.2-2.7,1.9-4.4,2.2
		c-0.4,0.1-0.8,0.1-1.1,0.1c-1.4,0-2.7-0.4-4-1.1l0.9-1.6l0.6-1.1c1,0.6,2,0.8,3.2,0.6c1-0.1,1.9-0.6,2.7-1.3L153.6,316.7z"/>
	<path class="st2" d="M185.6,327.1l2.1,2.4c-1.1,1-2.2,1.8-3.3,2.4c-0.7,0.5-1.7,1-2.8,1.5c-0.3,0.2-0.6,0.3-0.9,0.5
		c-0.3,2.1-0.7,3.9-1.2,5.5c-0.6,1.6-1.2,2.8-1.9,3.6c-0.5,0.6-1.1,1.1-1.7,1.5c-1.1,0.8-2.3,1.4-3.7,1.8c-0.1,0-0.3,0.1-0.4,0.1
		c-0.4,0-0.7-0.1-0.9-0.3c-0.4-0.3-0.6-0.7-0.6-1.2c0-1.3,0.1-2.6,0.5-3.8c1-3.4,3.3-6.3,7.1-8.9l0-0.2c-1,0.6-2,0.9-3,0.9
		c-0.1,0-0.3,0-0.5,0c-0.7-0.1-1.3-0.3-2-0.6c-0.6-0.4-1.1-0.7-1.3-1c-0.3-0.3-0.5-0.6-0.7-0.8c-0.6-0.8-0.9-1.7-1-2.7
		c-0.1-1-0.1-1.9,0.1-2.8c0.2-0.9,0.5-1.6,1-2.3c1-1.6,2.5-2.7,4.6-3.2s4.2-0.4,6.4,0.3l-1,3c-1.5-0.5-2.9-0.6-4.3-0.3
		c-1.4,0.3-2.4,1-3,1.9c-0.2,0.3-0.4,0.7-0.5,1.2s-0.2,1-0.1,1.6c0,0.6,0.2,1.1,0.5,1.5c0.5,0.7,1.1,1.1,1.8,1.1
		c0.6,0.1,1.2-0.2,1.9-0.7c0.6-0.5,1.1-1.2,1.4-2.1l0-2.9l3.1,0l-0.1,6.2c0.7-0.4,1.3-0.7,1.7-1C183.7,328.7,184.6,328,185.6,327.1z
		 M175.2,340.8c0.7-0.7,1.3-2.1,1.8-4.2c-1.7,1.6-2.8,3.3-3.3,5.1c0,0.2-0.1,0.3-0.1,0.4c0.1-0.1,0.3-0.2,0.4-0.3h0v0
		C174.5,341.6,174.9,341.2,175.2,340.8z"/>
	<path class="st2" d="M202.7,327.1l2,2.4c-2.6,2.2-4.8,3.3-6.7,3.3c-0.8,0-1.5-0.2-2-0.7c-0.8-0.6-1.2-1.6-1.1-3l0-1
		c0,0-0.1,0.1-0.1,0.2c-2.3,3-4.4,4.5-6.2,4.5c-0.4,0-0.8-0.1-1.2-0.2c-0.5-0.2-0.8-0.5-1.2-0.9s-0.6-0.8-0.7-1.2
		c-0.2-0.4-0.3-0.9-0.4-1.4c-0.1-0.5-0.1-1-0.2-1.3c0-0.4,0-0.7,0-1.1l3.1,0.1c0,0.5,0,1,0.1,1.4c0.1,0.5,0.2,0.8,0.2,1.1
		c0.1,0.3,0.2,0.4,0.3,0.5c0.2,0,0.6-0.2,1.1-0.6c0.8-0.6,1.6-1.5,2.5-2.7c1.6-2,2.5-4.5,2.8-7.4h3.2l-0.3,10.2c0,0.2,0,0.3,0,0.5
		c0.4,0,1-0.2,1.8-0.6S201.6,328,202.7,327.1z"/>
	<path class="st2" d="M219.3,327.1l2,2.4c-2.6,2.2-4.8,3.3-6.7,3.3c-0.8,0-1.5-0.2-2-0.7c-0.5-0.4-0.9-1-1-1.7
		c-0.7,0.7-1.5,1.3-2.4,1.7c-0.9,0.5-1.8,0.7-2.7,0.7c-0.8,0-1.6-0.2-2.2-0.6c-0.8-0.5-1.5-1.3-1.9-2.4c-0.4-1.1-0.5-2.3-0.4-3.6
		l3.1,0.4c-0.1,0.6,0,1.2,0.1,1.8c0.2,0.6,0.4,0.9,0.7,1.1c0.4,0.2,0.9,0.2,1.6-0.1c0.7-0.3,1.3-0.7,1.9-1.3c-0.3-0.1-0.7-0.2-1-0.3
		c-1-0.5-1.7-1.3-2-2.3c-0.4-1-0.5-2-0.2-2.9c0.4-1.4,1.3-2.4,2.8-3.1c1.5-0.7,3.2-0.8,5-0.4l-0.7,3c-1-0.2-1.9-0.2-2.7,0.1
		c-0.8,0.3-1.3,0.7-1.4,1.1c0,0.1,0,0.2,0,0.4c0,0.2,0,0.3,0.1,0.5c0,0.2,0.1,0.3,0.2,0.5c0.1,0.1,0.3,0.3,0.4,0.3
		c0.5,0.2,1,0.2,1.5-0.2v-1h3.1v5.4v0c0,0.2,0,0.3,0,0.5c0.4,0,1-0.2,1.8-0.6C217.3,328.6,218.2,328,219.3,327.1z"/>
	<path class="st2" d="M243.5,327.1l2,2.4c-2.6,2.2-4.8,3.3-6.7,3.3c-0.8,0-1.5-0.2-2-0.7c-0.8-0.6-1.2-1.6-1.1-3l0-0.8
		c-0.6,0.2-1.2,0.4-1.8,0.5c-0.4,0.1-0.8,0.1-1.2,0.1c-0.6,0-1.1-0.1-1.7-0.2l-0.1,4.1h-3.1l0.2-13.8h3.1l-0.1,6.4
		c0.8,0.2,1.5,0.3,2.3,0.2c0.9-0.1,1.7-0.5,2.4-1l0.2-5.6h3.1l-0.3,10.2c0,0.2,0,0.4,0,0.5c0.4,0,1-0.2,1.8-0.6
		S242.4,328,243.5,327.1z"/>
	<path class="st2" d="M259.2,327.1l2,2.4c-2.6,2.2-4.8,3.3-6.7,3.3c-0.8,0-1.5-0.2-2-0.7c-0.2-0.2-0.4-0.4-0.6-0.7
		c-1.1,0.9-2.3,1.3-3.6,1.3c-0.1,0-0.3,0-0.5,0c-0.7-0.1-1.3-0.3-2-0.6c-0.6-0.4-1.1-0.7-1.3-1c-0.3-0.3-0.5-0.6-0.7-0.9
		c-0.6-0.8-0.9-1.6-1-2.6c-0.1-1-0.1-1.9,0.1-2.8c0.2-0.9,0.5-1.6,1-2.3c1-1.6,2.5-2.7,4.6-3.2c2.1-0.6,4.2-0.5,6.4,0.3l-1,2.9
		c-1.5-0.5-2.9-0.6-4.3-0.3c-1.4,0.3-2.4,0.9-3,1.9c-0.2,0.4-0.4,0.8-0.5,1.2c-0.1,0.5-0.2,1-0.1,1.5c0,0.6,0.2,1.1,0.5,1.5
		c0.5,0.7,1.1,1.1,1.8,1.1c0.6,0,1.2-0.2,1.9-0.7c0.6-0.5,1.1-1.2,1.5-2.1l0.1-3.2l3.1,0.1l-0.2,5.4c0,0.2,0,0.3,0,0.4h0
		c0.2,0,0.5-0.1,0.9-0.2c0.4-0.1,0.9-0.4,1.6-0.8C257.8,328.3,258.5,327.8,259.2,327.1z"/>
	<path class="st2" d="M268.8,332.5c-1,0.2-1.8,0.3-2.5,0.3c-0.9,0-1.7-0.1-2.5-0.4c-1.4-0.4-2.6-1.1-3.4-2c-0.1-0.1-0.1-0.2-0.2-0.3
		c-0.1-0.1-0.2-0.3-0.4-0.5c-0.2-0.2-0.3-0.5-0.5-0.8c-0.1-0.3-0.3-0.6-0.4-0.9c-0.1-0.4-0.3-0.7-0.3-1.1c-0.1-0.4-0.1-0.8-0.1-1.3
		s0.1-0.9,0.2-1.4c0.4-1.6,1.4-2.9,2.9-4c1.5-1,3-1.4,4.7-1.2c1.3,0.2,2.4,0.8,3.5,1.8l-2.2,2.2c-0.6-0.5-1.1-0.8-1.8-0.9
		c-0.8-0.1-1.7,0.1-2.5,0.7c-0.8,0.6-1.3,1.3-1.5,2.1c-0.1,0.5-0.1,1.1,0.1,1.7s0.3,1,0.5,1.2s0.3,0.4,0.4,0.5
		c0.5,0.5,1.1,0.8,2,1.1c1,0.3,2.1,0.3,3.5,0c1.7-0.4,3.2-1.1,4.7-2.4l2,2.4C273.1,331,271,332,268.8,332.5z"/>
	<path class="st2" d="M35.9,366.1l2,2.4c-2,1.8-4.1,2.8-6.3,3.1c-0.6,0.1-1.6,0.2-3.3,0.2c-0.9,0-1.8,0-2.7,0h-0.5v0
		c-1.2,0-2.3-0.4-3.2-1.1c-0.7-0.5-1.2-1-1.6-1.8s-0.7-1.3-0.8-1.8c-0.1-0.4-0.2-0.9-0.2-1.3l3.1-0.3c0.1,1.1,0.5,2,1.3,2.5
		c0.6,0.5,1.4,0.6,2.3,0.4c0.9-0.2,1.7-0.6,2.2-1.2c0.5-0.6,0.7-1.2,0.8-2s-0.1-1.5-0.4-2.2c-0.1-0.2-0.3-0.5-0.5-0.7
		c-0.2-0.2-0.4-0.4-0.6-0.5c-0.2-0.1-0.4-0.3-0.6-0.4c-0.2-0.1-0.4-0.2-0.6-0.2c-0.2-0.1-0.3-0.1-0.5-0.1c-0.2,0-0.3-0.1-0.4-0.1
		s-0.1,0-0.2,0l-0.1-3.1c0.5-0.1,0.9-0.3,1.2-0.6c0.3-0.3,0.5-0.6,0.4-1c0-0.1,0-0.3-0.1-0.4c-0.1-0.1-0.1-0.3-0.2-0.4
		c-0.1-0.1-0.2-0.2-0.4-0.2c-0.2-0.1-0.5-0.1-0.8,0s-0.5,0.3-0.7,0.6l-2.6-1.7c0.5-0.9,1.3-1.5,2.3-1.8c1-0.4,1.9-0.4,2.9,0
		c0.8,0.3,1.5,0.8,2,1.5c0.5,0.7,0.8,1.5,0.8,2.4c0,1-0.3,2-1,2.9c1,0.7,1.8,1.5,2.3,2.5c0.6,1.1,0.8,2.2,0.8,3.4
		c0,1.2-0.3,2.3-0.9,3.3C32.9,368.2,34.4,367.4,35.9,366.1z"/>
	<path class="st2" d="M48.3,370.7c-1.7,0.7-3.3,1.1-4.8,1.1c-0.1,0-0.3,0-0.4,0c-1.9-0.1-3.5-0.5-4.7-1.4c-1-0.7-1.8-1.5-2.3-2.4
		c-0.6-1-0.9-2-1-3c-0.1-1,0.1-2,0.5-2.9c0.4-1,1-1.8,1.7-2.4c1-0.8,2-1.3,3.2-1.5c1.6-0.2,2.9,0.2,3.9,1c0.7,0.6,1.2,1.5,1.4,2.5
		c0.2,1,0.1,2-0.5,3.1c-0.6,1-1.4,1.6-2.4,2c-1,0.4-2.1,0.3-3.1-0.1l1.1-2.9c0.3,0.1,0.6,0.1,0.9,0c0.3-0.1,0.5-0.3,0.7-0.6
		c0.1-0.3,0.2-0.6,0.1-0.9c-0.1-0.3-0.2-0.5-0.4-0.7c-0.3-0.2-0.8-0.3-1.4-0.2c-0.5,0.1-1,0.3-1.5,0.7c-0.8,0.8-1.2,1.7-1.2,2.9
		c0.1,1.2,0.7,2.2,2,3c0.7,0.5,1.7,0.8,3,0.8c1.2,0,2.4-0.2,3.8-0.8c1-0.4,1.9-1,2.7-1.7l2.1,2.4C50.8,369.4,49.6,370.1,48.3,370.7z
		"/>
	<path class="st2" d="M68.5,368.7c0.4,0,1-0.2,1.8-0.6c0.8-0.4,1.8-1.1,2.9-2l2,2.4c-2.6,2.2-4.8,3.3-6.7,3.3c-0.8,0-1.5-0.2-2-0.7
		c-0.8-0.6-1.2-1.6-1.1-3v-0.5c-1,1.5-2.2,2.9-3.6,4.2h-3.2l0-0.5c0-1.3,0.1-3.2,0.2-5.8c-0.3,0.6-0.7,1.2-1.1,1.7
		c-0.4,0.6-0.8,1.1-1.1,1.5c-0.3,0.4-0.7,0.8-1.1,1.4c-0.5,0.5-1,1-1.5,1.2c-0.5,0.3-1,0.4-1.5,0.4c-0.2,0-0.5,0-0.8-0.1
		c-0.5-0.1-0.9-0.4-1.3-0.9c-0.4-0.4-0.6-1-0.8-1.6c-0.2-0.6-0.3-1.2-0.4-1.8c-0.1-0.6-0.1-1.2-0.1-1.9l3.1,0c0,1.3,0.1,2.4,0.4,3
		c0.5-0.4,1.4-1.4,2.4-3c1.5-2.2,2.7-4.7,3.7-7.5h3.3c-0.1,2-0.2,5.1-0.3,9.1c0.8-1.1,1.5-2.2,2.1-3.4c0.8-1.8,1.4-3.7,1.6-5.7h3.1
		l-0.2,10.2C68.4,368.4,68.4,368.6,68.5,368.7z"/>
	<path class="st2" d="M90.1,366.1l2,2.4c-2.6,2.2-4.8,3.3-6.7,3.3c-0.8,0-1.5-0.2-2-0.7c-0.8-0.6-1.2-1.6-1.1-3l0-1
		c0,0-0.1,0.1-0.1,0.2c-2.3,3-4.4,4.5-6.2,4.5c-0.4,0-0.8-0.1-1.2-0.2c-0.5-0.2-0.8-0.5-1.2-0.9c-0.3-0.4-0.6-0.8-0.7-1.2
		c-0.2-0.4-0.3-0.9-0.4-1.4c-0.1-0.5-0.1-1-0.2-1.3c0-0.4,0-0.7,0-1.1l3.1,0.1c0,0.5,0,1,0.1,1.4c0.1,0.5,0.2,0.8,0.2,1.1
		s0.2,0.4,0.3,0.5c0.2,0,0.6-0.2,1.1-0.6c0.8-0.6,1.6-1.5,2.5-2.7c1.6-2,2.5-4.5,2.8-7.4h3.2l-0.3,10.2c0,0.2,0,0.3,0,0.5
		c0.4,0,1-0.2,1.8-0.6S89,367,90.1,366.1z"/>
	<path class="st2" d="M106,366.1l2,2.4c-2.6,2.2-4.8,3.3-6.7,3.3c-0.8,0-1.5-0.2-2-0.7c-0.8-0.6-1.1-1.6-1.1-3v-0.8
		c0,0,0,0.1-0.1,0.1c-0.2,0.3-0.5,0.6-0.8,0.9c-0.3,0.4-0.8,0.8-1.4,1.4s-1.3,1.1-2,1.5c-0.7,0.4-1.4,0.6-2,0.6
		c-0.5,0-0.9-0.1-1.2-0.3c-1-0.5-1.4-1.6-1.4-3.1l0.3-10.3h3.1l-0.3,10.4c1.1-0.6,2.1-1.6,3.2-3c1.6-2,2.5-4.4,2.8-7.3v-0.1h3.1v0.1
		v0.2l-0.2,9.9c0,0.2,0,0.3,0,0.5c0.2,0,0.5-0.1,0.9-0.2c0.4-0.1,0.9-0.4,1.6-0.8C104.6,367.3,105.3,366.8,106,366.1z"/>
	<path class="st2" d="M130.2,366.1l2,2.4c-2.6,2.2-4.8,3.3-6.7,3.3c-0.8,0-1.5-0.2-2-0.7c-0.8-0.6-1.2-1.6-1.1-3l0-0.8
		c-0.6,0.2-1.2,0.4-1.8,0.5c-0.4,0.1-0.8,0.1-1.2,0.1c-0.6,0-1.1-0.1-1.7-0.2l-0.1,4.1h-3.1l0.2-13.8h3.1l-0.1,6.4
		c0.8,0.2,1.5,0.3,2.3,0.2c0.9-0.1,1.7-0.5,2.4-1l0.2-5.6h3.1l-0.3,10.2c0,0.2,0,0.4,0,0.5c0.4,0,1-0.2,1.8-0.6
		C128.2,367.7,129.2,367,130.2,366.1z"/>
	<path class="st2" d="M142.7,370.7c-1.7,0.7-3.3,1.1-4.8,1.1c-0.1,0-0.3,0-0.4,0c-1.9-0.1-3.5-0.5-4.7-1.4c-1-0.7-1.8-1.5-2.3-2.4
		c-0.6-1-0.9-2-1-3c-0.1-1,0.1-2,0.5-2.9c0.4-1,1-1.8,1.7-2.4c1-0.8,2-1.3,3.2-1.5c1.6-0.2,2.9,0.2,3.9,1c0.7,0.6,1.2,1.5,1.4,2.5
		c0.2,1,0.1,2-0.5,3.1c-0.6,1-1.4,1.6-2.4,2c-1,0.4-2.1,0.3-3.1-0.1l1.1-2.9c0.3,0.1,0.6,0.1,0.9,0c0.3-0.1,0.5-0.3,0.7-0.6
		c0.1-0.3,0.2-0.6,0.1-0.9c-0.1-0.3-0.2-0.5-0.4-0.7c-0.3-0.2-0.8-0.3-1.4-0.2c-0.5,0.1-1,0.3-1.5,0.7c-0.8,0.8-1.2,1.7-1.2,2.9
		c0.1,1.2,0.7,2.2,2,3c0.7,0.5,1.7,0.8,3,0.8c1.2,0,2.4-0.2,3.8-0.8c1-0.4,1.9-1,2.7-1.7l2.1,2.4C145.2,369.4,144,370.1,142.7,370.7
		z"/>
	<path class="st2" d="M163.4,366.1l2.1,2.4c-2.6,2.2-4.8,3.3-6.7,3.3c-0.8,0-1.5-0.2-2-0.7c-0.8-0.6-1.2-1.6-1.1-2.9v-5.8v0
		c0-0.2,0-0.3,0-0.5v-0.1c0-0.3-0.1-0.4-0.2-0.5c0,0-0.1,0-0.3,0s-0.3,0.1-0.5,0.2c-0.2,0.1-0.4,0.2-0.6,0.3
		c-0.2,0.1-0.4,0.3-0.6,0.4c-0.3,0.3-0.5,0.7-0.7,1.1l-0.2,8.4h-3.1l0.2-10c0-0.2-0.1-0.4-0.2-0.5c-0.1-0.1-0.4,0-0.8,0.2
		c-0.4,0.2-0.8,0.4-1.1,0.7c-0.4,0.3-0.6,0.8-0.8,1.3l-0.2,8.3h-3.1l0.2-13.8h3.1v0.9c0.8-0.4,1.6-0.7,2.3-0.7
		c0.8,0,1.5,0.2,2.2,0.6c0.2,0.1,0.4,0.3,0.6,0.6c0.6-0.4,1.1-0.7,1.8-0.9c0.6-0.2,1.2-0.3,1.9-0.2c0.7,0.1,1.2,0.3,1.7,0.6
		c0.8,0.6,1.3,1.5,1.4,2.8c0,0.1,0,0.2,0,0.4c0,0.1,0,0.3,0,0.4v0.3v5.5v0c0,0.2,0,0.4,0,0.5c0.4,0,1-0.2,1.8-0.6
		C161.4,367.7,162.4,367,163.4,366.1z"/>
	<path class="st2" d="M167.7,369.1c0.3-0.3,0.7-0.5,1.1-0.5c0.4,0,0.8,0.2,1.1,0.5c0.3,0.3,0.5,0.7,0.5,1.1s-0.2,0.8-0.5,1.1
		c-0.3,0.3-0.7,0.5-1.1,0.5c-0.4,0-0.8-0.2-1.1-0.5c-0.3-0.3-0.5-0.7-0.5-1.1S167.4,369.4,167.7,369.1z M169.7,348.3h3.1l-2.3,18.2
		l-3.1-0.1L169.7,348.3z"/>
	<path class="st2" d="M183.9,365l-4.7,4.7l-2.2-2.2l2.5-2.5l-2.5-2.5l2.2-2.2L183.9,365z M189.5,365l-4.7,4.7l-2.2-2.2l2.5-2.5
		l-2.5-2.5l2.2-2.2L189.5,365z"/>
</g>
</svg>
