<svg width="282" version="1.1" id="Слой_1" xmlns="http://www.w3.org/2000/svg" x="0" y="0" viewBox="0 0 286 433" style="enable-background:new 0 0 286 433" xml:space="preserve"><style>.st2{fill:#fff;stroke:#000;stroke-width:.75;stroke-miterlimit:10}</style><path d="M14.4 9.1h9.7L19.2 24h2.2l-1.6 4.9H.5L2.1 24h2.2L7 15.7l7.4-6.6zm-1.5 7.4-2.4 7.4h2.6l3.5-10.7-3.7 3.3zm8.7 12.4 5.3-16.2L32.4 9H43l-5.3 16.2-5.5 3.7H21.6zm7.9-5.5h2.6l3-9.3h-2.6l-3 9.3zm9.7 5.5 6.4-19.8h13.9L57.9 14h-7.7l-.6 2 7.3 4.5-2.7 8.4h-15zm8.9-8.4L47 23.9h2.6l.7-2.1-2.2-1.3zm8.3 8.4L62.9 9h14.9l-3.4 10.6-10.3 4.5-1.5 4.7h-6.2zm9.5-10.4 3-1.3 1.1-3.1h-2.6l-1.5 4.4zm7.4 10.4 5.3-16.2L84.1 9h10.6l-5.3 16.2-5.5 3.7H73.3zm7.9-5.5h2.6l3-9.3h-2.6l-3 9.3zm28.6-14.3h14.9L118.2 29H112l4.9-14.9h-2.6L109.4 29h-6.2l6.6-19.9zm11.1 19.8 5.3-16.2 5.5-3.7h10.6L137 25.2l-5.5 3.7h-10.6zm7.9-5.5h2.6l3-9.3h-2.6l-3 9.3zm24.8-14.3h5.9l-2.7 8.2 3.3-2.1 2-6.1h6l-2 6.1-4.9 3.4 2.6 3.6-2.2 6.7h-6l2.2-6.7L156 20l-2.9 9h-5.9l2.9-9-3.3 2.3-2.2 6.6h-6l2.2-6.7 4.9-3.6-2.6-3.4 2-6.1h6l-2 6.1 1.9 2.1 2.6-8.2zm10.7 19.8 4.3-13.3L176 9h9.6l-6.4 19.9H173l2.5-7.7h-2.6l-2.5 7.7h-6.1zM176.5 18l1.6-4.9-3.7 3.4-.5 1.4h2.6v.1zm15.4-1.5-4 12.3h-6.2l4.3-13.3 7.5-6.6h9.5l-6.4 19.9h-6.2l5.1-15.7-3.6 3.4zm7.4 12.4 5.3-16.2 5.5-3.7h10.6l-5.3 16.2-5.5 3.7h-10.6zm7.9-5.5h2.6l3-9.3h-2.6l-3 9.3zm9.7 5.5L223.3 9h14.9l-2.4 7.5-3.9 2 2.5 2.2-2.7 8.2h-14.8zm7.7-5.1h2.7l1.1-3.5h-2.7c.1 0-1.1 3.5-1.1 3.5zm5.9-9.9h-2.7l-1 3.2h2.7l1-3.2zm3.9 15 4.3-13.3 7.5-6.6h9.5l-6.4 19.9h-6.2l2.5-7.7H243l-2.5 7.7h-6.1zM246.7 18l1.6-4.9-3.7 3.4-.5 1.4h2.6v.1zm8.1 10.9 4.9-14.9h-4l1.6-4.9h14.3L270 14h-4l-5 14.9h-6.2zm12.2 0 6.4-19.8h6.2L278 14l7.1 4.1-3.5 10.8H267zm9.2-9.9-1.6 4.8h2.6l1.2-3.5-2.2-1.3z" style="fill:#0a4f7a;stroke:#ddd;stroke-width:.75;stroke-miterlimit:10"/><path d="m79.4 49.4 4.2-12.8h9.6l-1.6 4.9-2.5 1.3 1.6 1.4-1.7 5.3-9.6-.1zm5-3.2h1.7l.7-2.3h-1.7l-.7 2.3zm3.8-6.5h-1.7l-.6 2.1h1.7l.6-2.1zm10.6 9.7 4.2-12.8h7.6l-1.1 3.4h-3.6l-3 9.5-4.1-.1zm8.3 0 3.4-10.5 3.5-2.4h6.8L117.5 47l-3.5 2.4h-6.9zm5-3.5h1.7l2-6h-1.7l-2 6zm6.2 3.5 4.2-12.8h9.6l-2.2 6.8-6.6 2.9-1 3h-4v.1zm6.2-6.7 1.9-.9.7-2h-1.7l-.9 2.9zm4.7 6.7 3.4-10.5 3.5-2.4h6.8L139.4 47l-3.5 2.4h-6.7zm5.1-3.5h1.7l2-6h-1.7l-2 6zm14.4-9.3h6.3l-3.1 9.6h1.4l-1.1 3.2h-12.5l1.1-3.2h1.4l1.7-5.4 4.8-4.2zm-1 4.9-1.6 4.8h1.7l2.2-6.9c.1 0-2.3 2.1-2.3 2.1zm13 3h-5.2v-3.2h5.2v3.2zm-.3 4.9 4.2-12.8h7.6l-1.1 3.4h-3.6l-3 9.5-4.1-.1zm16.9 0h-8.5l4.2-12.8h8.5l-1.1 3.2H176l-.7 2.1h2l-.7 2.1h-2l-.7 2.1h4.5l-1.1 3.3zm1.3 0 4.2-12.8h9.6l-2.2 6.8-6.6 2.9-1 3h-4zm6.1-6.7 1.9-.9.7-2h-1.7c.1.1-.9 2.9-.9 2.9zm4.8 6.7 3.4-10.5 3.5-2.4h6.8L199.9 47l-3.5 2.4h-6.9zm5.1-3.5h1.7l2-6h-1.7l-2 6zm9.9-9.3h4l-2.1 6.5 3.3-3.2 1.1-3.2h4l-4.2 12.8h-4l1.4-4.2-4.3 4.2h-3.3l4.1-12.9zm4.1-.6-1.3-2.7h2.5l.5.9 1.1-.9h2.5l-3 2.7h-2.3z" style="fill:#0a4f7a;stroke:#f9f9f9;stroke-width:.5;stroke-miterlimit:10"/><path class="st2" d="m1.9 115.9 11.9-36.5h27.5l-4.5 13.9-7.1 3.7 4.7 4-4.9 15.1H1.9zm14.4-9.3h4.9l2.1-6.6h-4.9c0 .1-2.1 6.6-2.1 6.6zm10.8-18.4h-4.9l-1.9 5.9h4.9l1.9-5.9zm7.3 27.7L44.1 86l10.1-6.7h19.5L64 109.2l-10 6.7H34.4zm14.6-10h4.8l5.6-17.3h-4.8L49 105.9zm36.4-12.7L78 115.9H66.7l7.9-24.4 13.8-12.2H106l-11.9 36.6H82.8l9.4-29-6.8 6.3zm13.7 22.7L111 79.3h21.7l-3.1 9.6h-10.3l-8.8 27H99.1zm23.5 0 9.7-29.9 10.1-6.7H162l-9.7 29.9-10.1 6.7h-19.6zm14.6-10h4.8l5.6-17.3h-4.8l-5.6 17.3zm17.8 10 11.9-36.6h21.7l-3.1 9.6h-10.3l-8.8 27H155zm24.2 0 11.9-36.6h27.4l-6.4 19.6-18.8 8.4-2.8 8.6h-11.3zm17.5-19.1 5.6-2.4 1.9-5.7h-4.8l-2.7 8.1zm13.1 19.1 7.9-24.4 13.8-12.2h17.6l-11.9 36.6h-11.3l4.6-14.2h-4.8l-4.6 14.2h-11.3zm22.7-20.1 3-8.9-6.9 6.3-.9 2.6h4.8zm33.3-16.4h18l-8.9 27.5h4.2l-3 9.1h-35.8l3-9.1h4.2l5-15.4 13.3-12.1zm-2.7 13.9-4.4 13.7h4.8l6.4-19.8-6.8 6.1zM200.3 404.8l2.1 2.4c-2 1.8-4.1 2.8-6.3 3.1-.5.1-1.6.1-3.3.2-.9 0-1.8.1-2.7.1h-.5v-.1c-1.9 0-3.6-.6-5.1-1.8-.7-.6-1.2-1.3-1.7-2.1s-.7-1.5-.8-2-.2-1-.2-1.5l3.1-.2c.1 1.4.6 2.6 1.6 3.4.7.6 1.6 1 2.6 1.1s2-.1 2.9-.7c.9-.7 1.5-1.6 1.7-2.7s.1-2.1-.5-3c-.4-.6-.9-1-1.5-1.3-.7-.3-1.4-.5-2.1-.5-.3 0-.5.1-.7.1l-.2-3.1h.7c1-.2 1.8-.7 2.3-1.5.2-.5.4-.9.4-1.4s-.1-1-.4-1.6c-.3-.4-.6-.7-1.1-.9-.4-.2-.9-.3-1.4-.3-.4 0-.7.2-1.1.4-.4.2-.6.4-.7.5-.1.1-.2.3-.2.4l-2.7-1.6c.1-.2.3-.4.4-.6.2-.2.4-.5.8-.8.4-.3.8-.6 1.4-.9.5-.2 1.1-.4 1.8-.5 1-.1 2 .1 3 .6.9.5 1.7 1.1 2.3 2s.9 1.9.9 3.1-.3 2.2-.9 3.3c-.2.4-.5.7-.8 1.1 1 .6 1.7 1.3 2.3 2.2.8 1.2 1.1 2.6 1.1 4s-.5 2.8-1.3 4c1.8-.8 3.3-1.6 4.8-2.9z"/><path class="st2" d="m216.1 404.8 2 2.4c-2.6 2.2-4.8 3.3-6.7 3.3-.8 0-1.5-.2-2-.7-.2-.2-.4-.4-.6-.7-1.1.9-2.3 1.3-3.6 1.3h-.5c-.7-.1-1.3-.3-2-.6-.6-.4-1.1-.7-1.3-1-.3-.3-.5-.6-.7-.9-.6-.8-.9-1.6-1-2.6s-.1-1.9.1-2.8c.2-.9.5-1.6 1-2.3 1-1.6 2.5-2.7 4.6-3.2 2.1-.6 4.2-.5 6.4.3l-1 2.9c-1.5-.5-2.9-.6-4.3-.3s-2.4.9-3 1.9c-.2.4-.4.8-.5 1.2-.1.5-.2 1-.1 1.5 0 .6.2 1.1.5 1.5.5.7 1.1 1.1 1.8 1.1.6 0 1.2-.2 1.9-.7.6-.5 1.1-1.2 1.5-2.1l.1-3.2 3.1.1-.2 5.4v.4c.2 0 .5-.1.9-.2s.9-.4 1.6-.8c.6 0 1.3-.6 2-1.2z"/><path class="st2" d="m232 404.8 2 2.4c-2.6 2.2-4.8 3.3-6.7 3.3-.8 0-1.5-.2-2-.7-.8-.6-1.1-1.6-1.1-3v-.8s0 .1-.1.1c-.2.3-.5.6-.8.9-.3.4-.8.8-1.4 1.4s-1.3 1.1-2 1.5-1.4.6-2 .6c-.5 0-.9-.1-1.2-.3-1-.5-1.4-1.6-1.4-3.1l.3-10.3h3.1l-.3 10.4c1.1-.6 2.1-1.6 3.2-3 1.6-2 2.5-4.4 2.8-7.3v-.1h3.1v.3l-.2 9.9v.5c.4 0 1-.2 1.8-.6 1-.5 1.9-1.2 2.9-2.1zm-5.9-12.4.4.4c-1.2 1.2-2.7 1.9-4.4 2.2-.4.1-.8.1-1.1.1-1.4 0-2.7-.4-4-1.1l.9-1.6.6-1.1c1 .6 2 .8 3.2.6 1-.1 1.9-.6 2.7-1.3l1.7 1.8z"/><path class="st2" d="m249.6 404.8 2 2.4c-.9.8-1.8 1.6-2.8 2.4-1 .9-1.7 1.5-2 1.8-1.2 1.2-2.3 2.5-3.3 4l-2.7-1.6c.7-1.5 1-2.8.7-3.8 0-.1-.1-.4-.2-.6-.2-.6-.4-1.1-.6-1.5-.2-.7-.3-1.3-.4-2-.1.1-.1.2-.2.2-.2.3-.5.6-.8 1s-.8.8-1.4 1.4-1.3 1.1-2 1.5-1.4.6-2 .6c-.5 0-.9-.1-1.2-.3-1-.5-1.4-1.6-1.4-3.1l.3-10.3h3.1l-.3 10.4c1.1-.6 2.1-1.6 3.2-3 1.6-2 2.5-4.5 2.8-7.4h3.1l-.2 7.7c-.1.9 0 1.7.3 2.5.1.4.2.8.4 1.2.2.4.3.6.3.9 0 .1 0 .1.1.2l.1-.1c.3-.3 1-1 2.1-1.9 1.1-1 2-1.8 3-2.6z"/><path class="st2" d="M262 409.4c-1.7.7-3.3 1.1-4.8 1.1h-.4c-1.9-.1-3.5-.5-4.7-1.4-1-.7-1.8-1.5-2.3-2.4-.6-1-.9-2-1-3s.1-2 .5-2.9c.4-1 1-1.8 1.7-2.4 1-.8 2-1.3 3.2-1.5 1.6-.2 2.9.2 3.9 1 .7.6 1.2 1.5 1.4 2.5.2 1 .1 2-.5 3.1-.6 1-1.4 1.6-2.4 2s-2.1.3-3.1-.1l1.1-2.9c.3.1.6.1.9 0s.5-.3.7-.6c.1-.3.2-.6.1-.9s-.2-.5-.4-.7c-.3-.2-.8-.3-1.4-.2-.5.1-1 .3-1.5.7-.8.8-1.2 1.7-1.2 2.9.1 1.2.7 2.2 2 3 .7.5 1.7.8 3 .8 1.2 0 2.4-.2 3.8-.8 1-.4 1.9-1 2.7-1.7l2.1 2.4c-.9.7-2.1 1.4-3.4 2z"/><path class="st2" d="m280.3 404.8 2.1 2.4c-2 1.8-4.1 2.8-6.3 3.1-.6.1-1.6.1-3.3.2-.9 0-1.8.1-2.7.1h-.4c-1.9 0-3.5-.7-4.9-2-1.3-1.3-2-3-2-4.8-.1-2.5.2-4.8 1.1-7.1.2-.5.4-.9.5-1.3s.4-.8.7-1.5c.3-.6.8-1.3 1.3-1.9s1.1-1.2 1.7-1.8c1.6-1.4 3.5-2.4 5.7-3 .4-.1.8 0 1.2.2.4.2.6.6.7 1 .4 2 .4 4-.2 5.9-.2.8-.5 1.6-1 2.3-.4.7-.8 1.4-1.3 1.9-.4.5-.9 1-1.4 1.4s-.9.8-1.3 1-.7.4-1 .6l-1.5-2.7c.3-.2.7-.4 1-.7.3-.3.7-.6 1.2-1s.9-1 1.3-1.6c.4-.7.7-1.3.9-2.1.2-.8.4-1.7.3-2.6-1 .5-1.9 1-2.7 1.8-.7.6-1.2 1.2-1.8 1.9-.5.7-.8 1.3-1 1.7-.2.4-.4.9-.6 1.5-.7 1.9-1 3.8-.9 5.9 0 1 .4 1.9 1.1 2.7s1.6 1.1 2.7 1.1h.1c.5 0 .9-.1 1.4-.3.5-.2.9-.5 1.2-.8.7-.7 1.1-1.6 1.1-2.6v-.1c0-.5-.1-1-.3-1.5-.2-.5-.5-.9-.8-1.3l2.3-2.1c.6.7 1.1 1.4 1.4 2.3.4.9.5 1.8.5 2.7 0 1.3-.3 2.5-1 3.5h.1c1.7-.3 3.3-1 4.8-2.4zM152.7 406.4l.1-12.1h3.1l-.1 12.1c0 .2 0 .5-.1.8 0 .3-.1.7-.2 1.1-.1.5-.3.9-.7 1.4-.3.5-.7.9-1.2 1.2-.8.6-1.7.9-2.6.9-.4 0-.8-.1-1.2-.2-.6-.2-1.2-.7-1.7-1.3-1-1.3-1.4-2.8-1.5-4.6l3.1-.1c0 1.1.3 2.1.8 2.8.1.2.3.3.3.3.2.1.5 0 1-.3.7-.4.9-1.1.9-2z"/><path class="st2" d="m171 406.1 2 2.4c-2 1.8-4.1 2.8-6.3 3.1-.5.1-1.6.1-3.3.2-.9 0-1.8.1-2.7.1h-.5c-1.6 0-3-.5-4.2-1.5l1.9-2.5c.7.5 1.5.8 2.4.9h.3c1.2-.1 2.2-.5 2.9-1.4.5-.6.8-1.3.9-2.1.1-.8 0-1.5-.2-2-.4-1-1.2-1.8-2.3-2.3s-2.4-.7-3.6-.4l-.8-3c.8-.3 1.5-.7 2-1.3.5-.6.8-1.2.7-1.9 0-.7-.5-1.4-1.3-2-.2-.1-.4-.2-.5-.3-.9-.5-2-.6-3.3-.3-1.3.3-2.5 1-3.6 2l-1.9-2.1v-.4c1-.8 2-1.5 3.2-2s2.5-.8 3.7-.8c1.3 0 2.4.3 3.4.8l.9.6c.3.2.6.5 1.1.9.4.4.8.9 1 1.5.3.6.4 1.3.5 1.9.1 1.2-.3 2.4-1.1 3.6 1.1.4 2.1.9 3 1.7.9.8 1.5 1.6 1.9 2.7.4.8.6 1.8.5 3.1-.1 1.2-.4 2.3-.9 3.3 1.3-.5 2.8-1.2 4.2-2.5zM175.4 409.1c.3-.3.7-.5 1.1-.5s.8.2 1.1.5.5.7.5 1.1-.2.8-.5 1.1c-.3.3-.7.5-1.1.5s-.8-.2-1.1-.5-.5-.7-.5-1.1.1-.8.5-1.1zM11.1 330.4l-2.2 2.2-4.7-4.6 4.7-4.7 2.2 2.2-2.5 2.5 2.5 2.4zm5.5 0-2.2 2.2-4.7-4.6 4.7-4.7 2.2 2.2-2.5 2.5 2.5 2.4zM34.9 329.1l2 2.4c-2 1.8-4.1 2.8-6.3 3.1-.6.1-1.6.2-3.3.2h-3.2c-1.2 0-2.3-.4-3.2-1.1-.7-.5-1.2-1-1.6-1.8-.4-.7-.7-1.3-.8-1.8-.1-.4-.2-.9-.2-1.3l3.1-.3c.1 1.1.5 2 1.3 2.5.6.5 1.4.6 2.3.4.9-.2 1.7-.6 2.2-1.2.5-.6.7-1.2.8-2 .1-.8-.1-1.5-.4-2.2-.1-.2-.3-.5-.5-.7-.2-.2-.4-.4-.6-.5s-.4-.3-.6-.4c-.2-.1-.4-.2-.6-.2-.2-.1-.3-.1-.5-.1s-.3-.1-.4-.1h-.2l-.1-3.1c.5-.1.9-.3 1.2-.6.3-.3.5-.6.4-1 0-.1 0-.3-.1-.4-.1-.1-.1-.3-.2-.4-.1-.1-.2-.2-.4-.2-.2-.1-.5-.1-.8 0-.3.1-.5.3-.7.6l-2.6-1.7c.5-.9 1.3-1.5 2.3-1.8 1-.4 1.9-.4 2.9 0 .8.3 1.5.8 2 1.5s.8 1.5.8 2.4c0 1-.3 2-1 2.9 1 .7 1.8 1.5 2.3 2.5.6 1.1.8 2.2.8 3.4 0 1.2-.3 2.3-.9 3.3 1.8-.2 3.3-1 4.8-2.3z"/><path class="st2" d="m50.5 329.1 2 2.4c-2.6 2.2-4.8 3.3-6.7 3.3-.8 0-1.5-.2-2-.7-.2-.2-.4-.4-.6-.7-1.1.9-2.3 1.3-3.6 1.3h-.5c-.7-.1-1.3-.3-2-.6-.6-.4-1.1-.7-1.3-1-.3-.3-.5-.6-.7-.9-.6-.8-.9-1.6-1-2.6-.1-1-.1-1.9.1-2.8.2-.9.5-1.6 1-2.3 1-1.6 2.5-2.7 4.6-3.2 2.1-.6 4.2-.5 6.4.3l-1 2.9c-1.5-.5-2.9-.6-4.3-.3s-2.4.9-3 1.9c-.2.4-.4.8-.5 1.2-.1.5-.2 1-.1 1.5 0 .6.2 1.1.5 1.5.5.7 1.1 1.1 1.8 1.1.6 0 1.2-.2 1.9-.7.6-.5 1.1-1.2 1.5-2.1l.1-3.2 3.1.1-.2 5.4v.4c.2 0 .5-.1.9-.2s.9-.4 1.6-.8c.6 0 1.3-.5 2-1.2zM65.2 329.5l.1-12.1h3.1l-.1 12.1c0 .2 0 .5-.1.8 0 .3-.1.7-.2 1.1-.1.5-.3.9-.7 1.4-.3.5-.7.9-1.2 1.2-.8.6-1.7.9-2.6.9-.4 0-.8-.1-1.2-.2-.6-.2-1.2-.7-1.7-1.3-1-1.3-1.4-2.8-1.5-4.6l3.1-.1c0 1.1.3 2.1.8 2.8.1.2.3.3.3.3.2.1.5 0 1-.3.6-.5.9-1.1.9-2zm18.3-.4 2 2.4c-2 1.8-4.1 2.8-6.3 3.1-.5.1-1.6.1-3.3.2-.9 0-1.8.1-2.7.1h-.5c-1.6 0-3-.5-4.2-1.5l1.9-2.5c.7.5 1.5.8 2.4.9H73.1c1.2-.1 2.2-.5 2.9-1.4.5-.6.8-1.3.9-2.1.1-.8 0-1.5-.2-2-.4-1-1.2-1.8-2.3-2.3s-2.4-.7-3.6-.4l-.8-3c.8-.3 1.5-.7 2-1.3.5-.6.8-1.2.7-1.9 0-.7-.5-1.4-1.3-2-.2-.1-.4-.2-.5-.3-.9-.5-2-.6-3.3-.3-1.3.3-2.5 1-3.6 2l-1.9-2.1v-.7c1-.8 2-1.5 3.2-2 1.2-.5 2.5-.8 3.7-.8 1.3 0 2.4.3 3.4.8l.9.6c.3.2.6.5 1.1.9.4.4.8.9 1 1.5.3.6.4 1.3.5 1.9.1 1.2-.3 2.4-1.1 3.6 1.1.4 2.1.9 3 1.7.9.8 1.5 1.6 1.9 2.7.4.8.6 1.8.5 3.1-.1 1.2-.4 2.3-.9 3.3 1.3-.1 2.7-.9 4.2-2.2z"/><path class="st2" d="m100.4 329.1 2 2.4c-2 1.8-4.1 2.8-6.3 3.1-.6.1-1.6.1-3.3.2-.9 0-1.8.1-2.7.1h-.5c-1.2 0-2.4-.3-3.5-.9s-1.9-1.4-2.5-2.5c-.6-1.1-.9-2.2-.9-3.5 0-1.9.7-3.5 2-4.9 1.3-1.3 3-2 4.9-2s3.5.7 4.9 2c1.3 1.3 2 3 2 4.9 0 1.3-.3 2.5-1 3.6h.1c1.7-.3 3.2-1.1 4.8-2.5zm-8 1.5c.7-.7 1.1-1.6 1.1-2.6s-.4-1.9-1.1-2.7c-.7-.7-1.6-1.1-2.7-1.1-1 0-1.9.4-2.7 1.1-.7.7-1.1 1.6-1.1 2.7s.4 1.9 1.1 2.7c.7.7 1.6 1.1 2.7 1.1 1.1-.1 2-.5 2.7-1.2z"/><path class="st2" d="m117.5 329.1 2 2.4c-2.6 2.2-4.8 3.3-6.7 3.3-.8 0-1.5-.2-2-.7-.8-.6-1.2-1.6-1.1-3v-1s-.1.1-.1.2c-2.3 3-4.4 4.5-6.2 4.5-.4 0-.8-.1-1.2-.2-.5-.2-.8-.5-1.2-.9s-.6-.8-.7-1.2c-.2-.4-.3-.9-.4-1.4-.1-.5-.1-1-.2-1.3v-1.1l3.1.1c0 .5 0 1 .1 1.4.1.5.2.8.2 1.1.1.3.2.4.3.5.2 0 .6-.2 1.1-.6.8-.6 1.6-1.5 2.5-2.7 1.6-2 2.5-4.5 2.8-7.4h3.2l-.3 10.2v.5c.4 0 1-.2 1.8-.6s2-1.2 3-2.1z"/><path class="st2" d="M123.4 334.4c-1 .2-1.8.4-2.4.4-1 0-1.9-.3-2.5-.8-.4-.3-.7-.8-1-1.3-.3-.5-.4-.9-.4-1.2 0-.3-.1-.5-.1-.8 0-.5 0-1 .2-1.4.1-.5.4-.9.7-1.3.3-.4.6-.7.8-1l.9-.9c.8-.8 1.2-1.3 1.2-1.4 0-.1-.1-.1-.1-.2s-.1-.1-.2-.2-.1-.1-.2-.1c-.2-.1-.5.1-.9.5l-2.5-1.9c.5-.7 1.1-1.2 1.9-1.5.7-.3 1.5-.4 2.2-.2.5.1.9.3 1.3.6s.8.7 1 1.1c.3.4.4.9.5 1.4.1.5.1.9 0 1.3s-.3.8-.5 1.2-.5.7-.7.9l-.9.9c-.6.5-1 1-1.2 1.3-.2.3-.3.7-.3 1 0 .4.1.7.3.9.3.2 1 .2 2.2-.2 1.4-.4 2.8-1.1 4-2.3l2.1 2.3c-1.6 1.4-3.4 2.5-5.4 2.9z"/><path class="st2" d="m143.6 329.1 2 2.4c-2 1.8-4.1 2.8-6.3 3.1-.6.1-1.6.1-3.3.2-.9 0-1.8.1-2.7.1h-.5c-1.2 0-2.4-.3-3.5-.9s-1.9-1.4-2.5-2.5c-.6-1.1-.9-2.2-.9-3.5 0-1.9.7-3.5 2-4.9 1.3-1.3 3-2 4.9-2s3.5.7 4.9 2c1.3 1.3 2 3 2 4.9 0 1.3-.3 2.5-1 3.6h.1c1.6-.3 3.2-1.1 4.8-2.5zm-8 1.5c.7-.7 1.1-1.6 1.1-2.6s-.4-1.9-1.1-2.7c-.7-.7-1.6-1.1-2.7-1.1-1 0-1.9.4-2.7 1.1-.7.7-1.1 1.6-1.1 2.7s.4 1.9 1.1 2.7c.7.7 1.6 1.1 2.7 1.1 1.1-.1 1.9-.5 2.7-1.2z"/><path class="st2" d="m159.6 329.1 2 2.4c-2.6 2.2-4.8 3.3-6.7 3.3-.8 0-1.5-.2-2-.7-.8-.6-1.1-1.6-1.1-3v-.8s0 .1-.1.1c-.2.3-.5.6-.8.9-.3.4-.8.8-1.4 1.4-.6.6-1.3 1.1-2 1.5-.7.4-1.4.6-2 .6-.5 0-.9-.1-1.2-.3-1-.5-1.4-1.6-1.4-3.1l.3-10.3h3.1l-.3 10.4c1.1-.6 2.1-1.6 3.2-3 1.6-2 2.5-4.4 2.8-7.3v-.1h3.1V321.4l-.2 9.9v.5c.4 0 1-.2 1.8-.6s1.8-1.2 2.9-2.1zm-6-12.4.4.4c-1.2 1.2-2.7 1.9-4.4 2.2-.4.1-.8.1-1.1.1-1.4 0-2.7-.4-4-1.1l.9-1.6.6-1.1c1 .6 2 .8 3.2.6 1-.1 1.9-.6 2.7-1.3l1.7 1.8zM185.6 327.1l2.1 2.4c-1.1 1-2.2 1.8-3.3 2.4-.7.5-1.7 1-2.8 1.5-.3.2-.6.3-.9.5-.3 2.1-.7 3.9-1.2 5.5-.6 1.6-1.2 2.8-1.9 3.6-.5.6-1.1 1.1-1.7 1.5-1.1.8-2.3 1.4-3.7 1.8-.1 0-.3.1-.4.1-.4 0-.7-.1-.9-.3-.4-.3-.6-.7-.6-1.2 0-1.3.1-2.6.5-3.8 1-3.4 3.3-6.3 7.1-8.9v-.2c-1 .6-2 .9-3 .9h-.5c-.7-.1-1.3-.3-2-.6-.6-.4-1.1-.7-1.3-1-.3-.3-.5-.6-.7-.8-.6-.8-.9-1.7-1-2.7-.1-1-.1-1.9.1-2.8.2-.9.5-1.6 1-2.3 1-1.6 2.5-2.7 4.6-3.2s4.2-.4 6.4.3l-1 3c-1.5-.5-2.9-.6-4.3-.3s-2.4 1-3 1.9c-.2.3-.4.7-.5 1.2s-.2 1-.1 1.6c0 .6.2 1.1.5 1.5.5.7 1.1 1.1 1.8 1.1.6.1 1.2-.2 1.9-.7.6-.5 1.1-1.2 1.4-2.1v-2.9h3.1l-.1 6.2c.7-.4 1.3-.7 1.7-1 .8-.6 1.7-1.3 2.7-2.2zm-10.4 13.7c.7-.7 1.3-2.1 1.8-4.2-1.7 1.6-2.8 3.3-3.3 5.1 0 .2-.1.3-.1.4.1-.1.3-.2.4-.3.5-.2.9-.6 1.2-1z"/><path class="st2" d="m202.7 327.1 2 2.4c-2.6 2.2-4.8 3.3-6.7 3.3-.8 0-1.5-.2-2-.7-.8-.6-1.2-1.6-1.1-3v-1s-.1.1-.1.2c-2.3 3-4.4 4.5-6.2 4.5-.4 0-.8-.1-1.2-.2-.5-.2-.8-.5-1.2-.9s-.6-.8-.7-1.2c-.2-.4-.3-.9-.4-1.4-.1-.5-.1-1-.2-1.3v-1.1l3.1.1c0 .5 0 1 .1 1.4.1.5.2.8.2 1.1.1.3.2.4.3.5.2 0 .6-.2 1.1-.6.8-.6 1.6-1.5 2.5-2.7 1.6-2 2.5-4.5 2.8-7.4h3.2l-.3 10.2v.5c.4 0 1-.2 1.8-.6s1.9-1.2 3-2.1z"/><path class="st2" d="m219.3 327.1 2 2.4c-2.6 2.2-4.8 3.3-6.7 3.3-.8 0-1.5-.2-2-.7-.5-.4-.9-1-1-1.7-.7.7-1.5 1.3-2.4 1.7-.9.5-1.8.7-2.7.7-.8 0-1.6-.2-2.2-.6-.8-.5-1.5-1.3-1.9-2.4-.4-1.1-.5-2.3-.4-3.6l3.1.4c-.1.6 0 1.2.1 1.8.2.6.4.9.7 1.1.4.2.9.2 1.6-.1.7-.3 1.3-.7 1.9-1.3-.3-.1-.7-.2-1-.3-1-.5-1.7-1.3-2-2.3-.4-1-.5-2-.2-2.9.4-1.4 1.3-2.4 2.8-3.1 1.5-.7 3.2-.8 5-.4l-.7 3c-1-.2-1.9-.2-2.7.1-.8.3-1.3.7-1.4 1.1v.4c0 .2 0 .3.1.5 0 .2.1.3.2.5.1.1.3.3.4.3.5.2 1 .2 1.5-.2v-1h3.1v5.9c.4 0 1-.2 1.8-.6 1-.5 1.9-1.1 3-2zM243.5 327.1l2 2.4c-2.6 2.2-4.8 3.3-6.7 3.3-.8 0-1.5-.2-2-.7-.8-.6-1.2-1.6-1.1-3v-.8c-.6.2-1.2.4-1.8.5-.4.1-.8.1-1.2.1-.6 0-1.1-.1-1.7-.2l-.1 4.1h-3.1l.2-13.8h3.1l-.1 6.4c.8.2 1.5.3 2.3.2.9-.1 1.7-.5 2.4-1l.2-5.6h3.1l-.3 10.2v.5c.4 0 1-.2 1.8-.6s1.9-1.1 3-2z"/><path class="st2" d="m259.2 327.1 2 2.4c-2.6 2.2-4.8 3.3-6.7 3.3-.8 0-1.5-.2-2-.7-.2-.2-.4-.4-.6-.7-1.1.9-2.3 1.3-3.6 1.3h-.5c-.7-.1-1.3-.3-2-.6-.6-.4-1.1-.7-1.3-1-.3-.3-.5-.6-.7-.9-.6-.8-.9-1.6-1-2.6-.1-1-.1-1.9.1-2.8.2-.9.5-1.6 1-2.3 1-1.6 2.5-2.7 4.6-3.2 2.1-.6 4.2-.5 6.4.3l-1 2.9c-1.5-.5-2.9-.6-4.3-.3s-2.4.9-3 1.9c-.2.4-.4.8-.5 1.2-.1.5-.2 1-.1 1.5 0 .6.2 1.1.5 1.5.5.7 1.1 1.1 1.8 1.1.6 0 1.2-.2 1.9-.7.6-.5 1.1-1.2 1.5-2.1l.1-3.2 3.1.1-.2 5.4v.4c.2 0 .5-.1.9-.2s.9-.4 1.6-.8c.6 0 1.3-.5 2-1.2z"/><path class="st2" d="M268.8 332.5c-1 .2-1.8.3-2.5.3-.9 0-1.7-.1-2.5-.4-1.4-.4-2.6-1.1-3.4-2-.1-.1-.1-.2-.2-.3-.1-.1-.2-.3-.4-.5s-.3-.5-.5-.8c-.1-.3-.3-.6-.4-.9-.1-.4-.3-.7-.3-1.1-.1-.4-.1-.8-.1-1.3s.1-.9.2-1.4c.4-1.6 1.4-2.9 2.9-4 1.5-1 3-1.4 4.7-1.2 1.3.2 2.4.8 3.5 1.8l-2.2 2.2c-.6-.5-1.1-.8-1.8-.9-.8-.1-1.7.1-2.5.7s-1.3 1.3-1.5 2.1c-.1.5-.1 1.1.1 1.7s.3 1 .5 1.2.3.4.4.5c.5.5 1.1.8 2 1.1 1 .3 2.1.3 3.5 0 1.7-.4 3.2-1.1 4.7-2.4l2 2.4c-1.9 1.7-4 2.7-6.2 3.2zM35.9 366.1l2 2.4c-2 1.8-4.1 2.8-6.3 3.1-.6.1-1.6.2-3.3.2h-3.2c-1.2 0-2.3-.4-3.2-1.1-.7-.5-1.2-1-1.6-1.8s-.7-1.3-.8-1.8c-.1-.4-.2-.9-.2-1.3l3.1-.3c.1 1.1.5 2 1.3 2.5.6.5 1.4.6 2.3.4.9-.2 1.7-.6 2.2-1.2.5-.6.7-1.2.8-2s-.1-1.5-.4-2.2c-.1-.2-.3-.5-.5-.7-.2-.2-.4-.4-.6-.5-.2-.1-.4-.3-.6-.4-.2-.1-.4-.2-.6-.2-.2-.1-.3-.1-.5-.1s-.3-.1-.4-.1h-.2l-.1-3.1c.5-.1.9-.3 1.2-.6.3-.3.5-.6.4-1 0-.1 0-.3-.1-.4-.1-.1-.1-.3-.2-.4-.1-.1-.2-.2-.4-.2-.2-.1-.5-.1-.8 0s-.5.3-.7.6l-2.6-1.7c.5-.9 1.3-1.5 2.3-1.8 1-.4 1.9-.4 2.9 0 .8.3 1.5.8 2 1.5s.8 1.5.8 2.4c0 1-.3 2-1 2.9 1 .7 1.8 1.5 2.3 2.5.6 1.1.8 2.2.8 3.4 0 1.2-.3 2.3-.9 3.3 1.8-.2 3.3-1 4.8-2.3z"/><path class="st2" d="M48.3 370.7c-1.7.7-3.3 1.1-4.8 1.1h-.4c-1.9-.1-3.5-.5-4.7-1.4-1-.7-1.8-1.5-2.3-2.4-.6-1-.9-2-1-3-.1-1 .1-2 .5-2.9.4-1 1-1.8 1.7-2.4 1-.8 2-1.3 3.2-1.5 1.6-.2 2.9.2 3.9 1 .7.6 1.2 1.5 1.4 2.5.2 1 .1 2-.5 3.1-.6 1-1.4 1.6-2.4 2-1 .4-2.1.3-3.1-.1l1.1-2.9c.3.1.6.1.9 0 .3-.1.5-.3.7-.6.1-.3.2-.6.1-.9-.1-.3-.2-.5-.4-.7-.3-.2-.8-.3-1.4-.2-.5.1-1 .3-1.5.7-.8.8-1.2 1.7-1.2 2.9.1 1.2.7 2.2 2 3 .7.5 1.7.8 3 .8 1.2 0 2.4-.2 3.8-.8 1-.4 1.9-1 2.7-1.7l2.1 2.4c-.9.7-2.1 1.4-3.4 2z"/><path class="st2" d="M68.5 368.7c.4 0 1-.2 1.8-.6.8-.4 1.8-1.1 2.9-2l2 2.4c-2.6 2.2-4.8 3.3-6.7 3.3-.8 0-1.5-.2-2-.7-.8-.6-1.2-1.6-1.1-3v-.5c-1 1.5-2.2 2.9-3.6 4.2h-3.2v-.5c0-1.3.1-3.2.2-5.8-.3.6-.7 1.2-1.1 1.7-.4.6-.8 1.1-1.1 1.5-.3.4-.7.8-1.1 1.4-.5.5-1 1-1.5 1.2-.5.3-1 .4-1.5.4-.2 0-.5 0-.8-.1-.5-.1-.9-.4-1.3-.9-.4-.4-.6-1-.8-1.6-.2-.6-.3-1.2-.4-1.8-.1-.6-.1-1.2-.1-1.9h3.1c0 1.3.1 2.4.4 3 .5-.4 1.4-1.4 2.4-3 1.5-2.2 2.7-4.7 3.7-7.5H62c-.1 2-.2 5.1-.3 9.1.8-1.1 1.5-2.2 2.1-3.4.8-1.8 1.4-3.7 1.6-5.7h3.1l-.2 10.2c.1.3.1.5.2.6z"/><path class="st2" d="m90.1 366.1 2 2.4c-2.6 2.2-4.8 3.3-6.7 3.3-.8 0-1.5-.2-2-.7-.8-.6-1.2-1.6-1.1-3v-1s-.1.1-.1.2c-2.3 3-4.4 4.5-6.2 4.5-.4 0-.8-.1-1.2-.2-.5-.2-.8-.5-1.2-.9-.3-.4-.6-.8-.7-1.2-.2-.4-.3-.9-.4-1.4-.1-.5-.1-1-.2-1.3v-1.1l3.1.1c0 .5 0 1 .1 1.4.1.5.2.8.2 1.1s.2.4.3.5c.2 0 .6-.2 1.1-.6.8-.6 1.6-1.5 2.5-2.7 1.6-2 2.5-4.5 2.8-7.4h3.2l-.3 10.2v.5c.4 0 1-.2 1.8-.6s1.9-1.2 3-2.1z"/><path class="st2" d="m106 366.1 2 2.4c-2.6 2.2-4.8 3.3-6.7 3.3-.8 0-1.5-.2-2-.7-.8-.6-1.1-1.6-1.1-3v-.8s0 .1-.1.1c-.2.3-.5.6-.8.9-.3.4-.8.8-1.4 1.4s-1.3 1.1-2 1.5c-.7.4-1.4.6-2 .6-.5 0-.9-.1-1.2-.3-1-.5-1.4-1.6-1.4-3.1l.3-10.3h3.1l-.3 10.4c1.1-.6 2.1-1.6 3.2-3 1.6-2 2.5-4.4 2.8-7.3v-.1h3.1V358.4l-.2 9.9v.5c.2 0 .5-.1.9-.2s.9-.4 1.6-.8c.8-.5 1.5-1 2.2-1.7zM130.2 366.1l2 2.4c-2.6 2.2-4.8 3.3-6.7 3.3-.8 0-1.5-.2-2-.7-.8-.6-1.2-1.6-1.1-3v-.8c-.6.2-1.2.4-1.8.5-.4.1-.8.1-1.2.1-.6 0-1.1-.1-1.7-.2l-.1 4.1h-3.1l.2-13.8h3.1l-.1 6.4c.8.2 1.5.3 2.3.2.9-.1 1.7-.5 2.4-1l.2-5.6h3.1l-.3 10.2v.5c.4 0 1-.2 1.8-.6 1-.4 2-1.1 3-2z"/><path class="st2" d="M142.7 370.7c-1.7.7-3.3 1.1-4.8 1.1h-.4c-1.9-.1-3.5-.5-4.7-1.4-1-.7-1.8-1.5-2.3-2.4-.6-1-.9-2-1-3-.1-1 .1-2 .5-2.9.4-1 1-1.8 1.7-2.4 1-.8 2-1.3 3.2-1.5 1.6-.2 2.9.2 3.9 1 .7.6 1.2 1.5 1.4 2.5.2 1 .1 2-.5 3.1-.6 1-1.4 1.6-2.4 2-1 .4-2.1.3-3.1-.1l1.1-2.9c.3.1.6.1.9 0 .3-.1.5-.3.7-.6.1-.3.2-.6.1-.9-.1-.3-.2-.5-.4-.7-.3-.2-.8-.3-1.4-.2-.5.1-1 .3-1.5.7-.8.8-1.2 1.7-1.2 2.9.1 1.2.7 2.2 2 3 .7.5 1.7.8 3 .8 1.2 0 2.4-.2 3.8-.8 1-.4 1.9-1 2.7-1.7l2.1 2.4c-.9.7-2.1 1.4-3.4 2z"/><path class="st2" d="m163.4 366.1 2.1 2.4c-2.6 2.2-4.8 3.3-6.7 3.3-.8 0-1.5-.2-2-.7-.8-.6-1.2-1.6-1.1-2.9V361.8c0-.3-.1-.4-.2-.5h-.3c-.2 0-.3.1-.5.2l-.6.3c-.2.1-.4.3-.6.4-.3.3-.5.7-.7 1.1l-.2 8.4h-3.1l.2-10c0-.2-.1-.4-.2-.5-.1-.1-.4 0-.8.2s-.8.4-1.1.7c-.4.3-.6.8-.8 1.3l-.2 8.3h-3.1l.2-13.8h3.1v.9c.8-.4 1.6-.7 2.3-.7.8 0 1.5.2 2.2.6.2.1.4.3.6.6.6-.4 1.1-.7 1.8-.9.6-.2 1.2-.3 1.9-.2.7.1 1.2.3 1.7.6.8.6 1.3 1.5 1.4 2.8v7.1c.4 0 1-.2 1.8-.6.9-.4 1.9-1.1 2.9-2zM167.7 369.1c.3-.3.7-.5 1.1-.5.4 0 .8.2 1.1.5.3.3.5.7.5 1.1s-.2.8-.5 1.1c-.3.3-.7.5-1.1.5-.4 0-.8-.2-1.1-.5-.3-.3-.5-.7-.5-1.1s.2-.8.5-1.1zm2-20.8h3.1l-2.3 18.2-3.1-.1 2.3-18.1zM183.9 365l-4.7 4.7-2.2-2.2 2.5-2.5-2.5-2.5 2.2-2.2 4.7 4.7zm5.6 0-4.7 4.7-2.2-2.2 2.5-2.5-2.5-2.5 2.2-2.2 4.7 4.7z"/></svg>