<svg width="460" version="1.1" id="Слой_1" xmlns="http://www.w3.org/2000/svg" x="0" y="0" viewBox="0 0 460 350" style="enable-background:new 0 0 460 350" xml:space="preserve"><style>.st0,.st1,.st2{fill:#0a4f7a;stroke:#ddd;stroke-width:.75;stroke-miterlimit:10}.st1,.st2{stroke:#000;stroke-width:.5}.st2{fill:#fff;stroke-width:.75}</style><path class="st0" d="M22.8 4.7h15.6l-7.8 24h3.6l-2.6 7.9H.5l2.6-7.9h3.6l4.4-13.4L22.8 4.7zm-2.3 12-3.9 11.9h4.2l5.6-17.2-5.9 5.3zM34.5 36.5l8.5-26 8.8-5.9h17l-8.5 26-8.8 5.9h-17zm12.7-8.7h4.2l4.9-15h-4.2l-4.9 15zM62.8 36.5 73.1 4.7h22.3l-2.6 7.9H80.4l-1 3.2L91.1 23l-4.4 13.5H62.8zM77 23l-1.8 5.5h4.2l1.1-3.4L77 23zM90.4 36.5l10.4-31.9h23.9l-5.5 17.1-16.5 7.3-2.4 7.5h-9.9zm15.2-16.6 4.9-2.1 1.7-5H108l-2.4 7.1zM117.5 36.5l8.5-26 8.8-5.9h17l-8.5 26-8.8 5.9h-17zm12.7-8.7h4.2l4.9-15h-4.2l-4.9 15zM176.1 4.7H200l-10.4 31.9h-9.9l7.8-24h-4.2l-7.8 24h-9.9l10.5-31.9zM194 36.5l8.5-26 8.8-5.9h17l-8.5 26-8.8 5.9h-17zm12.7-8.7h4.2l4.9-15h-4.2l-4.9 15zM246.5 4.7h9.5l-4.3 13.2 5.3-3.4 3.2-9.8h9.7l-3.2 9.8-7.8 5.5 4.2 5.8-3.5 10.8h-9.7l3.5-10.7-3-3.7-4.7 14.4h-9.5l4.7-14.4-5.3 3.7-3.6 10.6h-9.7l3.5-10.8 7.8-5.8-4.2-5.5 3.2-9.8h9.7l-3.2 9.8 3.1 3.4 4.3-13.1zM263.7 36.5l6.9-21.3 12-10.6H298l-10.3 31.9h-9.9l4-12.3h-4.2l-4 12.3h-9.9zM283.4 19l2.6-7.8-6 5.5-.8 2.3h4.2zM308.1 16.7l-6.4 19.8h-9.9l6.9-21.3 12-10.6H326l-10.3 31.9h-9.9l8.2-25.3-5.9 5.5zM320 36.5l8.5-26 8.8-5.9h17l-8.5 26-8.8 5.9h-17zm12.7-8.7h4.2l4.9-15h-4.2l-4.9 15zM348.2 36.5l10.3-31.9h24l-3.9 12.1-6.2 3.2 4 3.5-4.3 13.1h-23.9zm12.5-8.1h4.3l1.8-5.7h-4.3l-1.8 5.7zm9.5-16h-4.3l-1.6 5.1h4.3l1.6-5.1zM376.4 36.5l6.9-21.3 12-10.6h15.3l-10.3 31.9h-9.9l4-12.3h-4.2l-4 12.3h-9.8zM396.1 19l2.6-7.8-6 5.5-.8 2.3h4.2zM409.2 36.5l7.8-24h-6.5l2.6-7.9H436l-2.6 7.9h-6.5l-7.8 24h-9.9zM428.7 36.5 439 4.7h9.9l-2.6 7.9 11.4 6.6-5.7 17.3h-23.3zm14.9-15.8-2.5 7.7h4.2l1.9-5.6-3.6-2.1z"/><path class="st1" d="m127.4 69.5 6.7-20.5h15.5l-2.5 7.8-4 2.1 2.6 2.2-2.8 8.5h-15.5zm8-5.2h2.8l1.2-3.7h-2.8l-1.2 3.7zm6.1-10.3h-2.8l-1 3.3h2.8l1-3.3zM158.5 69.5l6.7-20.5h12.2l-1.7 5.4h-5.8L165 69.6h-6.5zM171.8 69.5l5.5-16.8 5.7-3.8h11l-5.5 16.8-5.7 3.8h-11zm8.1-5.6h2.7l3.2-9.7h-2.7l-3.2 9.7zM189.9 69.5l6.7-20.5H212l-3.6 11-10.6 4.7-1.6 4.8h-6.3zm9.9-10.7 3.1-1.4 1.1-3.2h-2.7l-1.5 4.6zM207.4 69.5l5.5-16.8 5.7-3.8h11L224 65.8l-5.7 3.8h-10.9zm8.2-5.6h2.7l3.2-9.7h-2.7l-3.2 9.7zM238.6 49h10.1l-5 15.5h2.3l-1.7 5.1h-20.1l1.7-5.1h2.3l2.8-8.6 7.6-6.9zm-1.5 7.8-2.5 7.7h2.7l3.6-11.1-3.8 3.4zM258 61.7h-8.3v-5.2h8.3v5.2zM257.5 69.5l6.7-20.5h12.2l-1.7 5.4h-5.8L264 69.6h-6.5zM284.7 69.5H271l6.7-20.5h13.7l-1.7 5.1h-7.2l-1.1 3.4h3.2l-1.1 3.4h-3.2l-1.1 3.3h7.2l-1.7 5.3zM286.8 69.5l6.7-20.5h15.4l-3.6 11-10.6 4.7-1.6 4.8h-6.3zm9.8-10.7 3.1-1.4 1.1-3.2h-2.7l-1.5 4.6zM304.3 69.5l5.5-16.8 5.7-3.8h11L321 65.7l-5.7 3.8h-11zm8.2-5.6h2.7l3.2-9.7h-2.7l-3.2 9.7zM328.3 49h6.4l-3.4 10.4 5.3-5.2 1.7-5.2h6.4L338 69.5h-6.4l2.2-6.8-6.9 6.8h-5.3l6.7-20.5zm6.7-1-2.1-4.3h4l.8 1.5 1.7-1.5h4l-4.9 4.3H335z"/><path class="st2" d="m4.1 238.7 18.9-58h43.7l-7.1 22-11.3 5.8 7.4 6.3-7.8 23.9H4.1zm22.8-14.8h7.8l3.4-10.4h-7.8l-3.4 10.4zm17.2-29.2h-7.8l-3 9.3h7.8l3-9.3zM55.7 238.7l15.4-47.4 16-10.7h31L102.7 228l-16 10.7h-31zm23.1-15.9h7.6l8.9-27.4h-7.6l-8.9 27.4zM136.6 202.6l-11.7 36.1h-18l12.6-38.8 21.9-19.3h27.9l-18.9 58.1h-18l15-46.1-10.8 10zM158.3 238.7l18.9-58.1h34.4l-4.9 15.2h-16.4l-13.9 42.9h-18.1zM195.7 238.7l15.4-47.4 16-10.7h31L242.7 228l-16 10.7h-31zm23.1-15.9h7.6l8.9-27.4h-7.6l-8.9 27.4zM247.1 238.7l18.9-58.1h34.4l-4.9 15.2h-16.4l-13.9 42.9h-18.1zM285.5 238.7l18.9-58.1h43.5l-10.1 31.1-29.9 13.3-4.4 13.7h-18zm27.8-30.3 8.9-3.8 3-9.1h-7.6l-4.3 12.9zM334.1 238.7l12.6-38.8 21.9-19.3h27.9l-18.9 58.1h-18l7.3-22.5h-7.6l-7.3 22.5h-17.9zm35.9-31.9 4.7-14.2-10.9 10-1.4 4.2h7.6zM422.9 180.7h28.5l-14.2 43.7h6.6l-4.7 14.4h-56.8l4.7-14.4h6.6l8-24.4 21.3-19.3zm-4.3 22-7 21.7h7.6l10.2-31.4-10.8 9.7zM12.7 302.8l-2.2 2.2-4.7-4.7 4.7-4.7 2.2 2.2-2.4 2.5 2.4 2.5zm5.6 0-2.2 2.2-4.7-4.7 4.7-4.7 2.2 2.2-2.5 2.5 2.5 2.5zM36.6 301.5l2 2.4c-2 1.8-4.1 2.8-6.3 3.1-.6.1-1.6.2-3.3.2h-3.2c-1.2 0-2.3-.4-3.2-1.1-.7-.5-1.2-1-1.6-1.8-.4-.7-.7-1.3-.8-1.8-.1-.4-.2-.9-.2-1.3l3.1-.3c.1 1.1.5 2 1.3 2.5.6.5 1.4.6 2.3.4.9-.2 1.7-.6 2.2-1.2.5-.6.7-1.2.8-2 .1-.8-.1-1.5-.4-2.2-.1-.2-.3-.5-.5-.7-.2-.2-.4-.4-.6-.5s-.4-.3-.6-.4c-.2-.1-.4-.2-.6-.2-.2-.1-.3-.1-.5-.1s-.3-.1-.4-.1h-.2l-.1-3.1c.5-.1.9-.3 1.2-.6.3-.3.5-.6.4-1 0-.1 0-.3-.1-.4-.1-.1-.1-.3-.2-.4-.1-.1-.2-.2-.4-.2-.2-.1-.5-.1-.8 0-.3.1-.5.3-.7.6l-2.6-1.7c.5-.9 1.3-1.5 2.3-1.8 1-.4 1.9-.4 2.9 0 .8.3 1.5.8 2 1.5s.8 1.5.8 2.4c0 1-.3 2-1 2.9 1 .7 1.8 1.5 2.3 2.5.6 1.1.8 2.2.8 3.4 0 1.2-.3 2.3-.9 3.3 1.8-.2 3.3-1 4.8-2.3z"/><path class="st2" d="m52.2 301.5 2 2.4c-2.6 2.2-4.8 3.3-6.7 3.3-.8 0-1.5-.2-2-.7-.2-.2-.4-.4-.6-.7-1.1.9-2.3 1.3-3.6 1.3h-.5c-.7-.1-1.3-.3-2-.6-.6-.4-1.1-.7-1.3-1-.3-.3-.5-.6-.7-.9-.6-.8-.9-1.6-1-2.6-.1-1-.1-1.9.1-2.8.2-.9.5-1.6 1-2.3 1-1.6 2.5-2.7 4.6-3.2 2.1-.6 4.2-.5 6.4.3l-1 2.9c-1.5-.5-2.9-.6-4.3-.3s-2.4.9-3 1.9c-.2.4-.4.8-.5 1.2-.1.5-.2 1-.1 1.5 0 .6.2 1.1.5 1.5.5.7 1.1 1.1 1.8 1.1.6 0 1.2-.2 1.9-.7.6-.5 1.1-1.2 1.5-2.1l.1-3.2 3.1.1-.2 5.4v.4c.2 0 .5-.1.9-.2s.9-.4 1.6-.8c.6 0 1.3-.6 2-1.2zM66.8 301.8l.1-12.1H70v12.1c0 .2 0 .5-.1.8 0 .3-.1.7-.2 1.1-.1.5-.3.9-.7 1.4-.3.5-.7.9-1.2 1.2-.8.6-1.7.9-2.6.9-.4 0-.8-.1-1.2-.2-.6-.2-1.2-.7-1.7-1.3-1-1.3-1.4-2.8-1.5-4.6l3.1-.1c0 1.1.3 2.1.8 2.8.1.2.3.3.3.3.2.1.5 0 1-.3.6-.4.8-1.1.8-2zm18.3-.3 2 2.4c-2 1.8-4.1 2.8-6.3 3.1-.5.1-1.6.1-3.3.2-.9 0-1.8.1-2.7.1h-.5c-1.6 0-3-.5-4.2-1.5l1.9-2.5c.7.5 1.5.8 2.4.9H74.7c1.2-.1 2.2-.5 2.9-1.4.5-.6.8-1.3.9-2.1.1-.8 0-1.5-.2-2-.4-1-1.2-1.8-2.3-2.3s-2.4-.7-3.6-.4l-.8-3c.8-.3 1.5-.7 2-1.3.5-.6.8-1.2.7-1.9 0-.7-.5-1.4-1.3-2-.2-.1-.4-.2-.5-.3-.9-.5-2-.6-3.3-.3-1.3.3-2.5 1-3.6 2l-1.9-2.1v-.4c1-.8 2-1.5 3.2-2 1.2-.5 2.5-.8 3.7-.8 1.3 0 2.4.3 3.4.8l.9.6c.3.2.6.5 1.1.9.4.4.8.9 1 1.5.3.6.4 1.3.5 1.9.1 1.2-.3 2.4-1.1 3.6 1.1.4 2.1.9 3 1.7.9.8 1.5 1.6 1.9 2.7.4.8.6 1.8.5 3.1-.1 1.2-.4 2.3-.9 3.3 1.3-.5 2.8-1.2 4.2-2.5z"/><path class="st2" d="m102 301.5 2 2.4c-2 1.8-4.1 2.8-6.3 3.1-.6.1-1.6.1-3.3.2-.9 0-1.8.1-2.7.1h-.5c-1.2 0-2.4-.3-3.5-.9s-1.9-1.4-2.5-2.5c-.6-1.1-.9-2.2-.9-3.5 0-1.9.7-3.5 2-4.9 1.3-1.3 3-2 4.9-2s3.5.7 4.9 2c1.3 1.3 2 3 2 4.9 0 1.3-.3 2.5-1 3.6h.1c1.7-.4 3.3-1.1 4.8-2.5zm-8 1.4c.7-.7 1.1-1.6 1.1-2.6s-.4-1.9-1.1-2.7c-.7-.7-1.6-1.1-2.7-1.1-1 0-1.9.4-2.7 1.1-.7.7-1.1 1.6-1.1 2.7s.4 1.9 1.1 2.7c.7.7 1.6 1.1 2.7 1.1 1.2-.1 2-.4 2.7-1.2z"/><path class="st2" d="m119.2 301.5 2 2.4c-2.6 2.2-4.8 3.3-6.7 3.3-.8 0-1.5-.2-2-.7-.8-.6-1.2-1.6-1.1-3v-1s-.1.1-.1.2c-2.3 3-4.4 4.5-6.2 4.5-.4 0-.8-.1-1.2-.2-.5-.2-.8-.5-1.2-.9s-.6-.8-.7-1.2c-.2-.4-.3-.9-.4-1.4-.1-.5-.1-1-.2-1.3v-1.1l3.1.1c0 .5 0 1 .1 1.4.1.5.2.8.2 1.1.1.3.2.4.3.5.2 0 .6-.2 1.1-.6.8-.6 1.6-1.5 2.5-2.7 1.6-2 2.5-4.5 2.8-7.4h3.2l-.3 10.2v.5c.4 0 1-.2 1.8-.6s1.9-1.2 3-2.1z"/><path class="st2" d="M125 306.8c-1 .2-1.8.4-2.4.4-1 0-1.9-.3-2.5-.8-.4-.3-.7-.8-1-1.3-.3-.5-.4-.9-.4-1.2 0-.3-.1-.5-.1-.8 0-.5 0-1 .2-1.4.1-.5.4-.9.7-1.3.3-.4.6-.7.8-1l.9-.9c.8-.8 1.2-1.3 1.2-1.4 0-.1-.1-.1-.1-.2s-.1-.1-.2-.2-.1-.1-.2-.1c-.2-.1-.5.1-.9.5l-2.5-1.9c.5-.7 1.1-1.2 1.9-1.5.7-.3 1.5-.4 2.2-.2.5.1.9.3 1.3.6s.8.7 1 1.1c.3.4.4.9.5 1.4.1.5.1.9 0 1.3s-.3.8-.5 1.2-.5.7-.7.9l-.9.9c-.6.5-1 1-1.2 1.3-.2.3-.3.7-.3 1 0 .4.1.7.3.9.3.2 1 .2 2.2-.2 1.4-.4 2.8-1.1 4-2.3l2.1 2.3c-1.6 1.4-3.4 2.4-5.4 2.9z"/><path class="st2" d="m145.2 301.5 2 2.4c-2 1.8-4.1 2.8-6.3 3.1-.6.1-1.6.1-3.3.2-.9 0-1.8.1-2.7.1h-.5c-1.2 0-2.4-.3-3.5-.9s-1.9-1.4-2.5-2.5c-.6-1.1-.9-2.2-.9-3.5 0-1.9.7-3.5 2-4.9 1.3-1.3 3-2 4.9-2s3.5.7 4.9 2c1.3 1.3 2 3 2 4.9 0 1.3-.3 2.5-1 3.6h.1c1.7-.4 3.3-1.1 4.8-2.5zm-8 1.4c.7-.7 1.1-1.6 1.1-2.6s-.4-1.9-1.1-2.7c-.7-.7-1.6-1.1-2.7-1.1-1 0-1.9.4-2.7 1.1-.7.7-1.1 1.6-1.1 2.7s.4 1.9 1.1 2.7c.7.7 1.6 1.1 2.7 1.1 1.1-.1 2-.4 2.7-1.2z"/><path class="st2" d="m161.2 301.5 2 2.4c-2.6 2.2-4.8 3.3-6.7 3.3-.8 0-1.5-.2-2-.7-.8-.6-1.1-1.6-1.1-3v-.8s0 .1-.1.1c-.2.3-.5.6-.8.9-.3.4-.8.8-1.4 1.4-.6.6-1.3 1.1-2 1.5-.7.4-1.4.6-2 .6-.5 0-.9-.1-1.2-.3-1-.5-1.4-1.6-1.4-3.1l.3-10.3h3.1l-.3 10.4c1.1-.6 2.1-1.6 3.2-3 1.6-2 2.5-4.4 2.8-7.3v-.1h3.1V293.8l-.2 9.9v.5c.4 0 1-.2 1.8-.6s1.9-1.2 2.9-2.1zm-5.9-12.4.4.4c-1.2 1.2-2.7 1.9-4.4 2.2-.4.1-.8.1-1.1.1-1.4 0-2.7-.4-4-1.1l.9-1.6.6-1.1c1 .6 2 .8 3.2.6 1-.1 1.9-.6 2.7-1.3l1.7 1.8zM186.3 301.5l2.1 2.4c-1.1 1-2.2 1.8-3.3 2.4-.7.5-1.7 1-2.8 1.5-.3.2-.6.3-.9.5-.3 2.1-.7 3.9-1.2 5.5-.6 1.6-1.2 2.8-1.9 3.6-.5.6-1.1 1.1-1.7 1.5-1.1.8-2.3 1.4-3.7 1.8-.1 0-.3.1-.4.1-.4 0-.7-.1-.9-.3-.4-.3-.6-.7-.6-1.2 0-1.3.1-2.6.5-3.8 1-3.4 3.3-6.3 7.1-8.9v-.2c-1 .6-2 .9-3 .9h-.5c-.7-.1-1.3-.3-2-.6-.6-.4-1.1-.7-1.3-1-.3-.3-.5-.6-.7-.8-.6-.8-.9-1.7-1-2.7-.1-1-.1-1.9.1-2.8.2-.9.5-1.6 1-2.3 1-1.6 2.5-2.7 4.6-3.2s4.2-.4 6.4.3l-1 3c-1.5-.5-2.9-.6-4.3-.3s-2.4 1-3 1.9c-.2.3-.4.7-.5 1.2s-.2 1-.1 1.6c0 .6.2 1.1.5 1.5.5.7 1.1 1.1 1.8 1.1.6.1 1.2-.2 1.9-.7.6-.5 1.1-1.2 1.4-2.1v-2.9h3.1l-.1 6.2c.7-.4 1.3-.7 1.7-1 .7-.6 1.7-1.4 2.7-2.2zm-10.4 13.7c.7-.7 1.3-2.1 1.8-4.2-1.7 1.6-2.8 3.3-3.3 5.1 0 .2-.1.3-.1.4.1-.1.3-.2.4-.3.4-.2.8-.6 1.2-1z"/><path class="st2" d="m203.3 301.5 2 2.4c-2.6 2.2-4.8 3.3-6.7 3.3-.8 0-1.5-.2-2-.7-.8-.6-1.2-1.6-1.1-3v-1s-.1.1-.1.2c-2.3 3-4.4 4.5-6.2 4.5-.4 0-.8-.1-1.2-.2-.5-.2-.8-.5-1.2-.9s-.6-.8-.7-1.2c-.2-.4-.3-.9-.4-1.4-.1-.5-.1-1-.2-1.3v-1.1l3.1.1c0 .5 0 1 .1 1.4.1.5.2.8.2 1.1.1.3.2.4.3.5.2 0 .6-.2 1.1-.6.8-.6 1.6-1.5 2.5-2.7 1.6-2 2.5-4.5 2.8-7.4h3.2l-.3 10.2v.5c.4 0 1-.2 1.8-.6s2-1.2 3-2.1z"/><path class="st2" d="m219.9 301.4 2 2.4c-2.6 2.2-4.8 3.3-6.7 3.3-.8 0-1.5-.2-2-.7-.5-.4-.9-1-1-1.7-.7.7-1.5 1.3-2.4 1.7-.9.5-1.8.7-2.7.7-.8 0-1.6-.2-2.2-.6-.8-.5-1.5-1.3-1.9-2.4-.4-1.1-.5-2.3-.4-3.6l3.1.4c-.1.6 0 1.2.1 1.8.2.6.4.9.7 1.1.4.2.9.2 1.6-.1.7-.3 1.3-.7 1.9-1.3-.3-.1-.7-.2-1-.3-1-.5-1.7-1.3-2-2.3-.4-1-.5-2-.2-2.9.4-1.4 1.3-2.4 2.8-3.1 1.5-.7 3.2-.8 5-.4l-.7 3c-1-.2-1.9-.2-2.7.1-.8.3-1.3.7-1.4 1.1v.4c0 .2 0 .3.1.5 0 .2.1.3.2.5.1.1.3.3.4.3.5.2 1 .2 1.5-.2v-1h3.1v5.9c.4 0 1-.2 1.8-.6 1-.4 2-1.1 3-2zM244.1 301.5l2 2.4c-2.6 2.2-4.8 3.3-6.7 3.3-.8 0-1.5-.2-2-.7-.8-.6-1.2-1.6-1.1-3v-.8c-.6.2-1.2.4-1.8.5-.4.1-.8.1-1.2.1-.6 0-1.1-.1-1.7-.2l-.1 4.1h-3.1l.2-13.8h3.1l-.1 6.4c.8.2 1.5.3 2.3.2.9-.1 1.7-.5 2.4-1l.2-5.6h3.1l-.3 10.2v.5c.4 0 1-.2 1.8-.6s2-1.1 3-2z"/><path class="st2" d="m259.9 301.5 2 2.4c-2.6 2.2-4.8 3.3-6.7 3.3-.8 0-1.5-.2-2-.7-.2-.2-.4-.4-.6-.7-1.1.9-2.3 1.3-3.6 1.3h-.5c-.7-.1-1.3-.3-2-.6-.6-.4-1.1-.7-1.3-1-.3-.3-.5-.6-.7-.9-.6-.8-.9-1.6-1-2.6-.1-1-.1-1.9.1-2.8.2-.9.5-1.6 1-2.3 1-1.6 2.5-2.7 4.6-3.2 2.1-.6 4.2-.5 6.4.3l-1 2.9c-1.5-.5-2.9-.6-4.3-.3s-2.4.9-3 1.9c-.2.4-.4.8-.5 1.2-.1.5-.2 1-.1 1.5 0 .6.2 1.1.5 1.5.5.7 1.1 1.1 1.8 1.1.6 0 1.2-.2 1.9-.7.6-.5 1.1-1.2 1.5-2.1l.1-3.2 3.1.1-.2 5.4v.4c.2 0 .5-.1.9-.2s.9-.4 1.6-.8c.6 0 1.3-.6 2-1.2z"/><path class="st2" d="M269.5 306.9c-1 .2-1.8.3-2.5.3-.9 0-1.7-.1-2.5-.4-1.4-.4-2.6-1.1-3.4-2-.1-.1-.1-.2-.2-.3-.1-.1-.2-.3-.4-.5s-.3-.5-.5-.8c-.1-.3-.3-.6-.4-.9s-.3-.7-.3-1.1c-.1-.4-.1-.8-.1-1.3s.1-.9.2-1.4c.4-1.6 1.4-2.9 2.9-4 1.5-1 3-1.4 4.7-1.2 1.3.2 2.4.8 3.5 1.8l-2.2 2.2c-.6-.5-1.1-.8-1.8-.9-.8-.1-1.7.1-2.5.7s-1.3 1.3-1.5 2.1c-.1.5-.1 1.1.1 1.7s.3 1 .5 1.2.3.4.4.5c.5.5 1.1.8 2 1.1 1 .3 2.1.3 3.5 0 1.7-.4 3.2-1.1 4.7-2.4l2 2.4c-2 1.7-4 2.7-6.2 3.2zM298.6 301.5l2 2.4c-2 1.8-4.1 2.8-6.3 3.1-.6.1-1.6.2-3.3.2h-3.2c-1.2 0-2.3-.4-3.2-1.1-.7-.5-1.2-1-1.6-1.8s-.7-1.3-.8-1.8c-.1-.4-.2-.9-.2-1.3l3.1-.3c.1 1.1.5 2 1.3 2.5.6.5 1.4.6 2.3.4.9-.2 1.7-.6 2.2-1.2.5-.6.7-1.2.8-2s-.1-1.5-.4-2.2c-.1-.2-.3-.5-.5-.7-.2-.2-.4-.4-.6-.5-.2-.1-.4-.3-.6-.4-.2-.1-.4-.2-.6-.2-.2-.1-.3-.1-.5-.1s-.3-.1-.4-.1h-.2l-.1-3.1c.5-.1.9-.3 1.2-.6.3-.3.5-.6.4-1 0-.1 0-.3-.1-.4-.1-.1-.1-.3-.2-.4-.1-.1-.2-.2-.4-.2-.2-.1-.5-.1-.8 0s-.5.3-.7.6l-2.6-1.7c.5-.9 1.3-1.5 2.3-1.8 1-.4 1.9-.4 2.9 0 .8.3 1.5.8 2 1.5s.8 1.5.8 2.4c0 1-.3 2-1 2.9 1 .7 1.8 1.5 2.3 2.5.6 1.1.8 2.2.8 3.4 0 1.2-.3 2.3-.9 3.3 1.8-.2 3.3-1 4.8-2.3z"/><path class="st2" d="M311 306.1c-1.7.7-3.3 1.1-4.8 1.1h-.4c-1.9-.1-3.5-.5-4.7-1.4-1-.7-1.8-1.5-2.3-2.4-.6-1-.9-2-1-3-.1-1 .1-2 .5-2.9.4-1 1-1.8 1.7-2.4 1-.8 2-1.3 3.2-1.5 1.6-.2 2.9.2 3.9 1 .7.6 1.2 1.5 1.4 2.5.2 1 .1 2-.5 3.1-.6 1-1.4 1.6-2.4 2-1 .4-2.1.3-3.1-.1l1.1-2.9c.3.1.6.1.9 0 .3-.1.5-.3.7-.6.1-.3.2-.6.1-.9-.1-.3-.2-.5-.4-.7-.3-.2-.8-.3-1.4-.2-.5.1-1 .3-1.5.7-.8.8-1.2 1.7-1.2 2.9.1 1.2.7 2.2 2 3 .7.5 1.7.8 3 .8 1.2 0 2.4-.2 3.8-.8 1-.4 1.9-1 2.7-1.7l2.1 2.4c-1 .7-2.1 1.4-3.4 2z"/><path class="st2" d="M331.1 304.1c.4 0 1-.2 1.8-.6.8-.4 1.8-1.1 2.9-2l2 2.4c-2.6 2.2-4.8 3.3-6.7 3.3-.8 0-1.5-.2-2-.7-.8-.6-1.2-1.6-1.1-3v-.5c-1 1.5-2.2 2.9-3.6 4.2h-3.2v-.5c0-1.3.1-3.2.2-5.8-.3.6-.7 1.2-1.1 1.7-.4.6-.8 1.1-1.1 1.5-.3.4-.7.8-1.1 1.4-.5.5-1 1-1.5 1.2-.5.3-1 .4-1.5.4-.2 0-.5 0-.8-.1-.5-.1-.9-.4-1.3-.9-.4-.4-.6-1-.8-1.6-.2-.6-.3-1.2-.4-1.8-.1-.6-.1-1.2-.1-1.9h3.1c0 1.3.1 2.4.4 3 .5-.4 1.4-1.4 2.4-3 1.5-2.2 2.7-4.7 3.7-7.5h3.3c-.1 2-.2 5.1-.3 9.1.8-1.1 1.5-2.2 2.1-3.4.8-1.8 1.4-3.7 1.6-5.7h3.1l-.2 10.2c.2.3.2.4.2.6z"/><path class="st2" d="m352.8 301.5 2 2.4c-2.6 2.2-4.8 3.3-6.7 3.3-.8 0-1.5-.2-2-.7-.8-.6-1.2-1.6-1.1-3v-1s-.1.1-.1.2c-2.3 3-4.4 4.5-6.2 4.5-.4 0-.8-.1-1.2-.2-.5-.2-.8-.5-1.2-.9-.3-.4-.6-.8-.7-1.2-.2-.4-.3-.9-.4-1.4-.1-.5-.1-1-.2-1.3v-1.1l3.1.1c0 .5 0 1 .1 1.4.1.5.2.8.2 1.1s.2.4.3.5c.2 0 .6-.2 1.1-.6.8-.6 1.6-1.5 2.5-2.7 1.6-2 2.5-4.5 2.8-7.4h3.2l-.3 10.2v.5c.4 0 1-.2 1.8-.6s1.9-1.2 3-2.1z"/><path class="st2" d="m368.7 301.5 2 2.4c-2.6 2.2-4.8 3.3-6.7 3.3-.8 0-1.5-.2-2-.7-.8-.6-1.1-1.6-1.1-3v-.8s0 .1-.1.1c-.2.3-.5.6-.8.9-.3.4-.8.8-1.4 1.4s-1.3 1.1-2 1.5c-.7.4-1.4.6-2 .6-.5 0-.9-.1-1.2-.3-1-.5-1.4-1.6-1.4-3.1l.3-10.3h3.1l-.3 10.4c1.1-.6 2.1-1.6 3.2-3 1.6-2 2.5-4.4 2.8-7.3v-.1h3.1V293.8l-.2 9.9v.5c.2 0 .5-.1.9-.2s.9-.4 1.6-.8c.8-.5 1.5-1.1 2.2-1.7zM392.9 301.5l2 2.4c-2.6 2.2-4.8 3.3-6.7 3.3-.8 0-1.5-.2-2-.7-.8-.6-1.2-1.6-1.1-3v-.8c-.6.2-1.2.4-1.8.5-.4.1-.8.1-1.2.1-.6 0-1.1-.1-1.7-.2l-.1 4.1h-3.1l.2-13.8h3.1l-.1 6.4c.8.2 1.5.3 2.3.2.9-.1 1.7-.5 2.4-1l.2-5.6h3.1l-.3 10.2v.5c.4 0 1-.2 1.8-.6s2-1.1 3-2z"/><path class="st2" d="M405.4 306.1c-1.7.7-3.3 1.1-4.8 1.1h-.4c-1.9-.1-3.5-.5-4.7-1.4-1-.7-1.8-1.5-2.3-2.4-.6-1-.9-2-1-3-.1-1 .1-2 .5-2.9.4-1 1-1.8 1.7-2.4 1-.8 2-1.3 3.2-1.5 1.6-.2 2.9.2 3.9 1 .7.6 1.2 1.5 1.4 2.5.2 1 .1 2-.5 3.1-.6 1-1.4 1.6-2.4 2-1 .4-2.1.3-3.1-.1l1.1-2.9c.3.1.6.1.9 0 .3-.1.5-.3.7-.6.1-.3.2-.6.1-.9-.1-.3-.2-.5-.4-.7-.3-.2-.8-.3-1.4-.2-.5.1-1 .3-1.5.7-.8.8-1.2 1.7-1.2 2.9.1 1.2.7 2.2 2 3 .7.5 1.7.8 3 .8 1.2 0 2.4-.2 3.8-.8 1-.4 1.9-1 2.7-1.7l2.1 2.4c-.9.7-2.1 1.4-3.4 2z"/><path class="st2" d="m426.1 301.5 2.1 2.4c-2.6 2.2-4.8 3.3-6.7 3.3-.8 0-1.5-.2-2-.7-.8-.6-1.2-1.6-1.1-2.9V297.2c0-.3-.1-.4-.2-.5h-.3c-.2 0-.3.1-.5.2l-.6.3c-.2.1-.4.3-.6.4-.3.3-.5.7-.7 1.1l-.2 8.4h-3.1l.2-10c0-.2-.1-.4-.2-.5-.1-.1-.4 0-.8.2s-.8.4-1.1.7c-.4.3-.6.8-.8 1.3l-.2 8.3h-3.1l.2-13.8h3.1v.9c.8-.4 1.6-.7 2.3-.7.8 0 1.5.2 2.2.6.2.1.4.3.6.6.6-.4 1.1-.7 1.8-.9.6-.2 1.2-.3 1.9-.2.7.1 1.2.3 1.7.6.8.6 1.3 1.5 1.4 2.8v7.1c.4 0 1-.2 1.8-.6.9-.4 1.8-1.1 2.9-2zM430.4 304.5c.3-.3.7-.5 1.1-.5.4 0 .8.2 1.1.5.3.3.5.7.5 1.1s-.2.8-.5 1.1c-.3.3-.7.5-1.1.5-.4 0-.8-.2-1.1-.5-.3-.3-.5-.7-.5-1.1s.2-.8.5-1.1zm0-20.8h3.1l-.3 18.2-3.1-.1.3-18.1zM446.6 300.3l-4.7 4.7-2.2-2.2 2.5-2.5-2.5-2.5 2.2-2.2 4.7 4.7zm5.6 0-4.7 4.7-2.2-2.2 2.5-2.5-2.5-2.5 2.2-2.2 4.7 4.7zM163.6 339l.1-12.1h3.1l-.1 12.1c0 .2 0 .5-.1.8 0 .3-.1.7-.2 1.1-.1.5-.3.9-.7 1.4-.3.5-.7.9-1.2 1.2-.8.6-1.7.9-2.6.9-.4 0-.8-.1-1.2-.2-.6-.2-1.2-.7-1.7-1.3-1-1.3-1.4-2.8-1.5-4.6l3.1-.1c0 1.1.3 2.1.8 2.8.1.2.3.3.3.3.2.1.5 0 1-.3.7-.4.9-1.1.9-2zm18.3-.3 2 2.4c-2 1.8-4.1 2.8-6.3 3.1-.5.1-1.6.1-3.3.2-.9 0-1.8.1-2.7.1h-.5c-1.6 0-3-.5-4.2-1.5l1.9-2.5c.7.5 1.5.8 2.4.9H171.5c1.2-.1 2.2-.5 2.9-1.4.5-.6.8-1.3.9-2.1.1-.8 0-1.5-.2-2-.4-1-1.2-1.8-2.3-2.3s-2.4-.7-3.6-.4l-.8-3c.8-.3 1.5-.7 2-1.3.5-.6.8-1.2.7-1.9 0-.7-.5-1.4-1.3-2-.2-.1-.4-.2-.5-.3-.9-.5-2-.6-3.3-.3-1.3.3-2.5 1-3.6 2l-1.9-2.1v-.4c1-.8 2-1.5 3.2-2 1.2-.5 2.5-.8 3.7-.8 1.3 0 2.4.3 3.4.8l.9.6c.3.2.6.5 1.1.9.4.4.8.9 1 1.5.3.6.4 1.3.5 1.9.1 1.2-.3 2.4-1.1 3.6 1.1.4 2.1.9 3 1.7.9.8 1.5 1.6 1.9 2.7.4.8.6 1.8.5 3.1-.1 1.2-.4 2.3-.9 3.3 1.3-.5 2.8-1.2 4.2-2.5zM186.3 341.7c.3-.3.7-.5 1.1-.5s.8.2 1.1.5c.3.3.5.7.5 1.1s-.2.8-.5 1.1c-.3.3-.7.5-1.1.5s-.8-.2-1.1-.5c-.3-.3-.5-.7-.5-1.1s.1-.8.5-1.1zM218.3 338.7l2.1 2.4c-2 1.8-4.1 2.8-6.3 3.1-.5.1-1.6.1-3.3.2-.9 0-1.8.1-2.7.1h-.5v-.1c-1.9 0-3.6-.6-5.1-1.8-.7-.6-1.2-1.3-1.7-2.1s-.7-1.5-.8-2c-.1-.5-.2-1-.2-1.5l3.1-.2c.1 1.4.6 2.6 1.6 3.4.7.6 1.6 1 2.6 1.1 1 .1 2-.1 2.9-.7.9-.7 1.5-1.6 1.7-2.7s.1-2.1-.5-3c-.4-.6-.9-1-1.5-1.3-.7-.3-1.4-.5-2.1-.5-.3 0-.5.1-.7.1l-.2-3.1h.7c1-.2 1.8-.7 2.3-1.5.2-.5.4-.9.4-1.4 0-.5-.1-1-.4-1.6-.3-.4-.6-.7-1.1-.9-.4-.2-.9-.3-1.4-.3-.4 0-.7.2-1.1.4-.4.2-.6.4-.7.5-.1.1-.2.3-.2.4l-2.7-1.6c.1-.2.3-.4.4-.6.2-.2.4-.5.8-.8.4-.3.8-.6 1.4-.9.5-.2 1.1-.4 1.8-.5 1-.1 2 .1 3 .6.9.5 1.7 1.1 2.3 2 .6.9.9 1.9.9 3.1 0 1.2-.3 2.2-.9 3.3-.2.4-.5.7-.8 1.1 1 .6 1.7 1.3 2.3 2.2.8 1.2 1.1 2.6 1.1 4s-.5 2.8-1.3 4c1.8-.8 3.3-1.6 4.8-2.9z"/><path class="st2" d="m234.1 338.7 2 2.4c-2.6 2.2-4.8 3.3-6.7 3.3-.8 0-1.5-.2-2-.7-.2-.2-.4-.4-.6-.7-1.1.9-2.3 1.3-3.6 1.3h-.5c-.7-.1-1.3-.3-2-.6-.6-.4-1.1-.7-1.3-1-.3-.3-.5-.6-.7-.9-.6-.8-.9-1.6-1-2.6-.1-1-.1-1.9.1-2.8.2-.9.5-1.6 1-2.3 1-1.6 2.5-2.7 4.6-3.2 2.1-.6 4.2-.5 6.4.3l-1 2.9c-1.5-.5-2.9-.6-4.3-.3s-2.4.9-3 1.9c-.2.4-.4.8-.5 1.2-.1.5-.2 1-.1 1.5 0 .6.2 1.1.5 1.5.5.7 1.1 1.1 1.8 1.1.6 0 1.2-.2 1.9-.7.6-.5 1.1-1.2 1.5-2.1l.1-3.2 3.1.1-.2 5.4v.4c.2 0 .5-.1.9-.2s.9-.4 1.6-.8c.6 0 1.3-.6 2-1.2z"/><path class="st2" d="m250 338.7 2 2.4c-2.6 2.2-4.8 3.3-6.7 3.3-.8 0-1.5-.2-2-.7-.8-.6-1.1-1.6-1.1-3v-.8s0 .1-.1.1c-.2.3-.5.6-.8.9-.3.4-.8.8-1.4 1.4s-1.3 1.1-2 1.5c-.7.4-1.4.6-2 .6-.5 0-.9-.1-1.2-.3-1-.5-1.4-1.6-1.4-3.1l.3-10.3h3.1l-.3 10.4c1.1-.6 2.1-1.6 3.2-3 1.6-2 2.5-4.4 2.8-7.3v-.1h3.1V331l-.2 9.9v.5c.4 0 1-.2 1.8-.6 1-.5 1.9-1.2 2.9-2.1zm-5.9-12.4.4.4c-1.2 1.2-2.7 1.9-4.4 2.2-.4.1-.8.1-1.1.1-1.4 0-2.7-.4-4-1.1l.9-1.6.6-1.1c1 .6 2 .8 3.2.6 1-.1 1.9-.6 2.7-1.3l1.7 1.8z"/><path class="st2" d="m267.6 338.7 2 2.4c-.9.8-1.8 1.6-2.8 2.4-1 .9-1.7 1.5-2 1.8-1.2 1.2-2.3 2.5-3.3 4l-2.7-1.6c.7-1.5 1-2.8.7-3.8 0-.1-.1-.4-.2-.6-.2-.6-.4-1.1-.6-1.5-.2-.7-.3-1.3-.4-2-.1.1-.1.2-.2.2-.2.3-.5.6-.8 1-.3.4-.8.8-1.4 1.4s-1.3 1.1-2 1.5c-.7.4-1.4.6-2 .6-.5 0-.9-.1-1.2-.3-1-.5-1.4-1.6-1.4-3.1l.3-10.3h3.1l-.3 10.4c1.1-.6 2.1-1.6 3.2-3 1.6-2 2.5-4.5 2.8-7.4h3.1l-.2 7.7c-.1.9 0 1.7.3 2.5.1.4.2.8.4 1.2.2.4.3.6.3.9 0 .1 0 .1.1.2l.1-.1c.3-.3 1-1 2.1-1.9 1.1-1 2-1.8 3-2.6z"/><path class="st2" d="M280 343.3c-1.7.7-3.3 1.1-4.8 1.1h-.4c-1.9-.1-3.5-.5-4.7-1.4-1-.7-1.8-1.5-2.3-2.4-.6-1-.9-2-1-3-.1-1 .1-2 .5-2.9.4-1 1-1.8 1.7-2.4 1-.8 2-1.3 3.2-1.5 1.6-.2 2.9.2 3.9 1 .7.6 1.2 1.5 1.4 2.5.2 1 .1 2-.5 3.1-.6 1-1.4 1.6-2.4 2-1 .4-2.1.3-3.1-.1l1.1-2.9c.3.1.6.1.9 0 .3-.1.5-.3.7-.6.1-.3.2-.6.1-.9-.1-.3-.2-.5-.4-.7-.3-.2-.8-.3-1.4-.2-.5.1-1 .3-1.5.7-.8.8-1.2 1.7-1.2 2.9.1 1.2.7 2.2 2 3 .7.5 1.7.8 3 .8 1.2 0 2.4-.2 3.8-.8 1-.4 1.9-1 2.7-1.7l2.1 2.4c-.9.7-2.1 1.4-3.4 2z"/><path class="st2" d="m298.3 338.7 2.1 2.4c-2 1.8-4.1 2.8-6.3 3.1-.6.1-1.6.1-3.3.2-.9 0-1.8.1-2.7.1h-.4c-1.9 0-3.5-.7-4.9-2-1.3-1.3-2-3-2-4.8-.1-2.5.2-4.8 1.1-7.1.2-.5.4-.9.5-1.3s.4-.8.7-1.5c.3-.6.8-1.3 1.3-1.9.5-.6 1.1-1.2 1.7-1.8 1.6-1.4 3.5-2.4 5.7-3 .4-.1.8 0 1.2.2.4.2.6.6.7 1 .4 2 .4 4-.2 5.9-.2.8-.5 1.6-1 2.3-.4.7-.8 1.4-1.3 1.9-.4.5-.9 1-1.4 1.4-.5.4-.9.8-1.3 1-.4.2-.7.4-1 .6l-1.5-2.7c.3-.2.7-.4 1-.7.3-.3.7-.6 1.2-1s.9-1 1.3-1.6c.4-.7.7-1.3.9-2.1.2-.8.4-1.7.3-2.6-1 .5-1.9 1-2.7 1.8-.7.6-1.2 1.2-1.8 1.9-.5.7-.8 1.3-1 1.7-.2.4-.4.9-.6 1.5-.7 1.9-1 3.8-.9 5.9 0 1 .4 1.9 1.1 2.7s1.6 1.1 2.7 1.1h.1c.5 0 .9-.1 1.4-.3.5-.2.9-.5 1.2-.8.7-.7 1.1-1.6 1.1-2.6v-.1c0-.5-.1-1-.3-1.5-.2-.5-.5-.9-.8-1.3l2.3-2.1c.6.7 1.1 1.4 1.4 2.3.4.9.5 1.8.5 2.7 0 1.3-.3 2.5-1 3.5h.1c1.7-.3 3.3-1 4.8-2.4z"/></svg>