<?xml version="1.0" encoding="utf-8"?>
<!-- Generator: Adobe Illustrator 24.0.1, SVG Export Plug-In . SVG Version: 6.00 Build 0)  -->
<svg width="282" version="1.1" id="Слой_1" xmlns="http://www.w3.org/2000/svg" xmlns:xlink="http://www.w3.org/1999/xlink" x="0px" y="0px"
	 viewBox="0 0 319 392" style="enable-background:new 0 0 319 392;" xml:space="preserve">
<style type="text/css">
	.st0{fill:#0A4F7A;stroke:#DDDDDD;stroke-width:0.75;stroke-miterlimit:10;}
	.st1{fill:#0A4F7A;stroke:#F9F9F9;stroke-width:0.5;stroke-miterlimit:10;}
	.st2{fill:#FFFFFF;stroke:#000000;stroke-width:0.75;stroke-miterlimit:10;}
</style>
<path class="st0" d="M30.8,27.2h9.7l-4.9,14.9h2.2L36.3,47H16.9l1.6-4.9h2.2l2.7-8.3L30.8,27.2z M29.4,34.6L27,42h2.6l3.5-10.7
	L29.4,34.6z M38.1,47l5.3-16.2l5.5-3.7h10.6l-5.3,16.2L48.7,47C48.7,47,38.1,47,38.1,47z M46,41.5h2.6l3-9.3H49L46,41.5z M55.7,47
	l6.4-19.8H76l-1.6,4.9h-7.7l-0.6,2l7.3,4.5L70.6,47H55.7z M64.5,38.6L63.4,42H66l0.7-2.1L64.5,38.6z M72.9,47l6.5-19.9h14.9
	l-3.4,10.6l-10.3,4.5L79,47H72.9z M82.3,36.6l3-1.3l1.1-3.1h-2.6L82.3,36.6z M89.7,47L95,30.8l5.5-3.7h10.6l-5.3,16.2l-5.5,3.7H89.7
	z M97.6,41.5h2.6l3-9.3h-2.6L97.6,41.5z M126.2,27.2h14.9L134.6,47h-6.2l4.9-14.9h-2.6L125.8,47h-6.2L126.2,27.2L126.2,27.2z
	 M137.4,47l5.3-16.2l5.5-3.7h10.6l-5.3,16.2l-5.5,3.7H137.4z M145.3,41.5h2.6l3-9.3h-2.6L145.3,41.5z M170,27.2h5.9l-2.7,8.2
	l3.3-2.1l2-6.1h6l-2,6.1l-4.9,3.4l2.6,3.6l-2.2,6.7h-6l2.2-6.7l-1.9-2.3l-2.9,9h-5.9l2.9-9l-3.3,2.3L161,47h-6l2.2-6.7l4.9-3.6
	l-2.6-3.4l2-6.1h6l-2,6.1l1.9,2.1L170,27.2L170,27.2z M180.7,47l4.3-13.3l7.5-6.6h9.6L195.7,47h-6.2l2.5-7.7h-2.6l-2.5,7.7H180.7z
	 M193,36.1l1.6-4.9l-3.7,3.4l-0.5,1.4H193L193,36.1z M208.4,34.6l-4,12.3h-6.2l4.3-13.3l7.5-6.6h9.5L213.1,47h-6.2l5.1-15.7
	L208.4,34.6L208.4,34.6z M215.8,47l5.3-16.2l5.5-3.7h10.6l-5.3,16.2l-5.5,3.7H215.8z M223.7,41.5h2.6l3-9.3h-2.6L223.7,41.5z
	 M233.3,47l6.4-19.9h14.9l-2.4,7.5l-3.9,2l2.5,2.2l-2.7,8.2H233.3z M241.1,41.9h2.7l1.1-3.5h-2.7C242.2,38.4,241.1,41.9,241.1,41.9z
	 M247,32h-2.7l-1,3.2h2.7L247,32z M250.9,47l4.3-13.3l7.5-6.6h9.5L265.7,47h-6.2l2.5-7.7h-2.6L257,47H250.9z M263.1,36.1l1.6-4.9
	l-3.7,3.4l-0.5,1.4H263.1L263.1,36.1z M271.3,47l4.9-14.9h-4l1.6-4.9H288l-1.6,4.9h-4L277.4,47H271.3z M283.4,47l6.4-19.8h6.2
	l-1.6,4.9l7.1,4.1L297.9,47H283.4L283.4,47z M292.7,37.1l-1.6,4.8h2.6l1.2-3.5L292.7,37.1z"/>
<path class="st1" d="M95.9,67.5l4.2-12.8h9.6l-1.6,4.9l-2.5,1.3l1.6,1.4l-1.7,5.3L95.9,67.5L95.9,67.5z M100.9,64.3h1.7l0.7-2.3
	h-1.7L100.9,64.3z M104.7,57.8h-1.7l-0.6,2.1h1.7L104.7,57.8z M115.3,67.5l4.2-12.8h7.6l-1.1,3.4h-3.6l-3,9.5L115.3,67.5L115.3,67.5
	z M123.5,67.5L127,57l3.5-2.4h6.8l-3.4,10.5l-3.5,2.4H123.5z M128.6,64h1.7l2-6h-1.7L128.6,64z M134.8,67.5l4.2-12.8h9.6l-2.2,6.8
	l-6.6,2.9l-1,3H134.8L134.8,67.5z M141,60.8l1.9-0.9l0.7-2h-1.7L141,60.8L141,60.8z M145.7,67.5l3.4-10.5l3.5-2.4h6.8L156,65.2
	l-3.5,2.4L145.7,67.5L145.7,67.5z M150.8,64h1.7l2-6h-1.7L150.8,64z M165.1,54.7h6.3l-3.1,9.6h1.4l-1.1,3.2h-12.5l1.1-3.2h1.4
	l1.7-5.4L165.1,54.7L165.1,54.7z M164.2,59.6l-1.6,4.8h1.7l2.2-6.9C166.5,57.5,164.2,59.6,164.2,59.6z M177.2,62.6H172v-3.2h5.2
	V62.6z M176.9,67.5l4.2-12.8h7.6l-1.1,3.4H184l-3,9.5L176.9,67.5L176.9,67.5z M193.8,67.5h-8.5l4.2-12.8h8.5l-1.1,3.2h-4.5l-0.7,2.1
	h2l-0.7,2.1h-2l-0.7,2.1h4.5L193.8,67.5L193.8,67.5z M195.1,67.5l4.2-12.8h9.6l-2.2,6.8l-6.6,2.9l-1,3H195.1z M201.2,60.8l1.9-0.9
	l0.7-2h-1.7C202.1,58,201.2,60.8,201.2,60.8z M206,67.5l3.4-10.5l3.5-2.4h6.8l-3.4,10.5l-3.5,2.4H206z M211.1,64h1.7l2-6h-1.7
	L211.1,64z M220.9,54.7h4l-2.1,6.5l3.3-3.2l1.1-3.2h4L227,67.5h-4l1.4-4.2l-4.3,4.2h-3.3L220.9,54.7L220.9,54.7z M225.1,54.1
	l-1.3-2.7h2.5l0.5,0.9l1.1-0.9h2.5l-3,2.7H225.1z"/>
<path class="st2" d="M18.4,134l11.9-36.5h27.5l-4.5,13.9l-7.1,3.7l4.7,4L46,134H18.4z M32.8,124.7h4.9l2.1-6.6h-4.9
	C34.9,118.2,32.8,124.7,32.8,124.7z M43.6,106.3h-4.9l-1.9,5.9h4.9L43.6,106.3z M50.9,134l9.7-29.9l10.1-6.7h19.5l-9.7,29.9
	L70.4,134C70.4,134,50.9,134,50.9,134z M65.5,124h4.8l5.6-17.3h-4.8L65.5,124z M101.9,111.3L94.5,134H83.2l7.9-24.4l13.8-12.2h17.6
	L110.6,134H99.2l9.4-29L101.9,111.3z M115.5,134l11.9-36.6h21.7L146,107h-10.3l-8.8,27L115.5,134L115.5,134z M139.1,134l9.7-29.9
	l10.1-6.7h19.5l-9.7,29.9l-10.1,6.7H139.1z M153.7,124h4.8l5.6-17.3h-4.8L153.7,124z M171.5,134l11.9-36.6h21.7L202,107h-10.3
	l-8.8,27L171.5,134L171.5,134z M195.7,134l11.9-36.6H235l-6.4,19.6l-18.8,8.4L207,134L195.7,134L195.7,134z M213.2,114.9l5.6-2.4
	l1.9-5.7h-4.8L213.2,114.9L213.2,114.9z M226.3,134l7.9-24.4L248,97.4h17.6L253.7,134h-11.3l4.6-14.2h-4.8l-4.6,14.2H226.3
	L226.3,134z M248.9,113.9l3-8.9l-6.9,6.3l-0.9,2.6H248.9L248.9,113.9z M282.2,97.5h18l-8.9,27.5h4.2l-3,9.1h-35.8l3-9.1h4.2l5-15.4
	L282.2,97.5z M279.5,111.4l-4.4,13.7h4.8l6.4-19.8L279.5,111.4L279.5,111.4z"/>
<path class="st2" d="M216.8,337.9l2.1,2.4c-2,1.8-4.1,2.8-6.3,3.1c-0.5,0.1-1.6,0.1-3.3,0.2c-0.9,0-1.8,0.1-2.7,0.1h-0.5v-0.1
	c-1.9,0-3.6-0.6-5.1-1.8c-0.7-0.6-1.2-1.3-1.7-2.1s-0.7-1.5-0.8-2s-0.2-1-0.2-1.5l3.1-0.2c0.1,1.4,0.6,2.6,1.6,3.4
	c0.7,0.6,1.6,1,2.6,1.1s2-0.1,2.9-0.7c0.9-0.7,1.5-1.6,1.7-2.7s0.1-2.1-0.5-3c-0.4-0.6-0.9-1-1.5-1.3c-0.7-0.3-1.4-0.5-2.1-0.5
	c-0.3,0-0.5,0.1-0.7,0.1l-0.2-3.1h0.7c1-0.2,1.8-0.7,2.3-1.5c0.2-0.5,0.4-0.9,0.4-1.4s-0.1-1-0.4-1.6c-0.3-0.4-0.6-0.7-1.1-0.9
	c-0.4-0.2-0.9-0.3-1.4-0.3c-0.4,0-0.7,0.2-1.1,0.4c-0.4,0.2-0.6,0.4-0.7,0.5c-0.1,0.1-0.2,0.3-0.2,0.4l-2.7-1.6
	c0.1-0.2,0.3-0.4,0.4-0.6c0.2-0.2,0.4-0.5,0.8-0.8c0.4-0.3,0.8-0.6,1.4-0.9c0.5-0.2,1.1-0.4,1.8-0.5c1-0.1,2,0.1,3,0.6
	c0.9,0.5,1.7,1.1,2.3,2s0.9,1.9,0.9,3.1s-0.3,2.2-0.9,3.3c-0.2,0.4-0.5,0.7-0.8,1.1c1,0.6,1.7,1.3,2.3,2.2c0.8,1.2,1.1,2.6,1.1,4
	s-0.5,2.8-1.3,4C213.8,340,215.3,339.2,216.8,337.9L216.8,337.9z"/>
<path class="st2" d="M232.6,337.9l2,2.4c-2.6,2.2-4.8,3.3-6.7,3.3c-0.8,0-1.5-0.2-2-0.7c-0.2-0.2-0.4-0.4-0.6-0.7
	c-1.1,0.9-2.3,1.3-3.6,1.3h-0.5c-0.7-0.1-1.3-0.3-2-0.6c-0.6-0.4-1.1-0.7-1.3-1c-0.3-0.3-0.5-0.6-0.7-0.9c-0.6-0.8-0.9-1.6-1-2.6
	s-0.1-1.9,0.1-2.8c0.2-0.9,0.5-1.6,1-2.3c1-1.6,2.5-2.7,4.6-3.2c2.1-0.6,4.2-0.5,6.4,0.3l-1,2.9c-1.5-0.5-2.9-0.6-4.3-0.3
	s-2.4,0.9-3,1.9c-0.2,0.4-0.4,0.8-0.5,1.2c-0.1,0.5-0.2,1-0.1,1.5c0,0.6,0.2,1.1,0.5,1.5c0.5,0.7,1.1,1.1,1.8,1.1
	c0.6,0,1.2-0.2,1.9-0.7c0.6-0.5,1.1-1.2,1.5-2.1l0.1-3.2l3.1,0.1l-0.2,5.4v0.4c0.2,0,0.5-0.1,0.9-0.2s0.9-0.4,1.6-0.8
	C231.2,339.1,231.9,338.5,232.6,337.9L232.6,337.9z"/>
<path class="st2" d="M248.5,337.9l2,2.4c-2.6,2.2-4.8,3.3-6.7,3.3c-0.8,0-1.5-0.2-2-0.7c-0.8-0.6-1.1-1.6-1.1-3v-0.8
	c0,0,0,0.1-0.1,0.1c-0.2,0.3-0.5,0.6-0.8,0.9c-0.3,0.4-0.8,0.8-1.4,1.4s-1.3,1.1-2,1.5s-1.4,0.6-2,0.6c-0.5,0-0.9-0.1-1.2-0.3
	c-1-0.5-1.4-1.6-1.4-3.1l0.3-10.3h3.1l-0.3,10.4c1.1-0.6,2.1-1.6,3.2-3c1.6-2,2.5-4.4,2.8-7.3v-0.1h3.1v0.3l-0.2,9.9v0.5
	c0.4,0,1-0.2,1.8-0.6C246.6,339.5,247.5,338.8,248.5,337.9L248.5,337.9z M242.6,325.5l0.4,0.4c-1.2,1.2-2.7,1.9-4.4,2.2
	c-0.4,0.1-0.8,0.1-1.1,0.1c-1.4,0-2.7-0.4-4-1.1l0.9-1.6l0.6-1.1c1,0.6,2,0.8,3.2,0.6c1-0.1,1.9-0.6,2.7-1.3L242.6,325.5
	L242.6,325.5z"/>
<path class="st2" d="M266.1,337.9l2,2.4c-0.9,0.8-1.8,1.6-2.8,2.4c-1,0.9-1.7,1.5-2,1.8c-1.2,1.2-2.3,2.5-3.3,4l-2.7-1.6
	c0.7-1.5,1-2.8,0.7-3.8c0-0.1-0.1-0.4-0.2-0.6c-0.2-0.6-0.4-1.1-0.6-1.5c-0.2-0.7-0.3-1.3-0.4-2c-0.1,0.1-0.1,0.2-0.2,0.2
	c-0.2,0.3-0.5,0.6-0.8,1s-0.8,0.8-1.4,1.4s-1.3,1.1-2,1.5s-1.4,0.6-2,0.6c-0.5,0-0.9-0.1-1.2-0.3c-1-0.5-1.4-1.6-1.4-3.1l0.3-10.3
	h3.1l-0.3,10.4c1.1-0.6,2.1-1.6,3.2-3c1.6-2,2.5-4.5,2.8-7.4h3.1l-0.2,7.7c-0.1,0.9,0,1.7,0.3,2.5c0.1,0.4,0.2,0.8,0.4,1.2
	c0.2,0.4,0.3,0.6,0.3,0.9c0,0.1,0,0.1,0.1,0.2l0.1-0.1c0.3-0.3,1-1,2.1-1.9C264.2,339.5,265.1,338.7,266.1,337.9L266.1,337.9z"/>
<path class="st2" d="M278.5,342.5c-1.7,0.7-3.3,1.1-4.8,1.1h-0.4c-1.9-0.1-3.5-0.5-4.7-1.4c-1-0.7-1.8-1.5-2.3-2.4c-0.6-1-0.9-2-1-3
	s0.1-2,0.5-2.9c0.4-1,1-1.8,1.7-2.4c1-0.8,2-1.3,3.2-1.5c1.6-0.2,2.9,0.2,3.9,1c0.7,0.6,1.2,1.5,1.4,2.5c0.2,1,0.1,2-0.5,3.1
	c-0.6,1-1.4,1.6-2.4,2s-2.1,0.3-3.1-0.1l1.1-2.9c0.3,0.1,0.6,0.1,0.9,0s0.5-0.3,0.7-0.6c0.1-0.3,0.2-0.6,0.1-0.9s-0.2-0.5-0.4-0.7
	c-0.3-0.2-0.8-0.3-1.4-0.2c-0.5,0.1-1,0.3-1.5,0.7c-0.8,0.8-1.2,1.7-1.2,2.9c0.1,1.2,0.7,2.2,2,3c0.7,0.5,1.7,0.8,3,0.8
	c1.2,0,2.4-0.2,3.8-0.8c1-0.4,1.9-1,2.7-1.7l2.1,2.4C281,341.2,279.8,341.9,278.5,342.5L278.5,342.5z"/>
<path class="st2" d="M296.8,337.9l2.1,2.4c-2,1.8-4.1,2.8-6.3,3.1c-0.6,0.1-1.6,0.1-3.3,0.2c-0.9,0-1.8,0.1-2.7,0.1h-0.4
	c-1.9,0-3.5-0.7-4.9-2c-1.3-1.3-2-3-2-4.8c-0.1-2.5,0.2-4.8,1.1-7.1c0.2-0.5,0.4-0.9,0.5-1.3s0.4-0.8,0.7-1.5
	c0.3-0.6,0.8-1.3,1.3-1.9s1.1-1.2,1.7-1.8c1.6-1.4,3.5-2.4,5.7-3c0.4-0.1,0.8,0,1.2,0.2c0.4,0.2,0.6,0.6,0.7,1c0.4,2,0.4,4-0.2,5.9
	c-0.2,0.8-0.5,1.6-1,2.3c-0.4,0.7-0.8,1.4-1.3,1.9c-0.4,0.5-0.9,1-1.4,1.4s-0.9,0.8-1.3,1s-0.7,0.4-1,0.6l-1.5-2.7
	c0.3-0.2,0.7-0.4,1-0.7c0.3-0.3,0.7-0.6,1.2-1s0.9-1,1.3-1.6c0.4-0.7,0.7-1.3,0.9-2.1c0.2-0.8,0.4-1.7,0.3-2.6c-1,0.5-1.9,1-2.7,1.8
	c-0.7,0.6-1.2,1.2-1.8,1.9c-0.5,0.7-0.8,1.3-1,1.7c-0.2,0.4-0.4,0.9-0.6,1.5c-0.7,1.9-1,3.8-0.9,5.9c0,1,0.4,1.9,1.1,2.7
	s1.6,1.1,2.7,1.1h0.1c0.5,0,0.9-0.1,1.4-0.3c0.5-0.2,0.9-0.5,1.2-0.8c0.7-0.7,1.1-1.6,1.1-2.6v-0.1c0-0.5-0.1-1-0.3-1.5
	c-0.2-0.5-0.5-0.9-0.8-1.3l2.3-2.1c0.6,0.7,1.1,1.4,1.4,2.3c0.4,0.9,0.5,1.8,0.5,2.7c0,1.3-0.3,2.5-1,3.5h0.1
	C293.7,340,295.3,339.3,296.8,337.9L296.8,337.9z"/>
<path class="st2" d="M169.1,339.5l0.1-12.1h3.1l-0.1,12.1c0,0.2,0,0.5-0.1,0.8c0,0.3-0.1,0.7-0.2,1.1c-0.1,0.5-0.3,0.9-0.7,1.4
	c-0.3,0.5-0.7,0.9-1.2,1.2c-0.8,0.6-1.7,0.9-2.6,0.9c-0.4,0-0.8-0.1-1.2-0.2c-0.6-0.2-1.2-0.7-1.7-1.3c-1-1.3-1.4-2.8-1.5-4.6
	l3.1-0.1c0,1.1,0.3,2.1,0.8,2.8c0.1,0.2,0.3,0.3,0.3,0.3c0.2,0.1,0.5,0,1-0.3C168.9,341.1,169.1,340.4,169.1,339.5L169.1,339.5z"/>
<path class="st2" d="M187.4,339.2l2,2.4c-2,1.8-4.1,2.8-6.3,3.1c-0.5,0.1-1.6,0.1-3.3,0.2c-0.9,0-1.8,0.1-2.7,0.1h-0.5
	c-1.6,0-3-0.5-4.2-1.5l1.9-2.5c0.7,0.5,1.5,0.8,2.4,0.9h0.3c1.2-0.1,2.2-0.5,2.9-1.4c0.5-0.6,0.8-1.3,0.9-2.1c0.1-0.8,0-1.5-0.2-2
	c-0.4-1-1.2-1.8-2.3-2.3s-2.4-0.7-3.6-0.4l-0.8-3c0.8-0.3,1.5-0.7,2-1.3c0.5-0.6,0.8-1.2,0.7-1.9c0-0.7-0.5-1.4-1.3-2
	c-0.2-0.1-0.4-0.2-0.5-0.3c-0.9-0.5-2-0.6-3.3-0.3c-1.3,0.3-2.5,1-3.6,2l-1.9-2.1v-0.4c1-0.8,2-1.5,3.2-2s2.5-0.8,3.7-0.8
	c1.3,0,2.4,0.3,3.4,0.8l0.9,0.6c0.3,0.2,0.6,0.5,1.1,0.9c0.4,0.4,0.8,0.9,1,1.5c0.3,0.6,0.4,1.3,0.5,1.9c0.1,1.2-0.3,2.4-1.1,3.6
	c1.1,0.4,2.1,0.9,3,1.7c0.9,0.8,1.5,1.6,1.9,2.7c0.4,0.8,0.6,1.8,0.5,3.1c-0.1,1.2-0.4,2.3-0.9,3.3
	C184.5,341.2,186,340.5,187.4,339.2L187.4,339.2z"/>
<path class="st2" d="M191.8,342.2c0.3-0.3,0.7-0.5,1.1-0.5s0.8,0.2,1.1,0.5s0.5,0.7,0.5,1.1s-0.2,0.8-0.5,1.1
	c-0.3,0.3-0.7,0.5-1.1,0.5s-0.8-0.2-1.1-0.5s-0.5-0.7-0.5-1.1S191.4,342.5,191.8,342.2z"/>
<g>
	<path class="st2" d="M29.5,256.5l-2.2,2.2l-4.7-4.7l4.7-4.7l2.2,2.2l-2.4,2.5L29.5,256.5z M35.1,256.5l-2.2,2.2l-4.7-4.7l4.7-4.7
		l2.2,2.2l-2.5,2.5L35.1,256.5z"/>
	<path class="st2" d="M53.4,255.2l2,2.4c-2,1.8-4.1,2.8-6.3,3.1c-0.6,0.1-1.6,0.2-3.3,0.2c-0.9,0-1.8,0-2.7,0h-0.5v0
		c-1.2,0-2.3-0.4-3.2-1.1c-0.7-0.5-1.2-1-1.6-1.8c-0.4-0.7-0.7-1.3-0.8-1.8c-0.1-0.4-0.2-0.9-0.2-1.3l3.1-0.3c0.1,1.1,0.5,2,1.3,2.5
		c0.6,0.5,1.4,0.6,2.3,0.4c0.9-0.2,1.7-0.6,2.2-1.2c0.5-0.6,0.7-1.2,0.8-2c0.1-0.8-0.1-1.5-0.4-2.2c-0.1-0.2-0.3-0.5-0.5-0.7
		c-0.2-0.2-0.4-0.4-0.6-0.5s-0.4-0.3-0.6-0.4c-0.2-0.1-0.4-0.2-0.6-0.2c-0.2-0.1-0.3-0.1-0.5-0.1c-0.2,0-0.3-0.1-0.4-0.1
		c-0.1,0-0.1,0-0.2,0l-0.1-3.1c0.5-0.1,0.9-0.3,1.2-0.6c0.3-0.3,0.5-0.6,0.4-1c0-0.1,0-0.3-0.1-0.4c-0.1-0.1-0.1-0.3-0.2-0.4
		c-0.1-0.1-0.2-0.2-0.4-0.2c-0.2-0.1-0.5-0.1-0.8,0c-0.3,0.1-0.5,0.3-0.7,0.6l-2.6-1.7c0.5-0.9,1.3-1.5,2.3-1.8c1-0.4,1.9-0.4,2.9,0
		c0.8,0.3,1.5,0.8,2,1.5c0.5,0.7,0.8,1.5,0.8,2.4c0,1-0.3,2-1,2.9c1,0.7,1.8,1.5,2.3,2.5c0.6,1.1,0.8,2.2,0.8,3.4
		c0,1.2-0.3,2.3-0.9,3.3C50.4,257.3,51.9,256.5,53.4,255.2z"/>
	<path class="st2" d="M69,255.2l2,2.4c-2.6,2.2-4.8,3.3-6.7,3.3c-0.8,0-1.5-0.2-2-0.7c-0.2-0.2-0.4-0.4-0.6-0.7
		c-1.1,0.9-2.3,1.3-3.6,1.3c-0.1,0-0.3,0-0.5,0c-0.7-0.1-1.3-0.3-2-0.6c-0.6-0.4-1.1-0.7-1.3-1c-0.3-0.3-0.5-0.6-0.7-0.9
		c-0.6-0.8-0.9-1.6-1-2.6c-0.1-1-0.1-1.9,0.1-2.8c0.2-0.9,0.5-1.6,1-2.3c1-1.6,2.5-2.7,4.6-3.2c2.1-0.6,4.2-0.5,6.4,0.3l-1,2.9
		c-1.5-0.5-2.9-0.6-4.3-0.3c-1.4,0.3-2.4,0.9-3,1.9c-0.2,0.4-0.4,0.8-0.5,1.2c-0.1,0.5-0.2,1-0.1,1.5c0,0.6,0.2,1.1,0.5,1.5
		c0.5,0.7,1.1,1.1,1.8,1.1c0.6,0,1.2-0.2,1.9-0.7c0.6-0.5,1.1-1.2,1.5-2.1l0.1-3.2l3.1,0.1l-0.2,5.4c0,0.2,0,0.3,0,0.4h0
		c0.2,0,0.5-0.1,0.9-0.2c0.4-0.1,0.9-0.4,1.6-0.8C67.6,256.4,68.3,255.9,69,255.2z"/>
	<path class="st2" d="M83.6,255.6l0.1-12.1h3.1l-0.1,12.1c0,0.2,0,0.5-0.1,0.8c0,0.3-0.1,0.7-0.2,1.1c-0.1,0.5-0.3,0.9-0.7,1.4
		c-0.3,0.5-0.7,0.9-1.2,1.2c-0.8,0.6-1.7,0.9-2.6,0.9c-0.4,0-0.8-0.1-1.2-0.2c-0.6-0.2-1.2-0.7-1.7-1.3c-1-1.3-1.4-2.8-1.5-4.6
		l3.1-0.1c0,1.1,0.3,2.1,0.8,2.8c0.1,0.2,0.3,0.3,0.3,0.3c0.2,0.1,0.5,0,1-0.3C83.3,257.1,83.6,256.5,83.6,255.6L83.6,255.6z
		 M101.9,255.2l2,2.4c-2,1.8-4.1,2.8-6.3,3.1c-0.5,0.1-1.6,0.1-3.3,0.2c-0.9,0-1.8,0.1-2.7,0.1h-0.1c-0.1,0-0.2,0-0.3,0h-0.1
		c-1.6,0-3-0.5-4.2-1.5l1.9-2.5c0.7,0.5,1.5,0.8,2.4,0.9h0c0.1,0,0.2,0,0.2,0h0.1c1.2-0.1,2.2-0.5,2.9-1.4c0.5-0.6,0.8-1.3,0.9-2.1
		c0.1-0.8,0-1.5-0.2-2c-0.4-1-1.2-1.8-2.3-2.3s-2.4-0.7-3.6-0.4l-0.8-3c0.8-0.3,1.5-0.7,2-1.3c0.5-0.6,0.8-1.2,0.7-1.9
		c0-0.7-0.5-1.4-1.3-2c-0.2-0.1-0.4-0.2-0.5-0.3c-0.9-0.5-2-0.6-3.3-0.3c-1.3,0.3-2.5,1-3.6,2l-1.9-2.1v-0.4c1-0.8,2-1.5,3.2-2
		c1.2-0.5,2.5-0.8,3.7-0.8c1.3,0,2.4,0.3,3.4,0.8c0.3,0.2,0.6,0.4,0.9,0.6c0.3,0.2,0.6,0.5,1.1,0.9c0.4,0.4,0.8,0.9,1,1.5
		c0.3,0.6,0.4,1.3,0.5,1.9c0.1,1.2-0.3,2.4-1.1,3.6c1.1,0.4,2.1,0.9,3,1.7c0.9,0.8,1.5,1.6,1.9,2.7c0.4,0.8,0.6,1.8,0.5,3.1
		c-0.1,1.2-0.4,2.3-0.9,3.3C99,257.3,100.5,256.5,101.9,255.2z"/>
	<path class="st2" d="M118.8,255.2l2,2.4c-2,1.8-4.1,2.8-6.3,3.1c-0.6,0.1-1.6,0.1-3.3,0.2c-0.9,0-1.8,0.1-2.7,0.1
		c-0.1,0-0.2,0-0.3,0h-0.2h0c-1.2,0-2.4-0.3-3.5-0.9s-1.9-1.4-2.5-2.5c-0.6-1.1-0.9-2.2-0.9-3.5c0-1.9,0.7-3.5,2-4.9
		c1.3-1.3,3-2,4.9-2s3.5,0.7,4.9,2c1.3,1.3,2,3,2,4.9c0,1.3-0.3,2.5-1,3.6c0,0,0.1,0,0.1,0C115.7,257.4,117.3,256.6,118.8,255.2z
		 M110.8,256.7c0.7-0.7,1.1-1.6,1.1-2.6s-0.4-1.9-1.1-2.7c-0.7-0.7-1.6-1.1-2.7-1.1c-1,0-1.9,0.4-2.7,1.1c-0.7,0.7-1.1,1.6-1.1,2.7
		s0.4,1.9,1.1,2.7c0.7,0.7,1.6,1.1,2.7,1.1h0h0C109.2,257.8,110.1,257.4,110.8,256.7z"/>
	<path class="st2" d="M136,255.2l2,2.4c-2.6,2.2-4.8,3.3-6.7,3.3c-0.8,0-1.5-0.2-2-0.7c-0.8-0.6-1.2-1.6-1.1-3l0-1
		c0,0-0.1,0.1-0.1,0.2c-2.3,3-4.4,4.5-6.2,4.5c-0.4,0-0.8-0.1-1.2-0.2c-0.5-0.2-0.8-0.5-1.2-0.9s-0.6-0.8-0.7-1.2
		c-0.2-0.4-0.3-0.9-0.4-1.4c-0.1-0.5-0.1-1-0.2-1.3c0-0.4,0-0.7,0-1.1l3.1,0.1c0,0.5,0,1,0.1,1.4c0.1,0.5,0.2,0.8,0.2,1.1
		c0.1,0.3,0.2,0.4,0.3,0.5c0.2,0,0.6-0.2,1.1-0.6c0.8-0.6,1.6-1.5,2.5-2.7c1.6-2,2.5-4.5,2.8-7.4h3.2l-0.3,10.2c0,0.2,0,0.3,0,0.5
		c0.4,0,1-0.2,1.8-0.6S134.9,256.1,136,255.2z"/>
	<path class="st2" d="M141.8,260.5c-1,0.2-1.8,0.4-2.4,0.4c-1,0-1.9-0.3-2.5-0.8c-0.4-0.3-0.7-0.8-1-1.3c-0.3-0.5-0.4-0.9-0.4-1.2
		c0-0.3-0.1-0.5-0.1-0.8c0-0.5,0-1,0.2-1.4c0.1-0.5,0.4-0.9,0.7-1.3c0.3-0.4,0.6-0.7,0.8-1c0.2-0.2,0.5-0.5,0.9-0.9
		c0.8-0.8,1.2-1.3,1.2-1.4c0-0.1-0.1-0.1-0.1-0.2c0-0.1-0.1-0.1-0.2-0.2c-0.1-0.1-0.1-0.1-0.2-0.1c-0.2-0.1-0.5,0.1-0.9,0.5
		l-2.5-1.9c0.5-0.7,1.1-1.2,1.9-1.5c0.7-0.3,1.5-0.4,2.2-0.2c0.5,0.1,0.9,0.3,1.3,0.6c0.4,0.3,0.8,0.7,1,1.1
		c0.3,0.4,0.4,0.9,0.5,1.4c0.1,0.5,0.1,0.9,0,1.3c-0.1,0.4-0.3,0.8-0.5,1.2s-0.5,0.7-0.7,0.9c-0.2,0.2-0.5,0.5-0.9,0.9
		c-0.6,0.5-1,1-1.2,1.3c-0.2,0.3-0.3,0.7-0.3,1c0,0.4,0.1,0.7,0.3,0.9c0.3,0.2,1,0.2,2.2-0.2c1.4-0.4,2.8-1.1,4-2.3l2.1,2.3
		C145.6,259,143.8,260.1,141.8,260.5z"/>
	<path class="st2" d="M162,255.2l2,2.4c-2,1.8-4.1,2.8-6.3,3.1c-0.6,0.1-1.6,0.1-3.3,0.2c-0.9,0-1.8,0.1-2.7,0.1c-0.1,0-0.2,0-0.3,0
		h-0.2h0c-1.2,0-2.4-0.3-3.5-0.9s-1.9-1.4-2.5-2.5c-0.6-1.1-0.9-2.2-0.9-3.5c0-1.9,0.7-3.5,2-4.9c1.3-1.3,3-2,4.9-2s3.5,0.7,4.9,2
		c1.3,1.3,2,3,2,4.9c0,1.3-0.3,2.5-1,3.6c0,0,0.1,0,0.1,0C158.9,257.4,160.4,256.6,162,255.2z M154,256.7c0.7-0.7,1.1-1.6,1.1-2.6
		s-0.4-1.9-1.1-2.7c-0.7-0.7-1.6-1.1-2.7-1.1c-1,0-1.9,0.4-2.7,1.1c-0.7,0.7-1.1,1.6-1.1,2.7s0.4,1.9,1.1,2.7
		c0.7,0.7,1.6,1.1,2.7,1.1h0h0C152.4,257.8,153.3,257.4,154,256.7z"/>
	<path class="st2" d="M178,255.2l2,2.4c-2.6,2.2-4.8,3.3-6.7,3.3c-0.8,0-1.5-0.2-2-0.7c-0.8-0.6-1.1-1.6-1.1-3v-0.8
		c0,0,0,0.1-0.1,0.1c-0.2,0.3-0.5,0.6-0.8,0.9c-0.3,0.4-0.8,0.8-1.4,1.4c-0.6,0.6-1.3,1.1-2,1.5c-0.7,0.4-1.4,0.6-2,0.6
		c-0.5,0-0.9-0.1-1.2-0.3c-1-0.5-1.4-1.6-1.4-3.1l0.3-10.3h3.1l-0.3,10.4c1.1-0.6,2.1-1.6,3.2-3c1.6-2,2.5-4.4,2.8-7.3v-0.1h3.1v0.1
		v0.2l-0.2,9.9c0,0.2,0,0.3,0,0.5c0.4,0,1-0.2,1.8-0.6S177,256.1,178,255.2z M172.1,242.8l0.4,0.4c-1.2,1.2-2.7,1.9-4.4,2.2
		c-0.4,0.1-0.8,0.1-1.1,0.1c-1.4,0-2.7-0.4-4-1.1l0.9-1.6l0.6-1.1c1,0.6,2,0.8,3.2,0.6c1-0.1,1.9-0.6,2.7-1.3L172.1,242.8z"/>
	<path class="st2" d="M204.1,253.2l2.1,2.4c-1.1,1-2.2,1.8-3.3,2.4c-0.7,0.5-1.7,1-2.8,1.5c-0.3,0.2-0.6,0.3-0.9,0.5
		c-0.3,2.1-0.7,3.9-1.2,5.5c-0.6,1.6-1.2,2.8-1.9,3.6c-0.5,0.6-1.1,1.1-1.7,1.5c-1.1,0.8-2.3,1.4-3.7,1.8c-0.1,0-0.3,0.1-0.4,0.1
		c-0.4,0-0.7-0.1-0.9-0.3c-0.4-0.3-0.6-0.7-0.6-1.2c0-1.3,0.1-2.6,0.5-3.8c1-3.4,3.3-6.3,7.1-8.9l0-0.2c-1,0.6-2,0.9-3,0.9
		c-0.1,0-0.3,0-0.5,0c-0.7-0.1-1.3-0.3-2-0.6c-0.6-0.4-1.1-0.7-1.3-1c-0.3-0.3-0.5-0.6-0.7-0.8c-0.6-0.8-0.9-1.7-1-2.7
		c-0.1-1-0.1-1.9,0.1-2.8c0.2-0.9,0.5-1.6,1-2.3c1-1.6,2.5-2.7,4.6-3.2s4.2-0.4,6.4,0.3l-1,3c-1.5-0.5-2.9-0.6-4.3-0.3
		c-1.4,0.3-2.4,1-3,1.9c-0.2,0.3-0.4,0.7-0.5,1.2s-0.2,1-0.1,1.6c0,0.6,0.2,1.1,0.5,1.5c0.5,0.7,1.1,1.1,1.8,1.1
		c0.6,0.1,1.2-0.2,1.9-0.7c0.6-0.5,1.1-1.2,1.4-2.1l0-2.9l3.1,0l-0.1,6.2c0.7-0.4,1.3-0.7,1.7-1
		C202.1,254.8,203.1,254.1,204.1,253.2z M193.7,266.9c0.7-0.7,1.3-2.1,1.8-4.2c-1.7,1.6-2.8,3.3-3.3,5.1c0,0.2-0.1,0.3-0.1,0.4
		c0.1-0.1,0.3-0.2,0.4-0.3h0v0C192.9,267.7,193.3,267.3,193.7,266.9z"/>
	<path class="st2" d="M221.1,253.2l2,2.4c-2.6,2.2-4.8,3.3-6.7,3.3c-0.8,0-1.5-0.2-2-0.7c-0.8-0.6-1.2-1.6-1.1-3l0-1
		c0,0-0.1,0.1-0.1,0.2c-2.3,3-4.4,4.5-6.2,4.5c-0.4,0-0.8-0.1-1.2-0.2c-0.5-0.2-0.8-0.5-1.2-0.9s-0.6-0.8-0.7-1.2
		c-0.2-0.4-0.3-0.9-0.4-1.4c-0.1-0.5-0.1-1-0.2-1.3c0-0.4,0-0.7,0-1.1l3.1,0.1c0,0.5,0,1,0.1,1.4c0.1,0.5,0.2,0.8,0.2,1.1
		c0.1,0.3,0.2,0.4,0.3,0.5c0.2,0,0.6-0.2,1.1-0.6c0.8-0.6,1.6-1.5,2.5-2.7c1.6-2,2.5-4.5,2.8-7.4h3.2l-0.3,10.2c0,0.2,0,0.3,0,0.5
		c0.4,0,1-0.2,1.8-0.6S220.1,254.1,221.1,253.2z"/>
	<path class="st2" d="M237.7,253.2l2,2.4c-2.6,2.2-4.8,3.3-6.7,3.3c-0.8,0-1.5-0.2-2-0.7c-0.5-0.4-0.9-1-1-1.7
		c-0.7,0.7-1.5,1.3-2.4,1.7c-0.9,0.5-1.8,0.7-2.7,0.7c-0.8,0-1.6-0.2-2.2-0.6c-0.8-0.5-1.5-1.3-1.9-2.4c-0.4-1.1-0.5-2.3-0.4-3.6
		l3.1,0.4c-0.1,0.6,0,1.2,0.1,1.8c0.2,0.6,0.4,0.9,0.7,1.1c0.4,0.2,0.9,0.2,1.6-0.1c0.7-0.3,1.3-0.7,1.9-1.3c-0.3-0.1-0.7-0.2-1-0.3
		c-1-0.5-1.7-1.3-2-2.3c-0.4-1-0.5-2-0.2-2.9c0.4-1.4,1.3-2.4,2.8-3.1c1.5-0.7,3.2-0.8,5-0.4l-0.7,3c-1-0.2-1.9-0.2-2.7,0.1
		c-0.8,0.3-1.3,0.7-1.4,1.1c0,0.1,0,0.2,0,0.4c0,0.2,0,0.3,0.1,0.5c0,0.2,0.1,0.3,0.2,0.5c0.1,0.1,0.3,0.3,0.4,0.3
		c0.5,0.2,1,0.2,1.5-0.2v-1h3.1v5.4v0c0,0.2,0,0.3,0,0.5c0.4,0,1-0.2,1.8-0.6C235.7,254.7,236.7,254.1,237.7,253.2z"/>
	<path class="st2" d="M261.9,253.2l2,2.4c-2.6,2.2-4.8,3.3-6.7,3.3c-0.8,0-1.5-0.2-2-0.7c-0.8-0.6-1.2-1.6-1.1-3l0-0.8
		c-0.6,0.2-1.2,0.4-1.8,0.5c-0.4,0.1-0.8,0.1-1.2,0.1c-0.6,0-1.1-0.1-1.7-0.2l-0.1,4.1h-3.1l0.2-13.8h3.1l-0.1,6.4
		c0.8,0.2,1.5,0.3,2.3,0.2c0.9-0.1,1.7-0.5,2.4-1l0.2-5.6h3.1l-0.3,10.2c0,0.2,0,0.4,0,0.5c0.4,0,1-0.2,1.8-0.6
		S260.9,254.1,261.9,253.2z"/>
	<path class="st2" d="M277.7,253.2l2,2.4c-2.6,2.2-4.8,3.3-6.7,3.3c-0.8,0-1.5-0.2-2-0.7c-0.2-0.2-0.4-0.4-0.6-0.7
		c-1.1,0.9-2.3,1.3-3.6,1.3c-0.1,0-0.3,0-0.5,0c-0.7-0.1-1.3-0.3-2-0.6c-0.6-0.4-1.1-0.7-1.3-1c-0.3-0.3-0.5-0.6-0.7-0.9
		c-0.6-0.8-0.9-1.6-1-2.6c-0.1-1-0.1-1.9,0.1-2.8c0.2-0.9,0.5-1.6,1-2.3c1-1.6,2.5-2.7,4.6-3.2c2.1-0.6,4.2-0.5,6.4,0.3l-1,2.9
		c-1.5-0.5-2.9-0.6-4.3-0.3c-1.4,0.3-2.4,0.9-3,1.9c-0.2,0.4-0.4,0.8-0.5,1.2c-0.1,0.5-0.2,1-0.1,1.5c0,0.6,0.2,1.1,0.5,1.5
		c0.5,0.7,1.1,1.1,1.8,1.1c0.6,0,1.2-0.2,1.9-0.7c0.6-0.5,1.1-1.2,1.5-2.1l0.1-3.2l3.1,0.1l-0.2,5.4c0,0.2,0,0.3,0,0.4h0
		c0.2,0,0.5-0.1,0.9-0.2c0.4-0.1,0.9-0.4,1.6-0.8C276.3,254.4,277,253.9,277.7,253.2z"/>
	<path class="st2" d="M287.3,258.6c-1,0.2-1.8,0.3-2.5,0.3c-0.9,0-1.7-0.1-2.5-0.4c-1.4-0.4-2.6-1.1-3.4-2c-0.1-0.1-0.1-0.2-0.2-0.3
		c-0.1-0.1-0.2-0.3-0.4-0.5c-0.2-0.2-0.3-0.5-0.5-0.8c-0.1-0.3-0.3-0.6-0.4-0.9c-0.1-0.4-0.3-0.7-0.3-1.1c-0.1-0.4-0.1-0.8-0.1-1.3
		s0.1-0.9,0.2-1.4c0.4-1.6,1.4-2.9,2.9-4c1.5-1,3-1.4,4.7-1.2c1.3,0.2,2.4,0.8,3.5,1.8l-2.2,2.2c-0.6-0.5-1.1-0.8-1.8-0.9
		c-0.8-0.1-1.7,0.1-2.5,0.7c-0.8,0.6-1.3,1.3-1.5,2.1c-0.1,0.5-0.1,1.1,0.1,1.7s0.3,1,0.5,1.2s0.3,0.4,0.4,0.5
		c0.5,0.5,1.1,0.8,2,1.1c1,0.3,2.1,0.3,3.5,0c1.7-0.4,3.2-1.1,4.7-2.4l2,2.4C291.5,257.1,289.5,258.1,287.3,258.6z"/>
	<path class="st2" d="M54.4,292.2l2,2.4c-2,1.8-4.1,2.8-6.3,3.1c-0.6,0.1-1.6,0.2-3.3,0.2c-0.9,0-1.8,0-2.7,0h-0.5v0
		c-1.2,0-2.3-0.4-3.2-1.1c-0.7-0.5-1.2-1-1.6-1.8s-0.7-1.3-0.8-1.8c-0.1-0.4-0.2-0.9-0.2-1.3l3.1-0.3c0.1,1.1,0.5,2,1.3,2.5
		c0.6,0.5,1.4,0.6,2.3,0.4c0.9-0.2,1.7-0.6,2.2-1.2c0.5-0.6,0.7-1.2,0.8-2s-0.1-1.5-0.4-2.2c-0.1-0.2-0.3-0.5-0.5-0.7
		c-0.2-0.2-0.4-0.4-0.6-0.5c-0.2-0.1-0.4-0.3-0.6-0.4c-0.2-0.1-0.4-0.2-0.6-0.2c-0.2-0.1-0.3-0.1-0.5-0.1c-0.2,0-0.3-0.1-0.4-0.1
		s-0.1,0-0.2,0l-0.1-3.1c0.5-0.1,0.9-0.3,1.2-0.6c0.3-0.3,0.5-0.6,0.4-1c0-0.1,0-0.3-0.1-0.4c-0.1-0.1-0.1-0.3-0.2-0.4
		c-0.1-0.1-0.2-0.2-0.4-0.2c-0.2-0.1-0.5-0.1-0.8,0s-0.5,0.3-0.7,0.6l-2.6-1.7c0.5-0.9,1.3-1.5,2.3-1.8c1-0.4,1.9-0.4,2.9,0
		c0.8,0.3,1.5,0.8,2,1.5c0.5,0.7,0.8,1.5,0.8,2.4c0,1-0.3,2-1,2.9c1,0.7,1.8,1.5,2.3,2.5c0.6,1.1,0.8,2.2,0.8,3.4
		c0,1.2-0.3,2.3-0.9,3.3C51.4,294.3,52.9,293.5,54.4,292.2z"/>
	<path class="st2" d="M66.8,296.8c-1.7,0.7-3.3,1.1-4.8,1.1c-0.1,0-0.3,0-0.4,0c-1.9-0.1-3.5-0.5-4.7-1.4c-1-0.7-1.8-1.5-2.3-2.4
		c-0.6-1-0.9-2-1-3c-0.1-1,0.1-2,0.5-2.9c0.4-1,1-1.8,1.7-2.4c1-0.8,2-1.3,3.2-1.5c1.6-0.2,2.9,0.2,3.9,1c0.7,0.6,1.2,1.5,1.4,2.5
		c0.2,1,0.1,2-0.5,3.1c-0.6,1-1.4,1.6-2.4,2c-1,0.4-2.1,0.3-3.1-0.1l1.1-2.9c0.3,0.1,0.6,0.1,0.9,0c0.3-0.1,0.5-0.3,0.7-0.6
		c0.1-0.3,0.2-0.6,0.1-0.9c-0.1-0.3-0.2-0.5-0.4-0.7c-0.3-0.2-0.8-0.3-1.4-0.2c-0.5,0.1-1,0.3-1.5,0.7c-0.8,0.8-1.2,1.7-1.2,2.9
		c0.1,1.2,0.7,2.2,2,3c0.7,0.5,1.7,0.8,3,0.8c1.2,0,2.4-0.2,3.8-0.8c1-0.4,1.9-1,2.7-1.7l2.1,2.4C69.2,295.5,68,296.2,66.8,296.8z"
		/>
	<path class="st2" d="M86.9,294.8c0.4,0,1-0.2,1.8-0.6c0.8-0.4,1.8-1.1,2.9-2l2,2.4c-2.6,2.2-4.8,3.3-6.7,3.3c-0.8,0-1.5-0.2-2-0.7
		c-0.8-0.6-1.2-1.6-1.1-3v-0.5c-1,1.5-2.2,2.9-3.6,4.2H77l0-0.5c0-1.3,0.1-3.2,0.2-5.8c-0.3,0.6-0.7,1.2-1.1,1.7
		c-0.4,0.6-0.8,1.1-1.1,1.5c-0.3,0.4-0.7,0.8-1.1,1.4c-0.5,0.5-1,1-1.5,1.2c-0.5,0.3-1,0.4-1.5,0.4c-0.2,0-0.5,0-0.8-0.1
		c-0.5-0.1-0.9-0.4-1.3-0.9c-0.4-0.4-0.6-1-0.8-1.6c-0.2-0.6-0.3-1.2-0.4-1.8c-0.1-0.6-0.1-1.2-0.1-1.9l3.1,0c0,1.3,0.1,2.4,0.4,3
		c0.5-0.4,1.4-1.4,2.4-3c1.5-2.2,2.7-4.7,3.7-7.5h3.3c-0.1,2-0.2,5.1-0.3,9.1c0.8-1.1,1.5-2.2,2.1-3.4c0.8-1.8,1.4-3.7,1.6-5.7h3.1
		l-0.2,10.2C86.9,294.5,86.9,294.7,86.9,294.8z"/>
	<path class="st2" d="M108.6,292.2l2,2.4c-2.6,2.2-4.8,3.3-6.7,3.3c-0.8,0-1.5-0.2-2-0.7c-0.8-0.6-1.2-1.6-1.1-3l0-1
		c0,0-0.1,0.1-0.1,0.2c-2.3,3-4.4,4.5-6.2,4.5c-0.4,0-0.8-0.1-1.2-0.2c-0.5-0.2-0.8-0.5-1.2-0.9c-0.3-0.4-0.6-0.8-0.7-1.2
		c-0.2-0.4-0.3-0.9-0.4-1.4c-0.1-0.5-0.1-1-0.2-1.3c0-0.4,0-0.7,0-1.1l3.1,0.1c0,0.5,0,1,0.1,1.4c0.1,0.5,0.2,0.8,0.2,1.1
		s0.2,0.4,0.3,0.5c0.2,0,0.6-0.2,1.1-0.6c0.8-0.6,1.6-1.5,2.5-2.7c1.6-2,2.5-4.5,2.8-7.4h3.2l-0.3,10.2c0,0.2,0,0.3,0,0.5
		c0.4,0,1-0.2,1.8-0.6S107.5,293.1,108.6,292.2z"/>
	<path class="st2" d="M124.5,292.2l2,2.4c-2.6,2.2-4.8,3.3-6.7,3.3c-0.8,0-1.5-0.2-2-0.7c-0.8-0.6-1.1-1.6-1.1-3v-0.8
		c0,0,0,0.1-0.1,0.1c-0.2,0.3-0.5,0.6-0.8,0.9c-0.3,0.4-0.8,0.8-1.4,1.4s-1.3,1.1-2,1.5c-0.7,0.4-1.4,0.6-2,0.6
		c-0.5,0-0.9-0.1-1.2-0.3c-1-0.5-1.4-1.6-1.4-3.1l0.3-10.3h3.1l-0.3,10.4c1.1-0.6,2.1-1.6,3.2-3c1.6-2,2.5-4.4,2.8-7.3v-0.1h3.1v0.1
		v0.2l-0.2,9.9c0,0.2,0,0.3,0,0.5c0.2,0,0.5-0.1,0.9-0.2c0.4-0.1,0.9-0.4,1.6-0.8C123.1,293.4,123.8,292.9,124.5,292.2z"/>
	<path class="st2" d="M148.7,292.2l2,2.4c-2.6,2.2-4.8,3.3-6.7,3.3c-0.8,0-1.5-0.2-2-0.7c-0.8-0.6-1.2-1.6-1.1-3l0-0.8
		c-0.6,0.2-1.2,0.4-1.8,0.5c-0.4,0.1-0.8,0.1-1.2,0.1c-0.6,0-1.1-0.1-1.7-0.2l-0.1,4.1h-3.1l0.2-13.8h3.1l-0.1,6.4
		c0.8,0.2,1.5,0.3,2.3,0.2c0.9-0.1,1.7-0.5,2.4-1l0.2-5.6h3.1l-0.3,10.2c0,0.2,0,0.4,0,0.5c0.4,0,1-0.2,1.8-0.6
		S147.6,293.1,148.7,292.2z"/>
	<path class="st2" d="M161.2,296.8c-1.7,0.7-3.3,1.1-4.8,1.1c-0.1,0-0.3,0-0.4,0c-1.9-0.1-3.5-0.5-4.7-1.4c-1-0.7-1.8-1.5-2.3-2.4
		c-0.6-1-0.9-2-1-3c-0.1-1,0.1-2,0.5-2.9c0.4-1,1-1.8,1.7-2.4c1-0.8,2-1.3,3.2-1.5c1.6-0.2,2.9,0.2,3.9,1c0.7,0.6,1.2,1.5,1.4,2.5
		c0.2,1,0.1,2-0.5,3.1c-0.6,1-1.4,1.6-2.4,2c-1,0.4-2.1,0.3-3.1-0.1l1.1-2.9c0.3,0.1,0.6,0.1,0.9,0c0.3-0.1,0.5-0.3,0.7-0.6
		c0.1-0.3,0.2-0.6,0.1-0.9c-0.1-0.3-0.2-0.5-0.4-0.7c-0.3-0.2-0.8-0.3-1.4-0.2c-0.5,0.1-1,0.3-1.5,0.7c-0.8,0.8-1.2,1.7-1.2,2.9
		c0.1,1.2,0.7,2.2,2,3c0.7,0.5,1.7,0.8,3,0.8c1.2,0,2.4-0.2,3.8-0.8c1-0.4,1.9-1,2.7-1.7l2.1,2.4
		C163.7,295.5,162.5,296.2,161.2,296.8z"/>
	<path class="st2" d="M181.9,292.2l2.1,2.4c-2.6,2.2-4.8,3.3-6.7,3.3c-0.8,0-1.5-0.2-2-0.7c-0.8-0.6-1.2-1.6-1.1-2.9v-5.8v0
		c0-0.2,0-0.3,0-0.5v-0.1c0-0.3-0.1-0.4-0.2-0.5c0,0-0.1,0-0.3,0s-0.3,0.1-0.5,0.2c-0.2,0.1-0.4,0.2-0.6,0.3
		c-0.2,0.1-0.4,0.3-0.6,0.4c-0.3,0.3-0.5,0.7-0.7,1.1l-0.2,8.4h-3.1l0.2-10c0-0.2-0.1-0.4-0.2-0.5c-0.1-0.1-0.4,0-0.8,0.2
		c-0.4,0.2-0.8,0.4-1.1,0.7c-0.4,0.3-0.6,0.8-0.8,1.3l-0.2,8.3h-3.1l0.2-13.8h3.1v0.9c0.8-0.4,1.6-0.7,2.3-0.7
		c0.8,0,1.5,0.2,2.2,0.6c0.2,0.1,0.4,0.3,0.6,0.6c0.6-0.4,1.1-0.7,1.8-0.9c0.6-0.2,1.2-0.3,1.9-0.2c0.7,0.1,1.2,0.3,1.7,0.6
		c0.8,0.6,1.3,1.5,1.4,2.8c0,0.1,0,0.2,0,0.4c0,0.1,0,0.3,0,0.4v0.3v5.5v0c0,0.2,0,0.4,0,0.5c0.4,0,1-0.2,1.8-0.6
		C179.9,293.8,180.8,293.1,181.9,292.2z"/>
	<path class="st2" d="M186.2,295.2c0.3-0.3,0.7-0.5,1.1-0.5c0.4,0,0.8,0.2,1.1,0.5c0.3,0.3,0.5,0.7,0.5,1.1s-0.2,0.8-0.5,1.1
		c-0.3,0.3-0.7,0.5-1.1,0.5c-0.4,0-0.8-0.2-1.1-0.5c-0.3-0.3-0.5-0.7-0.5-1.1S185.9,295.5,186.2,295.2z M188.1,274.4h3.1l-2.3,18.2
		l-3.1-0.1L188.1,274.4z"/>
	<path class="st2" d="M202.4,291.1l-4.7,4.7l-2.2-2.2l2.5-2.5l-2.5-2.5l2.2-2.2L202.4,291.1z M207.9,291.1l-4.7,4.7l-2.2-2.2
		l2.5-2.5l-2.5-2.5l2.2-2.2L207.9,291.1z"/>
</g>
</svg>
