<?xml version="1.0" standalone="no"?>
<!DOCTYPE svg PUBLIC "-//W3C//DTD SVG 20010904//EN"
 "http://www.w3.org/TR/2001/REC-SVG-20010904/DTD/svg10.dtd">
<svg version="1.0" xmlns="http://www.w3.org/2000/svg"
 width="22.000000pt" height="80.000000pt" viewBox="0 0 22.000000 80.000000"
 preserveAspectRatio="xMidYMid meet">

<g transform="translate(0.000000,80.000000) scale(0.100000,-0.100000)"
fill="#134563" stroke="none">
<path d="M10 775 c0 -21 70 -579 73 -581 1 0 25 9 53 22 l51 22 6 79 c4 43 9
162 13 264 l7 186 -59 7 c-32 4 -78 9 -101 13 -36 4 -43 3 -43 -12z"/>
<path d="M129 155 c-41 -21 -46 -28 -57 -75 -7 -28 -12 -56 -12 -61 0 -5 32
-9 70 -9 l70 0 0 63 c0 64 -8 107 -19 107 -3 -1 -27 -12 -52 -25z"/>
</g>
</svg>
